<?xml version="1.0" standalone="no"?>
<!DOCTYPE svg PUBLIC "-//W3C//DTD SVG 1.1//EN" "http://www.w3.org/Graphics/SVG/1.1/DTD/svg11.dtd" >
<svg xmlns="http://www.w3.org/2000/svg" xmlns:xlink="http://www.w3.org/1999/xlink" version="1.1">
<metadata>
Created by FontForge 20190801 at Tue Nov  3 19:38:49 2020
 By root
(c) 2015-2020 Apple Inc. All rights reserved.
</metadata>
<defs>
<font id="SFCompactDisplay-Bold" horiz-adv-x="1238" >
  <font-face 
    font-family="SF Compact Display"
    font-weight="700"
    font-stretch="normal"
    units-per-em="2048"
    panose-1="2 11 3 4 3 2 2 6 2 4"
    ascent="1638"
    descent="-410"
    x-height="1068"
    cap-height="1365"
    bbox="-63 -480.059 2251 1781"
    underline-thickness="50"
    underline-position="-100"
    unicode-range="U+0020-2122"
  />
<missing-glyph horiz-adv-x="2048" 
 />
    <glyph glyph-name=".notdef" horiz-adv-x="2048" 
 />
    <glyph glyph-name="space" unicode=" " horiz-adv-x="398" 
 />
    <glyph glyph-name="exclam" unicode="!" horiz-adv-x="582" 
d="M116 1365h350l-38 -945h-276zM116 138q0 70 50.5 114t124.5 44t124 -44t50 -114t-50 -114t-124 -44t-124.5 44t-50.5 114z" />
    <glyph glyph-name="quotedbl" unicode="&#x22;" horiz-adv-x="902" 
d="M92 1365h297l-40 -550h-217zM513 1365h296l-40 -550h-216z" />
    <glyph glyph-name="numbersign" unicode="#" horiz-adv-x="1254" 
d="M1201 800h-212l-44 -219h209l-44 -227h-203l-71 -354h-238l70 354h-224l-71 -354h-238l70 354h-194l43 227h202l44 219h-199l42 227h196l66 338h241l-69 -338h225l66 338h239l-66 -338h202zM519 829l-55 -276h263l54 276h-262z" />
    <glyph glyph-name="dollar" unicode="$" 
d="M106 409h292q7 -54 51 -94t117 -53v302l-95 21q-160 32 -249.5 121.5t-89.5 240.5q0 168 118 273.5t316 121.5v149h113v-149q204 -12 319.5 -119t121.5 -256h-284q-6 52 -47 91t-110 51v-285l114 -23q77 -15 137.5 -41.5t109.5 -69t75.5 -107.5t26.5 -150
q0 -174 -120 -284.5t-343 -124.5v-149h-113v148q-117 7 -206 41t-142.5 88.5t-81 118.5t-30.5 138zM438 969q0 -84 128 -120v258q-62 -13 -95 -50t-33 -88zM841 402q0 54 -39 85.5t-123 52.5v-281q79 9 120.5 47.5t41.5 95.5z" />
    <glyph glyph-name="percent" unicode="%" horiz-adv-x="1612" 
d="M358 692q-141 0 -222.5 89t-81.5 238v49q0 149 82.5 238t222.5 89q141 0 222.5 -89t81.5 -238v-49q0 -147 -82 -237t-223 -90zM395 -1h-234l570 727l486 639h235l-558 -710zM358 882q36 0 56.5 36t20.5 102v47q0 66 -20.5 102t-56.5 36q-35 0 -55.5 -36t-20.5 -102v-47
q0 -66 20.5 -102t55.5 -36zM1253 -17q-141 0 -222.5 89.5t-81.5 238.5v48q0 149 82.5 238t222.5 89q141 0 222.5 -89t81.5 -238v-48q0 -148 -82 -238t-223 -90zM1254 173q35 0 55.5 36t20.5 102v48q0 66 -20.5 101.5t-55.5 35.5q-36 0 -56.5 -35.5t-20.5 -101.5v-48
q0 -66 20.5 -102t56.5 -36z" />
    <glyph glyph-name="ampersand" unicode="&#x26;" horiz-adv-x="1384" 
d="M1055 0l-98 104q-73 -62 -181 -97t-235 -35q-222 0 -352 103.5t-130 277.5q0 122 64 207t182 152q26 15 66 34q-85 87 -127 157t-42 153q0 141 115.5 230.5t284.5 89.5q101 0 187.5 -33t144.5 -106.5t58 -174.5q0 -63 -22.5 -118t-63.5 -98.5t-84.5 -75t-99.5 -62.5
l233 -254q43 76 43 229v82h253v-102q0 -113 -29.5 -216.5t-86.5 -178.5l258 -268h-338zM582 846q78 41 118 86t40 107q0 63 -39 101t-98 38q-61 0 -100.5 -39t-39.5 -99q0 -45 26.5 -87.5t92.5 -106.5zM474 570q-129 -74 -129 -191q0 -88 65 -138t163 -50q65 0 127 22t99 63
l-290 312q-29 -15 -35 -18z" />
    <glyph glyph-name="quotesingle" unicode="'" horiz-adv-x="481" 
d="M92 1365h297l-40 -550h-217z" />
    <glyph glyph-name="parenleft" unicode="(" horiz-adv-x="765" 
d="M432 1437h300q-92 -110 -167 -340t-75 -517q0 -149 20 -282.5t57.5 -245.5t74.5 -193.5t88 -173.5h-307q-112 147 -187 372.5t-75 520.5q0 156 20.5 287.5t60.5 235t84.5 181t105.5 155.5z" />
    <glyph glyph-name="parenright" unicode=")" horiz-adv-x="765" 
d="M33 1437h300q61 -78 105.5 -155.5t84.5 -181t61 -235t21 -287.5q0 -295 -75.5 -521t-187.5 -372h-306q51 92 87.5 173.5t74 193.5t57.5 245.5t20 282.5q0 287 -75 517t-167 340z" />
    <glyph glyph-name="asterisk" unicode="*" horiz-adv-x="930" 
d="M559 646h-187l29 252l-207 -149l-94 162l228 101l-229 104l95 163l203 -147l-26 250h189l-27 -248l203 146l95 -164l-230 -104l230 -101l-95 -162l-205 149z" />
    <glyph glyph-name="plus" unicode="+" 
d="M759 430v-409h-280v409h-385v272h385v399h280v-399h385v-272h-385z" />
    <glyph glyph-name="comma" unicode="," horiz-adv-x="465" 
d="M241 -311h-216l114 550h285z" />
    <glyph glyph-name="hyphen" unicode="-" horiz-adv-x="789" 
d="M709 418h-630v284h630v-284z" />
    <glyph glyph-name="hyphen" unicode="&#x2011;" horiz-adv-x="789" 
d="M709 418h-630v284h630v-284z" />
    <glyph glyph-name="hyphen" unicode="&#x2010;" horiz-adv-x="789" 
d="M709 418h-630v284h630v-284z" />
    <glyph glyph-name="period" unicode="." horiz-adv-x="565" 
d="M103 157q0 74 53 127t127 53t127 -53t53 -127t-53 -127t-127 -53t-127 53t-53 127z" />
    <glyph glyph-name="slash" unicode="/" horiz-adv-x="765" 
d="M281 -315h-290l493 1752h291z" />
    <glyph glyph-name="zero" unicode="0" horiz-adv-x="1213" 
d="M67 640v87q0 300 144 481t399 181q256 0 396 -179t140 -483v-87q0 -112 -21 -211t-65.5 -182.5t-108 -144t-152.5 -94t-196 -33.5q-255 0 -395.5 181.5t-140.5 483.5zM398 726v-85q0 -198 56 -300t153 -102q96 0 152.5 102.5t56.5 299.5v85q0 197 -56.5 298t-152.5 101
q-97 0 -153 -100.5t-56 -298.5z" />
    <glyph glyph-name="one" unicode="1" horiz-adv-x="862" 
d="M723 0h-327v1064h-14q-253 -166 -308 -204v291q126 88 326 214h323v-1365z" />
    <glyph glyph-name="two" unicode="2" horiz-adv-x="1162" 
d="M390 938h-309v19q0 184 140 308t361 124q216 0 348.5 -107.5t132.5 -279.5q0 -111 -54 -204t-190 -233l-271 -292v-11h539v-262h-984v204l486 505q78 79 113.5 138t35.5 122q0 73 -48 118t-124 45q-77 0 -126.5 -50t-49.5 -123v-21z" />
    <glyph glyph-name="three" unicode="3" horiz-adv-x="1187" 
d="M429 580v244h144q85 0 137.5 46t52.5 118q-1 67 -53 111t-134 44q-86 0 -137 -51t-53 -118h-307q7 187 141.5 301t368.5 114q139 0 251.5 -45t177.5 -127t66 -186q1 -69 -22.5 -127t-61.5 -94t-79.5 -57t-82.5 -27v-14q51 -4 100.5 -25.5t91.5 -60.5t68 -101.5t27 -140.5
q1 -123 -75.5 -217.5t-201 -143t-272.5 -48.5q-127 0 -227 34t-161.5 93t-94 133.5t-33.5 160.5h302q5 -75 66 -122.5t156 -47.5q97 0 155 50.5t57 128.5q0 76 -57.5 125.5t-158.5 49.5h-151z" />
    <glyph glyph-name="four" unicode="4" horiz-adv-x="1230" 
d="M555 1365h468v-873h160v-259h-160v-233h-308v233h-658v262q169 326 498 870zM345 492h370v636h-13q-217 -350 -357 -632v-4z" />
    <glyph glyph-name="five" unicode="5" horiz-adv-x="1222" 
d="M98 382h300q11 -69 71 -111t149 -42q91 0 156.5 62t65.5 163q0 99 -62.5 161.5t-159.5 62.5q-79 0 -132.5 -36.5t-76.5 -84.5h-293l58 809h888v-259h-628l-28 -305h13q29 43 104.5 80t187.5 37q120 0 221 -52.5t164.5 -156.5t63.5 -240q0 -227 -152 -361t-395 -134
q-237 0 -374 116t-141 291z" />
    <glyph glyph-name="six" unicode="6" horiz-adv-x="1192" 
d="M1098 1012h-303q-8 51 -56 88t-119 37q-84 0 -141 -61t-81 -156.5t-20 -213.5h15q15 35 38 66.5t59.5 61.5t91.5 48t121 18q114 0 209.5 -50t156 -152.5t60.5 -240.5q0 -224 -145.5 -353t-365.5 -129q-259 0 -402 180q-146 182 -146 509q0 344 148 534t409 190
q110 0 201.5 -34.5t147.5 -90t87.5 -120.5t34.5 -131zM414 445q0 -98 57.5 -157.5t145.5 -59.5q87 0 143.5 58.5t56.5 158.5q0 99 -57 158.5t-143 59.5q-89 0 -146 -60.5t-57 -157.5z" />
    <glyph glyph-name="seven" unicode="7" horiz-adv-x="1121" 
d="M61 1365h986v-267l-550 -1098h-348l571 1093v10h-659v262z" />
    <glyph glyph-name="eight" unicode="8" horiz-adv-x="1243" 
d="M620 -25q-256 0 -406 111t-150 291q0 78 27 141t71.5 102t93.5 62.5t101 32.5v11q-107 32 -172.5 107t-65.5 197q0 157 137 258t366 101q228 0 365.5 -101t137.5 -258q0 -122 -66 -197.5t-173 -106.5v-11q53 -9 102 -32.5t93 -62.5t71 -101.5t27 -140.5
q0 -180 -151.5 -291.5t-407.5 -111.5zM622 815q81 0 134.5 48.5t53.5 125.5q0 76 -53.5 124.5t-134.5 48.5t-134.5 -48.5t-53.5 -124.5q0 -77 53.5 -125.5t134.5 -48.5zM622 201q98 0 163 56t65 145q0 90 -65 146.5t-163 56.5t-163 -56.5t-65 -146.5q0 -89 65 -145t163 -56z
" />
    <glyph glyph-name="nine" unicode="9" horiz-adv-x="1192" 
d="M91 358h302q9 -56 59.5 -93.5t123.5 -37.5q68 0 118.5 37.5t78 101t39 138.5t7.5 158h-17q-23 -78 -102.5 -135.5t-210.5 -57.5q-85 0 -160.5 29t-133.5 83.5t-92 139.5t-34 190q0 149 70.5 259.5t183.5 164.5t252 54q262 0 407 -178.5t145 -517.5q0 -334 -146 -525.5
t-411 -191.5q-113 0 -206 35t-150 92t-88.5 122.5t-34.5 132.5zM783 919q0 101 -56 160t-145 59q-87 0 -144.5 -58.5t-57.5 -159.5q0 -99 56 -157t144 -58q87 0 145 60.5t58 153.5z" />
    <glyph glyph-name="colon" unicode=":" horiz-adv-x="581" 
d="M109 815q0 74 53 127t127 53t127 -53t53 -127t-53 -127t-127 -53t-127 53t-53 127zM109 157q0 74 53 127t127 53t127 -53t53 -127t-53 -127t-127 -53t-127 53t-53 127z" />
    <glyph glyph-name="semicolon" unicode=";" horiz-adv-x="578" 
d="M114 815q0 74 53.5 127t127.5 53t127 -53t53 -127t-53 -127t-127 -53t-127.5 53t-53.5 127zM312 -311h-229l64 550h285z" />
    <glyph glyph-name="less" unicode="&#x3c;" 
d="M135 439v194l962 511v-316l-583 -280v-14l583 -279v-308z" />
    <glyph glyph-name="equal" unicode="=" 
d="M1113 656h-988v252h988v-252zM1113 199h-988v251h988v-251z" />
    <glyph glyph-name="greater" unicode="&#x3e;" 
d="M1097 633v-194l-962 -492v308l583 279v14l-583 280v316z" />
    <glyph glyph-name="question" unicode="?" horiz-adv-x="995" 
d="M29 974q-4 86 20.5 156.5t69 118t107 80t132 47t145.5 14.5q96 0 178.5 -24t146.5 -69.5t101 -118.5t37 -165q0 -51 -12.5 -95.5t-29.5 -75t-47 -60.5t-53 -47.5t-59 -41.5q-54 -36 -77 -53t-47.5 -43.5t-32 -53.5t-7.5 -67v-48h-283l-2 45q-21 213 171 334q44 29 65 44
t46 39.5t34.5 49.5t9.5 57q0 71 -46 108t-112 37q-76 0 -118.5 -47t-44.5 -121h-292zM289 138q0 70 50 114t124 44t124.5 -44t50.5 -114t-50.5 -114t-124.5 -44t-124 44t-50 114z" />
    <glyph glyph-name="at" unicode="@" horiz-adv-x="1734" 
d="M1292 133q-91 0 -164 39t-93 109h-9q-20 -70 -84.5 -108.5t-148.5 -38.5q-133 0 -210.5 88t-77.5 240v122q0 145 77.5 232.5t210.5 87.5q92 0 146.5 -42.5t71.5 -101.5h7v129h209v-501q0 -45 26 -70.5t68 -25.5q59 0 102 81t43 237v27q0 110 -40 207t-112 169t-180 114
t-236 42h-9q-272 0 -438 -170t-166 -453v-35q0 -124 32 -226.5t87 -172t130 -117.5t160 -69.5t178 -21.5h10q179 0 269 41v-168q-85 -40 -282 -40h-10q-165 0 -305 50.5t-243.5 146t-161.5 242t-58 329.5v48q0 175 58.5 322t163 248.5t253 158t323.5 56.5h8q119 0 224.5 -26
t188 -72.5t148 -111t109 -141.5t66 -163.5t22.5 -178.5v-49q0 -205 -97 -334t-266 -129zM731 496q0 -182 133 -182q128 0 128 169v84q0 83 -37 122.5t-93 39.5q-61 0 -96 -45t-35 -136v-52z" />
    <glyph glyph-name="A" unicode="A" horiz-adv-x="1299" 
d="M339 0h-330l440 1365h404l437 -1365h-352l-88 313h-422zM649 1069h-15l-145 -517h302z" />
    <glyph glyph-name="B" unicode="B" horiz-adv-x="1281" 
d="M133 0v1365h605q190 0 305 -89.5t115 -245.5q0 -124 -69 -200.5t-175 -97.5v-15q59 -4 113 -26.5t98.5 -61.5t71 -101.5t26.5 -140.5q0 -91 -36.5 -165t-101 -122t-151 -74t-186.5 -26h-615zM460 1131v-321h159q109 0 162.5 43.5t53.5 119.5q0 73 -48 115.5t-133 42.5
h-194zM460 598v-364h177q250 0 250 180q0 85 -55.5 134.5t-161.5 49.5h-210z" />
    <glyph glyph-name="C" unicode="C" horiz-adv-x="1299" 
d="M414 753v-146q0 -173 67.5 -266t191.5 -93q110 0 174 70t65 180h316v-40q0 -215 -156.5 -349t-401.5 -134q-282 0 -437.5 169.5t-155.5 464.5v144q0 296 155.5 466t437.5 170q161 0 288 -60.5t198.5 -173t71.5 -257.5v-39h-316q-1 114 -65 185.5t-174 71.5
q-124 0 -191.5 -93.5t-67.5 -269.5z" />
    <glyph glyph-name="D" unicode="D" horiz-adv-x="1351" 
d="M133 1365h536q312 0 464.5 -176t152.5 -501q0 -327 -154 -507.5t-463 -180.5h-536v1365zM464 1103v-841h153q61 0 108 11t90 39.5t71 74.5t44.5 120t16.5 173q0 95 -16 168t-52.5 132.5t-102.5 91t-159 31.5h-153z" />
    <glyph glyph-name="E" unicode="E" horiz-adv-x="1146" 
d="M1050 262v-262h-917v1365h917v-262h-590v-295h553v-242h-553v-304h590z" />
    <glyph glyph-name="F" unicode="F" horiz-adv-x="1093" 
d="M464 0h-331v1365h910v-265h-579v-328h527v-258h-527v-514z" />
    <glyph glyph-name="G" unicode="G" horiz-adv-x="1324" 
d="M1245 914h-320q-11 91 -75 148t-170 57q-130 0 -199.5 -90.5t-69.5 -257.5v-165q0 -166 66 -263t212 -97q113 0 179.5 62t66.5 152v58h-237v232h548v-265q0 -102 -35 -192.5t-102.5 -162t-178 -113.5t-249.5 -42q-154 0 -271.5 47.5t-189.5 134t-107.5 199t-35.5 249.5
v169q0 279 159 447t446 168q133 0 241 -39t176.5 -105.5t106 -151t39.5 -179.5z" />
    <glyph glyph-name="H" unicode="H" horiz-adv-x="1428" 
d="M1296 0h-331v558h-501v-558h-331v1365h331v-539h501v539h331v-1365z" />
    <glyph glyph-name="I" unicode="I" horiz-adv-x="596" 
d="M464 0h-331v1365h331v-1365z" />
    <glyph glyph-name="J" unicode="J" horiz-adv-x="1125" 
d="M26 437h317q2 -79 44.5 -125t120.5 -46q86 0 125 50.5t39 151.5v897h332v-902q0 -239 -129.5 -363.5t-363.5 -124.5q-97 0 -178 25t-137 68.5t-95 102.5t-57 126t-18 140z" />
    <glyph glyph-name="K" unicode="K" horiz-adv-x="1304" 
d="M1300 1365l-473 -592l491 -773h-390l-343 555l-121 -143v-412h-331v1365h331v-580h14l469 580h353z" />
    <glyph glyph-name="L" unicode="L" horiz-adv-x="1037" 
d="M1011 276v-276h-878v1365h331v-1089h547z" />
    <glyph glyph-name="M" unicode="M" horiz-adv-x="1660" 
d="M428 0h-294v1365h342l350 -771h10l351 771h338v-1365h-297v845h-14l-288 -639h-194l-289 639h-15v-845z" />
    <glyph glyph-name="N" unicode="N" horiz-adv-x="1393" 
d="M438 0h-305v1365h261l549 -808h11v808h306v-1365h-260l-550 816h-12v-816z" />
    <glyph glyph-name="O" unicode="O" horiz-adv-x="1373" 
d="M1296 599q0 -290 -161 -457t-449 -167q-287 0 -448 167t-161 457v159q0 293 161.5 462t449.5 169q287 0 447.5 -169.5t160.5 -461.5v-159zM958 762q0 173 -73.5 266t-197.5 93q-125 0 -198.5 -93t-73.5 -266v-164q0 -173 73.5 -263.5t198.5 -90.5t198 90.5t73 263.5v164z
" />
    <glyph glyph-name="P" unicode="P" horiz-adv-x="1228" 
d="M710 1365q152 0 262 -65.5t163 -171t53 -237.5q0 -205 -127 -337t-355 -132h-243v-422h-330v1365h577zM853 891q0 105 -58.5 162.5t-161.5 57.5h-171v-440h133q258 0 258 220z" />
    <glyph glyph-name="Q" unicode="Q" horiz-adv-x="1378" 
d="M1273 -124h-314l-84 126q-89 -27 -185 -27q-279 0 -444 171t-165 458v153q0 289 165 460.5t444 171.5q280 0 444.5 -172t164.5 -460v-153q0 -309 -189 -481zM405 598q0 -181 74.5 -277.5t200.5 -101.5q26 0 51 10l-133 201h284l43 -58q50 90 50 226v162q0 175 -78.5 269
t-206.5 94t-206.5 -94t-78.5 -269v-162z" />
    <glyph glyph-name="R" unicode="R" horiz-adv-x="1290" 
d="M711 1365q244 0 373.5 -123t129.5 -324q0 -80 -24.5 -149t-63.5 -115t-78 -75.5t-78 -45.5l272 -533h-366l-231 487h-187v-487h-325v1365h578zM458 721h201q99 0 156.5 50t57.5 144q0 97 -59 149.5t-152 52.5h-204v-396z" />
    <glyph glyph-name="S" unicode="S" horiz-adv-x="1239" 
d="M58 400h315q5 -72 70.5 -122.5t178.5 -50.5q109 0 166 43t57 113q0 61 -48.5 95.5t-153.5 56.5l-193 42q-79 16 -142.5 45t-114.5 74.5t-78.5 113.5t-27.5 155q0 133 70 230.5t189.5 146.5t273.5 49q241 0 383.5 -118.5t144.5 -298.5h-305q-5 70 -62.5 119t-161.5 49
q-95 0 -149 -41t-54 -110q0 -105 183 -141l198 -40q79 -15 142 -42t117.5 -71.5t84.5 -116t30 -164.5q0 -203 -148 -322t-413 -119q-121 0 -217 25.5t-157 67t-102 98t-58 114t-18 120.5z" />
    <glyph glyph-name="T" unicode="T" horiz-adv-x="1097" 
d="M713 0h-330v1095h-371v270h1073v-270h-372v-1095z" />
    <glyph glyph-name="U" unicode="U" horiz-adv-x="1380" 
d="M690 251q110 0 176 67.5t66 193.5v853h331v-899q0 -223 -154 -357t-419 -134t-419 134t-154 357v899h330v-853q0 -127 66 -194t177 -67z" />
    <glyph glyph-name="V" unicode="V" horiz-adv-x="1284" 
d="M437 0l-434 1365h384l260 -1010h14l256 1010h364l-428 -1365h-416z" />
    <glyph glyph-name="W" unicode="W" horiz-adv-x="1795" 
d="M660 0h-308l-350 1365h346l178 -915h14l223 915h270l223 -915h15l176 915h346l-350 -1365h-308l-231 867h-12z" />
    <glyph glyph-name="X" unicode="X" horiz-adv-x="1223" 
d="M1243 1365l-424 -682l419 -683h-373l-258 448h-14l-258 -448h-354l408 687l-407 678h388l245 -460h14l243 460h371z" />
    <glyph glyph-name="Y" unicode="Y" horiz-adv-x="1192" 
d="M761 0h-330v475l-457 890h362l259 -562h12l260 562h351l-457 -881v-484z" />
    <glyph glyph-name="Z" unicode="Z" horiz-adv-x="1196" 
d="M84 0v211l616 876v14h-603v264h1000v-211l-614 -876v-14h635v-264h-1034z" />
    <glyph glyph-name="bracketleft" unicode="[" horiz-adv-x="765" 
d="M131 1437h601v-236h-294v-1280h294v-236h-601v1752z" />
    <glyph glyph-name="backslash" unicode="\" horiz-adv-x="765" 
d="M775 -315h-291l-493 1752h290z" />
    <glyph glyph-name="bracketright" unicode="]" horiz-adv-x="765" 
d="M33 1437h602v-1752h-602v236h295v1280h-295v236z" />
    <glyph glyph-name="asciicircum" unicode="^" horiz-adv-x="947" 
d="M915 795h-279l-157 319h-13l-163 -319h-271l310 570h266z" />
    <glyph glyph-name="underscore" unicode="_" horiz-adv-x="860" 
d="M887 -346h-914v243h914v-243z" />
    <glyph glyph-name="grave" unicode="`" horiz-adv-x="948" 
d="M709 1189h-219l-264 302h267z" />
    <glyph glyph-name="a" unicode="a" horiz-adv-x="1118" 
d="M418 -16q-159 0 -256 87t-97 237q0 148 100 233.5t284 85.5h247v89q0 65 -38 100t-106 35q-67 0 -106.5 -33.5t-42.5 -89.5h-299q2 70 26 130t74 112.5t140 83t212 30.5q99 0 180 -21.5t143.5 -65t97.5 -116.5t35 -169v-712h-301v128h-14q-30 -62 -100 -103t-179 -41z
M528 207q70 0 119 39.5t49 101.5v105h-162q-73 0 -113 -32.5t-40 -87.5q0 -60 43 -93t104 -33z" />
    <glyph glyph-name="b" unicode="b" horiz-adv-x="1230" 
d="M759 -12q-111 0 -190.5 48t-114.5 132h-15v-168h-318v1437h321v-530h15q33 78 114.5 125.5t188.5 47.5q182 0 288.5 -129.5t106.5 -371.5v-88q0 -240 -106.5 -371.5t-289.5 -131.5zM637 236q86 0 136.5 68.5t50.5 195.5v68q0 127 -51 195t-136 68q-90 0 -143 -67.5
t-53 -195.5v-67q0 -129 53 -197t143 -68z" />
    <glyph glyph-name="c" unicode="c" horiz-adv-x="1094" 
d="M73 501v78q0 229 133 369t362 140q208 0 332.5 -114t128.5 -292h-290q-7 67 -50.5 112.5t-107.5 45.5q-85 0 -135 -70.5t-50 -191.5v-74q0 -131 49.5 -204t136.5 -73q76 0 114.5 42.5t45.5 108.5h290q-5 -100 -42 -176.5t-99.5 -124.5t-144 -72.5t-179.5 -24.5
q-228 0 -361 138.5t-133 382.5z" />
    <glyph glyph-name="d" unicode="d" horiz-adv-x="1230" 
d="M473 1080q108 0 187.5 -47.5t113.5 -126.5h14v531h321v-1437h-319v168h-13q-35 -83 -115 -131t-189 -48q-187 0 -292 133t-105 370v86q0 235 106 368.5t291 133.5zM594 831q-84 0 -136 -67.5t-52 -195.5v-68q0 -128 52 -195.5t137 -67.5q89 0 141.5 67.5t52.5 194.5v69
q0 125 -53 194t-142 69z" />
    <glyph glyph-name="e" unicode="e" horiz-adv-x="1128" 
d="M579 -20q-231 0 -368.5 133.5t-137.5 382.5v85q0 241 137.5 374t356.5 133q224 0 357 -138t133 -374v-107h-671v-36q0 -100 54.5 -158.5t139.5 -58.5q72 0 120.5 33.5t58.5 92.5h291q-6 -66 -36.5 -128t-85 -115.5t-145 -86t-204.5 -32.5zM386 653h364v1
q0 90 -49.5 147.5t-130.5 57.5q-82 0 -133 -58t-51 -147v-1z" />
    <glyph glyph-name="f" unicode="f" horiz-adv-x="786" 
d="M209 0v825h-159v243h159v106q0 164 90.5 234t291.5 70q34 0 62.5 -1.5t49.5 -3.5t25 -2v-218q-39 3 -70 3q-71 0 -105 -25t-34 -84v-79h203v-243h-195v-825h-318z" />
    <glyph glyph-name="g" unicode="g" horiz-adv-x="1223" 
d="M590 -166q95 0 145.5 52.5t50.5 149.5v149h-14q-30 -74 -109.5 -121t-189.5 -47q-183 0 -289 130.5t-106 375.5v52q0 244 106 374.5t289 130.5q109 0 189 -48t112 -126h14v162h318v-1059q0 -88 -31.5 -158t-82 -114.5t-120 -74t-140.5 -41.5t-148 -12q-119 0 -212 26.5
t-150 73t-87.5 105t-34.5 127.5h305q13 -50 62.5 -78.5t122.5 -28.5zM599 831q-89 0 -139.5 -67.5t-50.5 -194.5v-60q0 -126 51 -194.5t139 -68.5q87 0 137 68.5t50 194.5v60q0 125 -50.5 193.5t-136.5 68.5z" />
    <glyph glyph-name="h" unicode="h" horiz-adv-x="1222" 
d="M121 0v1437h320v-535h14q28 70 104.5 126t198.5 56q164 0 262 -102t98 -293v-689h-320v614q0 107 -50.5 155t-126.5 48q-82 0 -131 -55.5t-49 -151.5v-610h-320z" />
    <glyph glyph-name="i" unicode="i" horiz-adv-x="574" 
d="M114 1337q0 70 50 113.5t123 43.5t123 -43.5t50 -113.5t-50 -113.5t-123 -43.5t-123 43.5t-50 113.5zM127 0v1068h320v-1068h-320z" />
    <glyph glyph-name="j" unicode="j" horiz-adv-x="573" 
d="M114 1337q0 70 50 113.5t123 43.5t123 -43.5t50 -113.5t-50 -113.5t-123 -43.5t-123 43.5t-50 113.5zM446 1068v-1088q0 -178 -104.5 -266.5t-285.5 -88.5q-69 0 -116 7v223q21 -3 54 -3q66 0 99.5 30.5t33.5 100.5v1085h319z" />
    <glyph glyph-name="k" unicode="k" horiz-adv-x="1145" 
d="M438 354v-354h-321v1437h321v-787h15l301 418h363l-370 -459l396 -609h-374l-269 430z" />
    <glyph glyph-name="l" unicode="l" horiz-adv-x="571" 
d="M125 0v1437h321v-1437h-321z" />
    <glyph glyph-name="m" unicode="m" horiz-adv-x="1811" 
d="M116 0v1068h311v-167h16q23 72 96 127.5t190 55.5q118 0 192.5 -51t101.5 -139h13q26 76 111.5 133t211.5 57q160 0 250.5 -96t90.5 -256v-732h-321v635q0 96 -43 142t-114 46q-75 0 -118 -50t-43 -145v-628h-306v629q0 103 -44.5 148.5t-114.5 45.5q-71 0 -115.5 -47.5
t-44.5 -145.5v-630h-320z" />
    <glyph glyph-name="n" unicode="n" horiz-adv-x="1217" 
d="M116 0v1068h311v-166h15q27 70 106 126t203 56q165 0 262 -102t97 -293v-689h-320v614q0 107 -50.5 155t-124.5 48q-82 0 -130.5 -55.5t-48.5 -151.5v-610h-320z" />
    <glyph glyph-name="o" unicode="o" horiz-adv-x="1160" 
d="M581 1088q238 0 372.5 -142.5t134.5 -372.5v-69q0 -245 -133 -384.5t-374 -139.5q-242 0 -375 139.5t-133 383.5v68q0 230 135 373.5t373 143.5zM581 848q-65 0 -107 -39t-59 -97.5t-17 -135.5v-82q0 -55 9.5 -101.5t30 -86.5t57.5 -63t86 -23t85.5 23t57 62.5t30 86.5
t9.5 102v82q0 120 -44 196t-138 76z" />
    <glyph glyph-name="p" unicode="p" horiz-adv-x="1223" 
d="M752 -12q-106 0 -184 46.5t-115 126.5h-14v-516h-322v1423h319v-163h15q38 81 116.5 128t186.5 47q181 0 287.5 -130.5t106.5 -371.5v-87q0 -240 -107 -371.5t-289 -131.5zM632 236q85 0 135 68.5t50 197.5v66q0 127 -50 195t-137 68q-88 0 -140 -69t-52 -194v-66
q0 -126 53 -196t141 -70z" />
    <glyph glyph-name="q" unicode="q" horiz-adv-x="1227" 
d="M469 1080q112 0 193.5 -46.5t114.5 -127.5h14v162h319v-1423h-322v519h-13q-29 -78 -112 -127t-195 -49q-182 0 -287 133t-105 375v81q0 240 105.5 371.5t287.5 131.5zM595 831q-87 0 -138 -69t-51 -196v-62q0 -128 51 -198.5t139 -70.5t140.5 71t52.5 198v62
q0 126 -52.5 195.5t-141.5 69.5z" />
    <glyph glyph-name="r" unicode="r" horiz-adv-x="818" 
d="M116 0v1068h321v-157h15q18 64 81 118t160 54q65 0 96 -9v-272q-35 12 -117 12q-226 0 -226 -238v-576h-330z" />
    <glyph glyph-name="s" unicode="s" horiz-adv-x="1059" 
d="M85 744q0 71 24 129t65.5 97.5t99 66.5t122.5 39t138 12q195 0 310.5 -87t115.5 -243h-280q-6 51 -42.5 85t-109.5 34q-65 0 -102.5 -28.5t-37.5 -75.5q0 -20 8.5 -36.5t27.5 -28.5t36.5 -20.5t49.5 -16t51.5 -11.5t57 -10t52.5 -9q158 -28 241 -97.5t83 -204.5
q0 -168 -124.5 -263.5t-349.5 -95.5q-219 0 -339 90.5t-120 237.5h311q5 -52 48.5 -84t114.5 -32q72 0 111 30.5t39 75.5q0 19 -7 34.5t-23.5 27t-31.5 19.5t-44 15t-47.5 11t-55 10.5t-54.5 10.5q-75 16 -132.5 39t-106 59.5t-74 92t-25.5 127.5z" />
    <glyph glyph-name="t" unicode="t" horiz-adv-x="806" 
d="M211 1068v248h309v-248h204v-243h-204v-464q0 -69 34.5 -97.5t109.5 -28.5q41 0 63 2v-231q-54 -9 -140 -9q-206 0 -295 70.5t-89 236.5v521h-156v243h164z" />
    <glyph glyph-name="u" unicode="u" horiz-adv-x="1215" 
d="M1098 1068v-1068h-311v165h-15q-26 -72 -105 -126.5t-203 -54.5q-166 0 -261.5 98t-95.5 285v701h321v-618q0 -110 49.5 -155t122.5 -45q77 0 127.5 52.5t50.5 150.5v615h320z" />
    <glyph glyph-name="v" unicode="v" horiz-adv-x="1070" 
d="M337 0l-339 1068h344l180 -772h12l204 772h333l-363 -1068h-371z" />
    <glyph glyph-name="w" unicode="w" horiz-adv-x="1633" 
d="M1615 1068l-271 -1068h-340l-182 721h-11l-181 -721h-343l-269 1068h324l135 -753h13l177 753h301l179 -753h13l135 753h320z" />
    <glyph glyph-name="x" unicode="x" horiz-adv-x="1115" 
d="M739 0l-185 339h-10l-184 -339h-336l321 535l-331 533h367l180 -337h10l181 337h350l-342 -533l332 -535h-353z" />
    <glyph glyph-name="y" unicode="y" horiz-adv-x="1094" 
d="M1093 1068q-81 -264 -332 -1016l-27 -72q-72 -193 -189 -274t-316 -81q-97 0 -158 14v221q33 -7 92 -7q90 0 134 30t52 97l6 25l-354 1063h353l190 -800h12l197 800h340z" />
    <glyph glyph-name="z" unicode="z" horiz-adv-x="1020" 
d="M81 0v174l475 637v12h-462v245h847v-197l-450 -613v-12h467v-246h-877z" />
    <glyph glyph-name="braceleft" unicode="{" horiz-adv-x="765" 
d="M288 590v-30q101 -8 154 -68.5t53 -170.5l1 -219q1 -110 40.5 -149t155.5 -39h40v-229h-114q-224 0 -325.5 85t-102.5 288l-1 181q0 105 -32 150t-124 45v283q92 0 124 45t32 150v161q0 200 102 282t326 82h115v-228h-41q-116 0 -156 -39.5t-40 -149.5v-212
q0 -107 -51.5 -157.5t-155.5 -60.5z" />
    <glyph glyph-name="bar" unicode="|" horiz-adv-x="765" 
d="M530 -315h-294v1752h294v-1752z" />
    <glyph glyph-name="braceright" unicode="}" horiz-adv-x="765" 
d="M477 560v30q-104 10 -155.5 60.5t-51.5 157.5v212q0 110 -40 149.5t-156 39.5h-41v228h115q225 0 326.5 -82t101.5 -282v-161q0 -105 32.5 -150t123.5 -45v-283q-91 0 -123 -44.5t-33 -150.5l-1 -181q-1 -203 -102.5 -288t-325.5 -85h-114v229h41q115 0 154.5 39
t40.5 149l1 219q0 109 53 170t154 69z" />
    <glyph glyph-name="asciitilde" unicode="~" horiz-adv-x="1116" 
d="M763 478q-55 0 -104 18t-84.5 44t-66.5 52t-63.5 44t-63.5 18q-93 0 -99 -151h-232q-7 114 24.5 205.5t103 147.5t172.5 56q56 0 104 -18t82 -44t64 -51.5t62.5 -43.5t64.5 -18q38 0 61.5 25t30.5 54.5t9 71.5h232q6 -185 -73.5 -297.5t-223.5 -112.5z" />
    <glyph glyph-name="cent" unicode="&#xa2;" 
d="M589 -20v162q-207 14 -327 151t-120 368v64q0 216 119.5 354t327.5 153v153h114v-155q180 -18 286 -128t109 -268h-265q-10 57 -44.5 101.5t-85.5 60.5v-621q109 24 133 156h265q-9 -176 -116.5 -274t-281.5 -114v-163h-114zM440 663q0 -114 39.5 -187.5t109.5 -96.5v615
q-69 -22 -109 -92.5t-40 -174.5v-64z" />
    <glyph glyph-name="sterling" unicode="&#xa3;" 
d="M137 619v143h190q-36 123 -36 216q0 186 142.5 298.5t384.5 112.5q148 0 250 -37v-238q-99 35 -232 35q-102 0 -165 -49t-63 -130q0 -84 35 -208h353v-143h-313q11 -49 11 -97q1 -97 -33.5 -163t-86.5 -97v-16h570v-246h-1003v226q105 15 175 88t70 182q0 54 -16 123
h-233z" />
    <glyph glyph-name="yen" unicode="&#xa5;" 
d="M784 0h-330v231h-287v110h287v134h-287v110h231l-395 780h362l253 -562h13l254 562h351l-400 -780h234v-110h-286v-134h286v-110h-286v-231z" />
    <glyph glyph-name="dieresis" unicode="&#xa8;" horiz-adv-x="947" 
d="M673 1192q-53 0 -87.5 34.5t-34.5 89.5t34.5 90.5t87.5 35.5q56 0 92.5 -35.5t36.5 -90.5q0 -54 -36.5 -89t-92.5 -35zM268 1192q-54 0 -89 35t-35 89q0 55 35.5 90.5t88.5 35.5q56 0 92 -35.5t36 -90.5t-36 -89.5t-92 -34.5z" />
    <glyph glyph-name="copyright" unicode="&#xa9;" horiz-adv-x="1640" 
d="M822 -64q-209 0 -374 92t-255.5 253.5t-90.5 362.5v103q0 142 54 268t148 218t229 145.5t289 53.5q155 0 290 -54t228.5 -146.5t147.5 -218.5t54 -266v-103q0 -151 -53 -282t-146.5 -224.5t-228.5 -147.5t-292 -54zM240 642q0 -164 72 -293.5t204.5 -203t304.5 -73.5
q260 0 422 160.5t162 409.5v104q0 152 -73 277t-207.5 199t-303.5 74q-127 0 -236.5 -43t-184.5 -117t-117.5 -175t-42.5 -215v-104zM471 632v99q0 154 101.5 243t255.5 89q141 0 234.5 -82t95.5 -197h-193q-3 44 -38 76.5t-98 32.5q-75 0 -115.5 -39t-40.5 -129v-94
q0 -82 43 -121t113 -39q63 0 98.5 25t39.5 69h192q-2 -114 -92 -191t-239 -77q-155 0 -256 88.5t-101 246.5z" />
    <glyph glyph-name="guillemotleft" unicode="&#xab;" horiz-adv-x="1314" 
d="M604 565l344 397h276l-339 -396v-6l339 -398h-285l-335 395v8zM87 565l344 397h277l-339 -396v-6l339 -398h-286l-335 395v8z" />
    <glyph glyph-name="registered" unicode="&#xae;" horiz-adv-x="948" 
d="M474 618q-177 0 -293 112t-116 282v57q0 161 117 271t292 110q173 0 291 -111t118 -270v-57q0 -170 -115.5 -282t-293.5 -112zM474 718q133 0 220 84.5t87 210.5v53q0 118 -88 201.5t-219 83.5t-218 -83t-87 -202v-53q0 -126 86.5 -210.5t218.5 -84.5zM417 850h-108v392
h204q65 0 103.5 -35.5t38.5 -90.5q0 -43 -21.5 -74.5t-54.5 -44.5l93 -147h-125l-79 132h-51v-132zM417 1160v-102h60q66 0 66 51t-61 51h-65z" />
    <glyph glyph-name="acute" unicode="&#xb4;" horiz-adv-x="948" 
d="M255 1189l215 302h268l-265 -302h-218z" />
    <glyph glyph-name="cedilla" unicode="&#xb8;" horiz-adv-x="948" 
d="M357 -236v114l47 125h177l-45 -113q85 0 135 -46t50 -125q0 -100 -68.5 -148.5t-189.5 -50.5q-90 -1 -144 15v133q44 -13 109 -13q106 0 106 53q0 32 -27 44t-94 12h-56z" />
    <glyph glyph-name="guillemotright" unicode="&#xbb;" horiz-adv-x="1314" 
d="M1228 565v-8l-335 -395h-286l339 398v6l-339 396h277zM712 565v-8l-335 -395h-286l339 398v6l-339 396h277z" />
    <glyph glyph-name="quoteright" unicode="&#x2019;" horiz-adv-x="527" 
d="M319 815h-230l65 550h284z" />
    <glyph glyph-name="circumflex" unicode="&#x2c6;" horiz-adv-x="946" 
d="M121 1189l240 315h223l240 -315h-236l-112 168h-7l-112 -168h-236z" />
    <glyph glyph-name="ring" unicode="&#x2da;" horiz-adv-x="944" 
d="M477 1183q-98 0 -163.5 62t-65.5 159t65 158.5t164 61.5t164 -61.5t65 -158.5t-65.5 -159t-163.5 -62zM387 1403q0 -39 25.5 -64t63.5 -25q39 0 64.5 25t25.5 64q0 38 -25.5 63.5t-64.5 25.5q-38 0 -63.5 -25.5t-25.5 -63.5z" />
    <glyph glyph-name="tilde" unicode="&#x2dc;" horiz-adv-x="948" 
d="M600 1213q-47 0 -88 18.5t-63.5 40.5t-49 40.5t-49.5 18.5q-34 0 -49 -30t-15 -63h-171q0 104 58.5 177.5t158.5 73.5q47 0 88 -18.5t65 -40.5t52 -40.5t53 -18.5q33 0 51.5 28t19.5 73h171q0 -108 -65 -183.5t-167 -75.5z" />
    <glyph glyph-name="uni0401" unicode="&#x401;" horiz-adv-x="1166" 
d="M772 1465q-48 0 -81.5 34t-33.5 83q0 50 33.5 84.5t81.5 34.5q50 0 84.5 -34.5t34.5 -84.5q0 -49 -34.5 -83t-84.5 -34zM403 1465q-49 0 -81.5 33.5t-32.5 83.5t32.5 84.5t81.5 34.5q50 0 85 -34.5t35 -84.5q0 -49 -35 -83t-85 -34zM1060 262v-262h-917v1365h917v-262
h-590v-295h553v-242h-553v-304h590z" />
    <glyph glyph-name="uni0410" unicode="&#x410;" horiz-adv-x="1319" 
d="M349 0h-330l440 1365h404l437 -1365h-352l-88 313h-422zM659 1069h-15l-145 -517h302z" />
    <glyph glyph-name="uni0411" unicode="&#x411;" horiz-adv-x="1260" 
d="M1195 438q0 -91 -31 -170t-89.5 -139t-150.5 -94.5t-207 -34.5h-574v1365h920v-265h-590v-237h240q228 0 355 -119.5t127 -305.5zM472 254h181q96 0 151 47.5t55 135.5t-55 136t-151 48h-181v-367z" />
    <glyph glyph-name="uni0412" unicode="&#x412;" horiz-adv-x="1301" 
d="M143 0v1365h605q190 0 305 -89.5t115 -245.5q0 -124 -69 -200.5t-175 -97.5v-15q59 -4 113 -26.5t98.5 -61.5t71 -101.5t26.5 -140.5q0 -91 -36.5 -165t-101 -122t-151 -74t-186.5 -26h-615zM470 1131v-321h159q109 0 162.5 43.5t53.5 119.5q0 73 -48 115.5t-133 42.5
h-194zM470 598v-364h177q250 0 250 180q0 85 -55.5 134.5t-161.5 49.5h-210z" />
    <glyph glyph-name="uni0413" unicode="&#x413;" horiz-adv-x="1107" 
d="M474 0h-331v1365h904v-265h-573v-1100z" />
    <glyph glyph-name="uni0414" unicode="&#x414;" horiz-adv-x="1493" 
d="M321 -286h-293v554h110q74 52 100 169.5t35 397.5l18 530h992v-1097h167v-554h-293v286h-836v-286zM959 268v829h-379l-13 -311q-7 -210 -26 -322t-68 -181v-15h486z" />
    <glyph glyph-name="uni0415" unicode="&#x415;" horiz-adv-x="1166" 
d="M1060 262v-262h-917v1365h917v-262h-590v-295h553v-242h-553v-304h590z" />
    <glyph glyph-name="uni0416" unicode="&#x416;" horiz-adv-x="1966" 
d="M827 813v552h317v-552h15l429 552h369l-512 -648l507 -717h-383l-410 571h-15v-571h-317v571h-14l-411 -571h-376l501 705l-520 660h376l430 -552h14z" />
    <glyph glyph-name="uni0417" unicode="&#x417;" horiz-adv-x="1224" 
d="M440 579v245h167q85 0 138 42.5t53 113.5q0 73 -54 118t-141 45q-93 0 -151 -54t-60 -138h-304q7 199 144 318.5t377 119.5q229 0 368.5 -104t139.5 -267q0 -115 -74.5 -195t-194.5 -97v-17q134 -12 221 -100t87 -214q0 -193 -149 -306.5t-400 -113.5q-241 0 -387.5 124
t-150.5 323h300q4 -88 68.5 -142t171.5 -54q100 0 160.5 48.5t60.5 129.5q0 82 -61 128.5t-164 46.5h-165z" />
    <glyph glyph-name="uni0418" unicode="&#x418;" horiz-adv-x="1448" 
d="M988 0v861h-14l-530 -861h-301v1365h317v-860h15l530 860h301v-1365h-318z" />
    <glyph glyph-name="uni0419" unicode="&#x419;" horiz-adv-x="1448" 
d="M380 1781h180q0 -71 41 -111t123 -40t123 40t41 111h180q0 -142 -91 -225.5t-253 -83.5q-161 0 -252.5 83.5t-91.5 225.5zM988 0v861h-14l-530 -861h-301v1365h317v-860h15l530 860h301v-1365h-318z" />
    <glyph glyph-name="uni041A" unicode="&#x41a;" horiz-adv-x="1332" 
d="M928 0l-440 571h-14v-571h-331v1365h331v-552h14l459 552h376l-543 -647l541 -718h-393z" />
    <glyph glyph-name="uni041B" unicode="&#x41b;" horiz-adv-x="1374" 
d="M253 835l8 530h970v-1365h-330v1097h-343l-8 -314q-4 -181 -18.5 -309.5t-42.5 -225.5t-73.5 -154t-110 -84.5t-153.5 -27.5q-78 0 -114 18v281q22 -9 51 -9q38 0 65 20t45.5 59.5t29.5 109t16.5 157.5t7.5 217z" />
    <glyph glyph-name="uni041C" unicode="&#x41c;" horiz-adv-x="1676" 
d="M436 0h-293v1365h341l350 -771h11l350 771h339v-1365h-298v845h-14l-288 -639h-194l-289 639h-15v-845z" />
    <glyph glyph-name="uni041D" unicode="&#x41d;" horiz-adv-x="1448" 
d="M1306 0h-331v558h-501v-558h-331v1365h331v-539h501v539h331v-1365z" />
    <glyph glyph-name="uni041E" unicode="&#x41e;" horiz-adv-x="1393" 
d="M1306 599q0 -290 -161 -457t-449 -167q-287 0 -448 167t-161 457v159q0 293 161.5 462t449.5 169q287 0 447.5 -169.5t160.5 -461.5v-159zM968 762q0 173 -73.5 266t-197.5 93q-125 0 -198.5 -93t-73.5 -266v-164q0 -173 73.5 -263.5t198.5 -90.5t198 90.5t73 263.5v164z
" />
    <glyph glyph-name="uni041F" unicode="&#x41f;" horiz-adv-x="1428" 
d="M1286 0h-331v1097h-481v-1097h-331v1365h1143v-1365z" />
    <glyph glyph-name="uni0420" unicode="&#x420;" horiz-adv-x="1251" 
d="M720 1365q152 0 262 -65.5t163 -171t53 -237.5q0 -205 -127 -337t-355 -132h-243v-422h-330v1365h577zM863 891q0 105 -58.5 162.5t-161.5 57.5h-171v-440h133q258 0 258 220z" />
    <glyph glyph-name="uni0421" unicode="&#x421;" horiz-adv-x="1319" 
d="M424 753v-146q0 -173 67.5 -266t191.5 -93q110 0 174 70t65 180h316v-40q0 -215 -156.5 -349t-401.5 -134q-282 0 -437.5 169.5t-155.5 464.5v144q0 296 155.5 466t437.5 170q161 0 288 -60.5t198.5 -173t71.5 -257.5v-39h-316q-1 114 -65 185.5t-174 71.5
q-124 0 -191.5 -93.5t-67.5 -269.5z" />
    <glyph glyph-name="uni0422" unicode="&#x422;" horiz-adv-x="1117" 
d="M723 0h-330v1095h-371v270h1073v-270h-372v-1095z" />
    <glyph glyph-name="uni0423" unicode="&#x423;" horiz-adv-x="1212" 
d="M318 -18q-100 0 -154 18v262q42 -12 105 -12q120 0 190 109l-475 1006h361l273 -660h14l254 660h342l-433 -970q-49 -109 -94.5 -182t-102 -127.5t-125 -79t-155.5 -24.5z" />
    <glyph glyph-name="uni0424" unicode="&#x424;" horiz-adv-x="1696" 
d="M1005 -10h-317v152q-290 12 -448.5 153t-158.5 389v9q0 250 159 392t448 154v136h317v-136q291 -11 450.5 -151.5t159.5 -390.5v-9q0 -250 -160 -392.5t-450 -153.5v-152zM402 684q0 -277 292 -290v593q-141 -7 -216.5 -80t-75.5 -214v-9zM1294 697q0 140 -76 212.5
t-219 77.5v-594q143 7 219 80.5t76 214.5v9z" />
    <glyph glyph-name="uni0425" unicode="&#x425;" horiz-adv-x="1243" 
d="M1253 1365l-424 -682l419 -683h-373l-258 448h-14l-258 -448h-354l408 687l-407 678h388l245 -460h14l243 460h371z" />
    <glyph glyph-name="uni0426" unicode="&#x426;" horiz-adv-x="1499" 
d="M1289 1365v-1097h167v-554h-293v286h-1020v1365h331v-1097h484v1097h331z" />
    <glyph glyph-name="uni0427" unicode="&#x427;" horiz-adv-x="1391" 
d="M1249 0h-331v543h-13q-41 -21 -125 -41.5t-175 -20.5q-234 0 -361.5 127.5t-127.5 361.5v395h331v-375q0 -121 58.5 -180t178.5 -59q75 0 141.5 19.5t92.5 37.5v557h331v-1365z" />
    <glyph glyph-name="uni0428" unicode="&#x428;" horiz-adv-x="1993" 
d="M143 0v1365h331v-1097h357v1097h331v-1097h357v1097h331v-1365h-1707z" />
    <glyph glyph-name="uni0429" unicode="&#x429;" horiz-adv-x="2060" 
d="M2017 -286h-293v286h-1581v1365h331v-1097h357v1097h331v-1097h357v1097h331v-1097h167v-554z" />
    <glyph glyph-name="uni042A" unicode="&#x42a;" horiz-adv-x="1423" 
d="M885 0h-577v1096h-286v269h616v-429h243q228 0 355 -131t127 -334q0 -97 -31 -182t-89.5 -149.5t-150.5 -102t-207 -37.5zM808 254q103 0 161.5 56.5t58.5 159.5t-58.5 160.5t-161.5 57.5h-175v-434h175z" />
    <glyph glyph-name="uni042B" unicode="&#x42b;" horiz-adv-x="1770" 
d="M1195 471q0 -97 -31 -182t-89.5 -149.5t-150.5 -102t-207 -37.5h-574v1365h330v-429h240q228 0 355 -131t127 -334zM1627 0h-331v1365h331v-1365zM640 688h-172v-434h172q102 0 161 56.5t59 159.5t-59 160.5t-161 57.5z" />
    <glyph glyph-name="uni042C" unicode="&#x42c;" horiz-adv-x="1258" 
d="M720 0h-577v1365h330v-429h243q228 0 355 -131t127 -334q0 -97 -31 -182t-89.5 -149.5t-150.5 -102t-207 -37.5zM643 254q102 0 161 56.5t59 159.5t-59 160.5t-161 57.5h-175v-434h175z" />
    <glyph glyph-name="uni042D" unicode="&#x42d;" horiz-adv-x="1312" 
d="M631 -25q-169 0 -297.5 65.5t-195 174.5t-66.5 243v13h316q7 -94 67 -158.5t171 -64.5q116 0 184.5 77t77.5 226v17h-449v241h449v3q-10 148 -78.5 226t-181.5 78q-110 0 -170.5 -65.5t-68.5 -158.5h-317v6q0 212 154 351.5t405 139.5q280 0 437 -168.5t157 -463.5v-151
q0 -296 -156.5 -463.5t-437.5 -167.5z" />
    <glyph glyph-name="uni042E" unicode="&#x42e;" horiz-adv-x="1911" 
d="M1824 599q0 -290 -158 -457t-442 -167q-269 0 -424 155.5t-166 427.5h-160v-558h-331v1365h331v-539h161q19 263 174 413t417 150q282 0 440 -169.5t158 -461.5v-159zM964 762v-164q0 -173 70 -263.5t191 -90.5q120 0 191 90.5t71 263.5v164q0 173 -71.5 266t-190.5 93
q-120 0 -190.5 -93t-70.5 -266z" />
    <glyph glyph-name="uni042F" unicode="&#x42f;" horiz-adv-x="1315" 
d="M842 469h-167l-256 -469h-360l299 529q-125 48 -193 149.5t-68 235.5q0 94 31.5 175t92 143t156 97.5t214.5 35.5h581v-1365h-330v469zM655 714h193v401h-193q-105 0 -164.5 -52t-59.5 -148q0 -97 59.5 -149t164.5 -52z" />
    <glyph glyph-name="uni0430" unicode="&#x430;" horiz-adv-x="1138" 
d="M428 -16q-159 0 -256 87t-97 237q0 148 100 233.5t284 85.5h247v89q0 65 -38 100t-106 35q-67 0 -106.5 -33.5t-42.5 -89.5h-299q2 70 26 130t74 112.5t140 83t212 30.5q99 0 180 -21.5t143.5 -65t97.5 -116.5t35 -169v-712h-301v128h-14q-30 -62 -100 -103t-179 -41z
M538 207q70 0 119 39.5t49 101.5v105h-162q-73 0 -113 -32.5t-40 -87.5q0 -60 43 -93t104 -33z" />
    <glyph glyph-name="uni0431" unicode="&#x431;" horiz-adv-x="1194" 
d="M686 1005q182 0 303.5 -127.5t121.5 -340.5v-46q0 -244 -135 -377.5t-375 -133.5q-244 0 -378 143t-134 414v129q0 123 14.5 220t50.5 185t95 148.5t151 101t216 53.5l117 13q96 8 102 50h248q-6 -124 -70.5 -197.5t-208.5 -87.5l-136 -14q-173 -17 -238.5 -90
t-75.5 -237h14q82 194 318 194zM601 775q-94 0 -140.5 -72.5t-46.5 -185.5v-35q0 -73 17 -129.5t60.5 -95t109.5 -38.5q95 0 140 74.5t45 188.5v35q0 114 -45.5 186t-139.5 72z" />
    <glyph glyph-name="uni0432" unicode="&#x432;" horiz-adv-x="1156" 
d="M126 0v1068h560q153 0 245.5 -71t92.5 -195q0 -97 -54 -156.5t-136 -74.5v-11q99 -7 170 -74t71 -183q0 -142 -108.5 -222.5t-272.5 -80.5h-568zM439 871v-230h127q77 0 116 32t39 88q0 52 -38.5 81t-102.5 29h-141zM439 461v-264h145q86 0 131.5 33t45.5 98
q0 62 -44.5 97.5t-124.5 35.5h-153z" />
    <glyph glyph-name="uni0433" unicode="&#x433;" horiz-adv-x="912" 
d="M859 832h-413v-832h-320v1068h733v-236z" />
    <glyph glyph-name="uni0434" unicode="&#x434;" horiz-adv-x="1308" 
d="M308 -285h-278v521h89q54 34 74 129.5t27 310.5l12 392h879v-832h150v-521h-278v285h-675v-285zM794 236v596h-282l-7 -164q-7 -184 -21 -276t-48 -142v-14h358z" />
    <glyph glyph-name="uni0435" unicode="&#x435;" horiz-adv-x="1150" 
d="M589 -19q-231 0 -368.5 133t-137.5 382v85q0 241 137.5 374t356.5 133q224 0 357 -138t133 -373v-108h-671v-36q0 -99 55 -158t139 -59q72 0 120.5 33.5t58.5 92.5h291q-5 -52 -24.5 -102t-57.5 -97.5t-90.5 -83t-129.5 -57t-169 -21.5zM396 654h364v1q0 90 -49.5 147.5
t-130.5 57.5q-82 0 -133 -58t-51 -147v-1z" />
    <glyph glyph-name="uni0436" unicode="&#x436;" horiz-adv-x="1676" 
d="M679 658v410h310v-410h12l287 410h348l-370 -494l396 -574h-362l-299 439h-12v-439h-310v439h-11l-301 -439h-354l392 566l-378 502h353l288 -410h11z" />
    <glyph glyph-name="uni0437" unicode="&#x437;" horiz-adv-x="1094" 
d="M541 203q74 0 119 32.5t45 87.5t-45.5 86.5t-119.5 31.5h-121v196h121q64 0 102 31t38 83t-39 82t-102 30q-76 0 -118 -41.5t-45 -107.5h-293q7 172 128 272.5t327 100.5q198 0 322 -83.5t124 -216.5q0 -85 -56.5 -147t-148.5 -75v-13q102 -11 168 -78t66 -166
q0 -150 -128 -239.5t-344 -89.5q-213 0 -339 104t-128 265h291q6 -66 50 -105.5t126 -39.5z" />
    <glyph glyph-name="uni0438" unicode="&#x438;" horiz-adv-x="1245" 
d="M817 0v617h-15l-380 -617h-296v1068h303v-617h14l380 617h296v-1068h-302z" />
    <glyph glyph-name="uni0439" unicode="&#x439;" horiz-adv-x="1245" 
d="M290 1535h179q0 -78 37.5 -123.5t114.5 -45.5t114.5 45.5t37.5 123.5h179q0 -147 -87.5 -238t-243.5 -91q-155 0 -243.5 91.5t-87.5 237.5zM817 0v617h-15l-380 -617h-296v1068h303v-617h14l380 617h296v-1068h-302z" />
    <glyph glyph-name="uni043A" unicode="&#x43a;" horiz-adv-x="1170" 
d="M460 436h-14v-436h-320v1068h320v-408h13l306 408h365l-383 -500l410 -568h-379z" />
    <glyph glyph-name="uni043B" unicode="&#x43b;" horiz-adv-x="1204" 
d="M228 681l7 387h843v-1068h-320v832h-245l-5 -182q-3 -97 -7.5 -168.5t-15.5 -145t-27.5 -124.5t-43.5 -97t-64 -73.5t-88 -43.5t-116 -16q-27 0 -51.5 4t-36.5 8l-11 5v270q21 -8 49 -8q24 0 43 10t32.5 27t23 46.5t15.5 61t9.5 79t5.5 90.5t3 106z" />
    <glyph glyph-name="uni043C" unicode="&#x43c;" horiz-adv-x="1515" 
d="M419 629v-629h-293v1068h372l254 -577h15l254 577h367v-1068h-294v629h-13l-230 -494h-187l-231 494h-14z" />
    <glyph glyph-name="uni043D" unicode="&#x43d;" horiz-adv-x="1239" 
d="M792 0v429h-346v-429h-320v1068h320v-403h346v403h320v-1068h-320z" />
    <glyph glyph-name="uni043E" unicode="&#x43e;" horiz-adv-x="1180" 
d="M591 1088q238 0 372.5 -142.5t134.5 -372.5v-69q0 -245 -133 -384.5t-374 -139.5q-242 0 -375 139.5t-133 383.5v68q0 230 135 373.5t373 143.5zM591 848q-65 0 -107 -39t-59 -97.5t-17 -135.5v-82q0 -55 9.5 -101.5t30 -86.5t57.5 -63t86 -23t85.5 23t57 62.5t30 86.5
t9.5 102v82q0 120 -44 196t-138 76z" />
    <glyph glyph-name="uni043F" unicode="&#x43f;" horiz-adv-x="1229" 
d="M782 0v832h-336v-832h-320v1068h976v-1068h-320z" />
    <glyph glyph-name="uni0440" unicode="&#x440;" horiz-adv-x="1240" 
d="M761 -12q-106 0 -184 46.5t-115 126.5h-14v-516h-322v1423h319v-163h14q38 81 117 128t187 47q181 0 287.5 -130.5t106.5 -371.5v-87q0 -240 -107 -371.5t-289 -131.5zM641 236q85 0 135 68.5t50 197.5v66q0 127 -50 195t-137 68q-88 0 -140 -69t-52 -194v-66
q0 -126 53 -196t141 -70z" />
    <glyph glyph-name="uni0441" unicode="&#x441;" horiz-adv-x="1116" 
d="M83 501v78q0 229 133 369t362 140q208 0 332.5 -114t128.5 -292h-290q-7 67 -50.5 112.5t-107.5 45.5q-85 0 -135 -70.5t-50 -191.5v-74q0 -131 49.5 -204t136.5 -73q76 0 114.5 42.5t45.5 108.5h290q-5 -100 -42 -176.5t-99.5 -124.5t-144 -72.5t-179.5 -24.5
q-228 0 -361 138.5t-133 382.5z" />
    <glyph glyph-name="uni0442" unicode="&#x442;" horiz-adv-x="1003" 
d="M960 832h-298v-832h-321v832h-298v236h917v-236z" />
    <glyph glyph-name="uni0443" unicode="&#x443;" horiz-adv-x="1114" 
d="M1103 1068q-81 -264 -332 -1016l-27 -72q-72 -193 -189 -274t-316 -81q-97 0 -158 14v221q33 -7 92 -7q90 0 134 30t52 97l6 25l-354 1063h353l190 -800h12l197 800h340z" />
    <glyph glyph-name="uni0444" unicode="&#x444;" horiz-adv-x="1572" 
d="M940 -355h-308v339q-258 6 -403.5 142t-145.5 385v51q0 233 148.5 374.5t400.5 147.5v253h308v-253q258 -6 403.5 -142t145.5 -385v-51q0 -234 -148.5 -375t-400.5 -147v-339zM1178 562q0 77 -22 137.5t-78.5 104t-144.5 47.5v-634q84 4 141 45.5t80.5 102.5t23.5 140v57
zM395 505q0 -56 13 -104.5t40 -89.5t76 -66t115 -28v634q-124 -6 -184 -86.5t-60 -201.5v-58z" />
    <glyph glyph-name="uni0445" unicode="&#x445;" horiz-adv-x="1135" 
d="M749 0l-185 339h-10l-184 -339h-336l321 535l-331 533h367l180 -337h10l181 337h350l-342 -533l332 -535h-353z" />
    <glyph glyph-name="uni0446" unicode="&#x446;" horiz-adv-x="1300" 
d="M1253 -285h-279v285h-848v1068h320v-832h336v832h320v-832h151v-521z" />
    <glyph glyph-name="uni0447" unicode="&#x447;" horiz-adv-x="1195" 
d="M1069 0h-323v404h-16q-32 -25 -103.5 -45.5t-152.5 -20.5q-178 0 -271.5 96.5t-93.5 261.5v372h321v-329q0 -73 40 -114t115 -41q61 0 105 16.5t56 32.5v435h323v-1068z" />
    <glyph glyph-name="uni0448" unicode="&#x448;" horiz-adv-x="1710" 
d="M126 0v1068h314v-832h258v832h314v-832h258v832h313v-1068h-1457z" />
    <glyph glyph-name="uni0449" unicode="&#x449;" horiz-adv-x="1787" 
d="M1740 -285h-278v285h-1336v1068h314v-832h258v832h314v-832h258v832h313v-832h157v-521z" />
    <glyph glyph-name="uni044A" unicode="&#x44a;" horiz-adv-x="1264" 
d="M788 0h-503v832h-242v236h562v-323h183q192 0 305 -100.5t113 -271.5t-113 -272t-305 -101zM728 513h-127v-281h128q71 0 114.5 39t43.5 102q0 64 -43.5 102t-115.5 38z" />
    <glyph glyph-name="uni044B" unicode="&#x44b;" horiz-adv-x="1594" 
d="M1148 0v1068h320v-1068h-320zM126 0v1068h320v-323h180q191 0 304.5 -100.5t113.5 -271.5t-113.5 -272t-304.5 -101h-500zM569 513h-127v-281h128q71 0 114.5 39t43.5 102q0 64 -43.5 102t-115.5 38z" />
    <glyph glyph-name="uni044C" unicode="&#x44c;" horiz-adv-x="1105" 
d="M126 0v1068h320v-323h183q192 0 305 -100.5t113 -271.5t-113 -272t-305 -101h-503zM569 513h-127v-281h128q71 0 114.5 39t43.5 102q0 64 -43.5 102t-115.5 38z" />
    <glyph glyph-name="uni044D" unicode="&#x44d;" horiz-adv-x="1121" 
d="M541 -20q-199 0 -325 96t-141 274h293q21 -123 162 -123q78 0 126 54t56 151v12h-323v183h323v4q-7 98 -54.5 153.5t-127.5 55.5q-70 0 -110.5 -37.5t-50.5 -91.5h-292q12 165 135 271t328 106q230 0 364.5 -136t134.5 -360v-105q0 -242 -134.5 -374.5t-363.5 -132.5z
" />
    <glyph glyph-name="uni044E" unicode="&#x44e;" horiz-adv-x="1646" 
d="M1067 -20q-210 0 -339 114t-148 323v12h-134v-429h-320v1068h320v-403h136q23 194 152.5 308.5t332.5 114.5q227 0 361.5 -137.5t134.5 -366.5v-92q0 -243 -132.5 -377.5t-363.5 -134.5zM1067 848q-87 0 -130.5 -75.5t-43.5 -189.5v-98q0 -111 42.5 -188t131.5 -77
q88 0 129.5 76t41.5 189v98q0 74 -16.5 131.5t-56 95.5t-98.5 38z" />
    <glyph glyph-name="uni044F" unicode="&#x44f;" horiz-adv-x="1166" 
d="M720 0v346h-92l-221 -346h-346l260 403q-103 33 -159.5 114t-56.5 196q0 159 114 257t304 98h517v-1068h-320zM577 559h143v280h-143q-72 0 -115 -38.5t-43 -101.5q0 -64 43 -102t115 -38z" />
    <glyph glyph-name="uni0451" unicode="&#x451;" horiz-adv-x="1150" 
d="M779 1192q-53 0 -87.5 34.5t-34.5 89.5t34.5 91t87.5 36q56 0 93 -36t37 -91q0 -54 -37 -89t-93 -35zM375 1192q-54 0 -89.5 35t-35.5 89q0 55 35.5 91t89.5 36q55 0 91 -36t36 -91q0 -54 -36 -89t-91 -35zM589 -19q-231 0 -368.5 133t-137.5 382v85q0 241 137.5 374
t356.5 133q224 0 357 -138t133 -373v-108h-671v-36q0 -99 55 -158t139 -59q72 0 120.5 33.5t58.5 92.5h291q-5 -52 -24.5 -102t-57.5 -97.5t-90.5 -83t-129.5 -57t-169 -21.5zM396 654h364v1q0 90 -49.5 147.5t-130.5 57.5q-82 0 -133 -58t-51 -147v-1z" />
    <glyph glyph-name="figuredash" unicode="&#x2012;" 
d="M1238 418h-1238v284h1238v-284z" />
    <glyph glyph-name="endash" unicode="&#x2013;" horiz-adv-x="1220" 
d="M1220 418h-1220v284h1220v-284z" />
    <glyph glyph-name="emdash" unicode="&#x2014;" horiz-adv-x="2048" 
d="M2048 418h-2048v284h2048v-284z" />
    <glyph glyph-name="quoteleft" unicode="&#x2018;" horiz-adv-x="527" 
d="M209 1365h229l-64 -550h-285z" />
    <glyph glyph-name="quotesinglbase" unicode="&#x201a;" horiz-adv-x="527" 
d="M319 -459h-230l65 550h284z" />
    <glyph glyph-name="quotedblleft" unicode="&#x201c;" horiz-adv-x="955" 
d="M209 1365h229l-64 -550h-285zM636 1365h229l-64 -550h-284z" />
    <glyph glyph-name="quotedblright" unicode="&#x201d;" horiz-adv-x="955" 
d="M746 815h-229l64 550h284zM319 815h-230l65 550h284z" />
    <glyph glyph-name="quotedblbase" unicode="&#x201e;" horiz-adv-x="955" 
d="M746 -459h-229l64 550h284zM319 -459h-230l65 550h284z" />
    <glyph glyph-name="ellipsis" unicode="&#x2026;" horiz-adv-x="1688" 
d="M1217 157q0 74 53 127t127 53t127 -53t53 -127t-53 -127t-127 -53t-127 53t-53 127zM661 157q0 74 53 127t127 53t127 -53t53 -127t-53 -127t-127 -53t-127 53t-53 127zM105 157q0 74 53 127t127 53t127 -53t53 -127t-53 -127t-127 -53t-127 53t-53 127z" />
    <glyph glyph-name="perthousand" unicode="&#x2030;" horiz-adv-x="2325" 
d="M358 692q-141 0 -222.5 89t-81.5 238v49q0 149 82.5 238t222.5 89q141 0 222.5 -89t81.5 -238v-49q0 -147 -82 -237t-223 -90zM395 -1h-234l570 727l486 639h235l-558 -710zM358 882q36 0 56.5 36t20.5 102v47q0 66 -20.5 102t-56.5 36q-35 0 -55.5 -36t-20.5 -102v-47
q0 -66 20.5 -102t55.5 -36zM1945 -17q-140 0 -222 89.5t-82 238.5v48q0 149 82.5 238t223.5 89q140 0 222 -89t82 -238v-48q0 -147 -82.5 -237.5t-223.5 -90.5zM1253 -17q-141 0 -222.5 89.5t-81.5 238.5v48q0 149 82.5 238t222.5 89q141 0 222.5 -89t81.5 -238v-48
q0 -148 -82 -238t-223 -90zM1946 173q36 0 56 36t20 102v48q0 66 -20 101.5t-56 35.5t-56.5 -35.5t-20.5 -101.5v-48q0 -66 20.5 -102t56.5 -36zM1254 173q35 0 55.5 36t20.5 102v48q0 66 -20.5 101.5t-55.5 35.5q-36 0 -56.5 -35.5t-20.5 -101.5v-48q0 -66 20.5 -102
t56.5 -36z" />
    <glyph glyph-name="guilsinglleft" unicode="&#x2039;" horiz-adv-x="802" 
d="M87 565l344 397h277l-339 -396v-6l339 -398h-286l-335 395v8z" />
    <glyph glyph-name="guilsinglright" unicode="&#x203a;" horiz-adv-x="802" 
d="M710 565v-8l-335 -395h-286l339 398v6l-339 396h277z" />
    <glyph glyph-name="slash.frac" horiz-adv-x="1185" 
d="M-63 -1l571 727l485 639h235l-558 -710l-498 -656h-235z" />
    <glyph glyph-name="Euro" unicode="&#x20ac;" 
d="M95 506v110h102v20v92v32h-102v110h115q46 239 236 379t474 140q120 0 208 -21v-258q-69 19 -205 19q-147 0 -247.5 -69t-139.5 -190h463v-110h-484q0 -6 -0.5 -18.5t-0.5 -18.5v-81q0 -17 1 -26h484v-110h-467q37 -127 138.5 -199t252.5 -72q131 0 205 19v-258
q-88 -21 -208 -21q-288 0 -479 143.5t-233 387.5h-113z" />
    <glyph glyph-name="trademark" unicode="&#x2122;" horiz-adv-x="1660" 
d="M463 642h-222v542h-209v181h640v-181h-209v-542zM951 642h-197v723h223l161 -332h7l161 332h221v-723h-200v400h-9l-121 -261h-115l-121 261h-10v-400z" />
    <glyph glyph-name="uni0414.locl" horiz-adv-x="1495" 
d="M330 0v-286h-293v554h131l370 1097h415l375 -1097h130v-554h-293v286h-835zM729 1015l-215 -747h447l-218 747h-14z" />
    <glyph glyph-name="uni0416.locl" horiz-adv-x="1981" 
d="M824 785v580h331v-580h14l435 580h353l-455 -594l477 -771h-389l-322 549l-113 -139v-410h-331v410l-113 139l-322 -549h-387l474 767l-458 598h356l435 -580h15z" />
    <glyph glyph-name="uni041A.locl" horiz-adv-x="1330" 
d="M1310 1365l-473 -592l491 -773h-390l-343 555l-121 -143v-412h-331v1365h331v-580h14l469 580h353z" />
    <glyph glyph-name="uni041B.locl" horiz-adv-x="1311" 
d="M860 1365l432 -1365h-380l-262 1015h-14l-258 -1015h-359l426 1365h415z" />
    <glyph glyph-name="i.locl" horiz-adv-x="574" 
d="M136 1336q0 60 41.5 101.5t100.5 41.5q60 0 101.5 -41.5t41.5 -101.5t-41.5 -101t-101.5 -41q-59 0 -100.5 41t-41.5 101zM127 0v1068h320v-1068h-320z" />
    <glyph glyph-name="uni0431.locl" horiz-adv-x="1180" 
d="M710 1413q97 0 103 50h247q-3 -66 -20 -116t-51.5 -91t-95.5 -62.5t-145 -21.5h-256q-89 0 -89 -59q0 -36 52.5 -49.5t176.5 -25.5q8 -1 12 -1q100 -9 180.5 -41.5t143 -90t96.5 -148.5t34 -209v-56q0 -243 -135.5 -377.5t-371.5 -134.5q-237 0 -372.5 133.5
t-135.5 377.5v55q0 124 55.5 224.5t165.5 147.5v11q-84 32 -125.5 87t-41.5 142q0 123 83.5 189t238.5 66h251zM408 485q0 -52 10 -97.5t30.5 -84t57 -61t85.5 -22.5q64 0 106.5 39.5t59 96.5t16.5 129v62q0 115 -45 190t-137 75t-137.5 -75.5t-45.5 -189.5v-62z" />
    <glyph glyph-name="uni0432.locl" horiz-adv-x="1145" 
d="M575 -20q-230 0 -361 125.5t-131 355.5v541q0 206 127 332t341 126t339 -98t125 -280v-27q0 -94 -39.5 -165t-112.5 -110v-4q200 -93 200 -326v-30q0 -208 -132.5 -324t-355.5 -116zM401 1017v-164h132q80 0 122 46.5t42 129.5v29q0 79 -39.5 120.5t-106.5 41.5
q-73 0 -111.5 -56t-38.5 -147zM574 220q85 0 129 51t44 143v22q0 94 -52 144t-150 50h-144v-187q0 -104 42.5 -163.5t130.5 -59.5z" />
    <glyph glyph-name="uni0433.locl" horiz-adv-x="912" 
d="M859 832h-413v-832h-320v1068h733v-236z" />
    <glyph glyph-name="uni0433.locl" horiz-adv-x="1093" 
d="M989 778q0 -79 -25 -138.5t-74 -99t-105 -63.5t-134 -44q-156 -37 -192 -52q-65 -28 -70 -79q-1 -5 -1 -11q0 -100 153 -100q72 0 113.5 31.5t46.5 82.5h310q0 -147 -121.5 -236t-343.5 -89q-219 0 -343.5 88.5t-124.5 238.5q0 136 84.5 213.5t244.5 113.5q154 34 198 54
q79 35 80 94q0 96 -142 96q-67 0 -105.5 -33t-44.5 -79h-280q0 155 119 238.5t315 83.5q90 0 167.5 -17.5t140 -53t98.5 -97t36 -142.5z" />
    <glyph glyph-name="uni0434.locl" horiz-adv-x="1308" 
d="M308 -285h-278v521h89q54 34 74 129.5t27 310.5l12 392h879v-832h150v-521h-278v285h-675v-285zM794 236v596h-282l-7 -164q-7 -184 -21 -276t-48 -142v-14h358z" />
    <glyph glyph-name="uni0434.locl" horiz-adv-x="1236" 
d="M594 -166q94 0 144.5 52.5t50.5 149.5v149h-14q-30 -74 -109.5 -121t-189.5 -47q-182 0 -288 130.5t-106 375.5v52q0 244 105.5 374.5t288.5 130.5q110 0 190 -48t111 -126h15v162h318v-1059q0 -88 -31.5 -158t-82.5 -114.5t-120 -74t-140.5 -41.5t-147.5 -12
q-233 0 -355 94t-129 238h305q12 -50 62 -78.5t123 -28.5zM602 831q-89 0 -139.5 -67.5t-50.5 -194.5v-60q0 -126 51 -194.5t139 -68.5q87 0 137 68.5t50 194.5v60q0 125 -50.5 193.5t-136.5 68.5z" />
    <glyph glyph-name="uni0436.locl" horiz-adv-x="1720" 
d="M632 431l-258 -431h-361l374 603l-359 465h359l292 -422h15v791h321v-791h15l292 422h359l-358 -459l384 -609h-372l-258 431l-62 -74v-357h-321v357z" />
    <glyph glyph-name="uni0437.locl" horiz-adv-x="1091" 
d="M534 -351q-215 0 -341.5 110.5t-135.5 284.5h304q9 -70 51 -112t116 -42q84 0 131.5 55.5t47.5 150.5q0 100 -50.5 149t-161.5 49h-126v227h130q89 0 133.5 45.5t44.5 123.5q0 76 -40.5 116.5t-113.5 40.5q-129 0 -153 -133h-295q10 170 128 272.5t325 102.5
q211 0 335 -102t124 -269q0 -100 -56 -181.5t-144 -107.5v-15q115 -34 176.5 -118.5t61.5 -210.5q0 -198 -135 -317t-356 -119z" />
    <glyph glyph-name="uni043A.locl" horiz-adv-x="1165" 
d="M447 354v-354h-321v1437h321v-787h15l301 418h363l-370 -459l396 -609h-374l-269 430z" />
    <glyph glyph-name="uni043B.locl" horiz-adv-x="1090" 
d="M742 1068l339 -1068h-344l-179 772h-12l-205 -772h-333l364 1068h370z" />
    <glyph glyph-name="uni043D.locl" horiz-adv-x="1239" 
d="M792 0v429h-346v-429h-320v1068h320v-403h346v403h320v-1068h-320z" />
    <glyph glyph-name="uni043F.locl" horiz-adv-x="1229" 
d="M782 0v832h-336v-832h-320v1068h976v-1068h-320z" />
    <glyph glyph-name="uni043F.locl" horiz-adv-x="1237" 
d="M126 0v1068h311v-166h15q27 70 106 126t203 56q165 0 262 -102t97 -293v-689h-320v614q0 107 -50.5 155t-124.5 48q-82 0 -130.5 -55.5t-48.5 -151.5v-610h-320z" />
    <glyph glyph-name="uni0442.locl" horiz-adv-x="1003" 
d="M960 832h-298v-832h-321v832h-298v236h917v-236z" />
    <glyph glyph-name="uni0442.locl" horiz-adv-x="1827" 
d="M126 0v1068h311v-167h16q23 72 96 127.5t190 55.5q118 0 192.5 -51t101.5 -139h13q26 76 111.5 133t211.5 57q160 0 250.5 -96t90.5 -256v-732h-321v635q0 96 -43 142t-114 46q-75 0 -118 -50t-43 -145v-628h-306v629q0 103 -44.5 148.5t-114.5 45.5q-71 0 -115.5 -47.5
t-44.5 -145.5v-630h-320z" />
    <glyph glyph-name="uni0438.locl" horiz-adv-x="1235" 
d="M1108 1068v-1068h-311v165h-15q-26 -72 -105 -126.5t-203 -54.5q-166 0 -261.5 98t-95.5 285v701h321v-618q0 -110 49.5 -155t122.5 -45q77 0 127.5 52.5t50.5 150.5v615h320z" />
    <glyph glyph-name="uni0439.locl" horiz-adv-x="1235" 
d="M284 1546h179q0 -78 37.5 -123t114.5 -45t114.5 45t37.5 123h180q-1 -146 -88.5 -237t-243.5 -91q-155 0 -243.5 91t-87.5 237zM1108 1068v-1068h-311v165h-15q-26 -72 -105 -126.5t-203 -54.5q-166 0 -261.5 98t-95.5 285v701h321v-618q0 -110 49.5 -155t122.5 -45
q77 0 127.5 52.5t50.5 150.5v615h320z" />
    <glyph glyph-name="uni0446.locl" horiz-adv-x="1317" 
d="M1108 1068v-832h162v-521h-278v285h-195v165h-15q-26 -72 -105 -126.5t-203 -54.5q-166 0 -261.5 98t-95.5 285v701h321v-618q0 -110 49.5 -155t122.5 -45q77 0 127.5 52.5t50.5 150.5v615h320z" />
    <glyph glyph-name="uni0447.locl" horiz-adv-x="1195" 
d="M1069 0h-323v404h-16q-32 -25 -103.5 -45.5t-152.5 -20.5q-178 0 -271.5 96.5t-93.5 261.5v372h321v-329q0 -73 40 -114t115 -41q61 0 105 16.5t56 32.5v435h323v-1068z" />
    <glyph glyph-name="uni0448.locl" horiz-adv-x="1827" 
d="M1701 1068v-1068h-311v181h-16q-10 -34 -29.5 -66t-53 -63t-88.5 -49.5t-123 -18.5q-116 0 -191 55t-98 146h-13q-27 -81 -111 -141t-212 -60q-159 0 -248.5 93t-89.5 250v741h320v-639q0 -96 43 -141t114 -45t116.5 51t45.5 145v629h306v-637q0 -97 44.5 -142.5
t113.5 -45.5q71 0 115.5 48.5t44.5 145.5v631h321z" />
    <glyph glyph-name="uni0449.locl" horiz-adv-x="1926" 
d="M1701 1068v-832h178v-521h-279v285h-210v181h-16q-10 -34 -29.5 -66t-53 -63t-88.5 -49.5t-123 -18.5q-116 0 -191 55t-98 146h-13q-27 -81 -111 -141t-212 -60q-159 0 -248.5 93t-89.5 250v741h320v-639q0 -96 43 -141t114 -45t116.5 51t45.5 145v629h306v-637
q0 -97 44.5 -142.5t113.5 -45.5q71 0 115.5 48.5t44.5 145.5v631h321z" />
    <glyph glyph-name="uni044C.locl" horiz-adv-x="1123" 
d="M592 -25q-221 0 -348 109.5t-127 324.5v659h320v-306h165q222 0 343 -105t121 -287q0 -180 -128 -287.5t-346 -107.5zM570 535h-133v-153q0 -82 42 -129.5t113 -47.5q70 0 112 46.5t42 121.5q0 73 -46.5 117.5t-129.5 44.5z" />
    <glyph glyph-name="uni044A.locl" horiz-adv-x="1291" 
d="M760 -25q-221 0 -348 109.5t-127 324.5v423h-242v236h562v-306h165q222 0 343 -105t121 -287q0 -180 -128 -287.5t-346 -107.5zM738 535h-133v-153q0 -82 42 -129.5t114 -47.5q69 0 111 46.5t42 121.5q0 73 -46.5 117.5t-129.5 44.5z" />
    <glyph glyph-name="uni044E.locl" horiz-adv-x="1646" 
d="M1067 -20q-210 0 -339 114t-148 323v12h-134v-429h-320v1437h320v-772h136q23 194 152.5 308.5t332.5 114.5q227 0 361.5 -137.5t134.5 -366.5v-92q0 -243 -132.5 -377.5t-363.5 -134.5zM1067 848q-87 0 -130.5 -75.5t-43.5 -189.5v-98q0 -111 42.5 -188t131.5 -77
q88 0 129.5 76t41.5 189v98q0 74 -16.5 131.5t-56 95.5t-98.5 38z" />
    <glyph glyph-name="glyph220" horiz-adv-x="577" 
d="M107 1001q0 74 53 127t127 53t127 -53t53 -127t-53 -127t-127 -53t-127 53t-53 127zM107 324q0 74 53 127t127 53t127 -53t53 -127t-53 -127t-127 -53t-127 53t-53 127z" />
    <glyph glyph-name="zero.dnom" horiz-adv-x="676" 
d="M337 -17q-140 0 -222 89.5t-82 238.5v48q0 149 82.5 238t223.5 89q140 0 222 -89t82 -238v-48q0 -147 -82.5 -237.5t-223.5 -90.5zM338 173q36 0 56.5 36t20.5 102v48q0 66 -20.5 101.5t-56.5 35.5t-56.5 -35.5t-20.5 -101.5v-48q0 -66 20.5 -102t56.5 -36z" />
    <glyph glyph-name="one.dnom" horiz-adv-x="530" 
d="M446 0h-246v456h-15q-2 -1 -146 -97v205q5 4 82.5 54t82.5 52h242v-670z" />
    <glyph glyph-name="two.dnom" horiz-adv-x="664" 
d="M258 438h-223v12q0 102 81.5 169t217.5 67q127 0 204 -58t77 -151q0 -57 -27 -97.5t-90 -95.5l-107 -99v-11h234v-174h-577v148l292 245q42 37 42 70q0 23 -17 38t-43 15q-30 0 -47.5 -18t-17.5 -45q0 -11 1 -15z" />
    <glyph glyph-name="three.dnom" horiz-adv-x="673" 
d="M263 270v136h50q32 0 50 15.5t18 41.5q0 25 -17.5 40t-45.5 15q-29 0 -47 -20t-19 -49h-216q5 115 83.5 176t225.5 61q120 0 199.5 -52t79.5 -131q0 -59 -36 -98.5t-90 -48.5v-13q61 -9 100.5 -49t39.5 -102q0 -94 -86.5 -151.5t-221.5 -57.5q-140 0 -219.5 65.5
t-77.5 171.5h216q-1 -31 18.5 -50t51.5 -19q30 0 49 17t18 43q0 59 -72 59h-51z" />
    <glyph glyph-name="four.dnom" horiz-adv-x="679" 
d="M261 670h324v-415h73v-173h-73v-82h-223v82h-333v178q55 118 232 410zM233 255h129v241h-7q-86 -158 -122 -238v-3z" />
    <glyph glyph-name="five.dnom" horiz-adv-x="677" 
d="M51 207h219q4 -26 23.5 -41.5t48.5 -15.5q31 0 52 21t21 53t-20.5 53.5t-51.5 21.5q-43 0 -67 -37l-217 -2l36 410h508v-178h-315l-12 -108h11q51 58 145 58q96 0 156 -56.5t61 -152.5q0 -116 -82 -182t-223 -66q-134 0 -213 61.5t-80 160.5z" />
    <glyph glyph-name="six.dnom" horiz-adv-x="684" 
d="M365 686q111 0 187.5 -60.5t89.5 -148.5h-225q-10 49 -62 49q-47 0 -71 -46.5t-19 -119.5h8q59 83 165 83q95 0 157 -57.5t63 -152.5q1 -115 -84 -182.5t-225 -67.5q-147 0 -230 92q-84 89 -84 253q0 168 87.5 263t242.5 95zM359 148q31 0 53 22t22 55t-22 54.5t-53 21.5
q-32 0 -53.5 -21.5t-21.5 -54.5t21.5 -55t53.5 -22z" />
    <glyph glyph-name="seven.dnom" horiz-adv-x="620" 
d="M30 670h558v-196l-258 -474h-263l272 478v14h-309v178z" />
    <glyph glyph-name="eight.dnom" horiz-adv-x="710" 
d="M355 -17q-152 0 -237.5 55t-85.5 151q0 63 44.5 106.5t110.5 53.5v11q-128 41 -128 146q0 82 79.5 131t216.5 49t216.5 -49t79.5 -131q0 -105 -128 -146v-11q66 -10 110.5 -53.5t44.5 -106.5q0 -96 -86 -151t-237 -55zM355 419q27 0 44 16.5t17 44.5q0 27 -17 43.5
t-44 16.5t-44 -16.5t-17 -43.5q0 -28 17 -44.5t44 -16.5zM355 137q32 0 51 18.5t19 49.5q0 32 -19.5 50.5t-50.5 18.5q-32 0 -51 -18.5t-19 -50.5q0 -31 19 -49.5t51 -18.5z" />
    <glyph glyph-name="nine.dnom" horiz-adv-x="683" 
d="M49 193h224q12 -50 64 -50q49 0 72.5 47.5t17.5 119.5h-8q-56 -83 -166 -83q-95 0 -156 57.5t-62 152.5q-1 115 83.5 182t223.5 67q147 0 231 -91t84 -254q0 -168 -87 -262.5t-243 -94.5q-112 0 -189 60.5t-89 148.5zM333 521q-31 0 -53 -21.5t-22 -54.5t21.5 -54.5
t53.5 -21.5t54 21.5t22 53.5q0 34 -21.5 55.5t-54.5 21.5z" />
    <glyph glyph-name="plus.dnom" horiz-adv-x="694" 
d="M454 214v-186h-215v186h-179v205h179v184h215v-184h180v-205h-180z" />
    <glyph glyph-name="equal.dnom" horiz-adv-x="705" 
d="M645 358h-585v196h585v-196zM645 75h-585v196h585v-196z" />
    <glyph glyph-name="parenleft.dnom" horiz-adv-x="420" 
d="M156 704h249q-51 -70 -82.5 -171t-31.5 -220q0 -225 114 -396h-251q-57 65 -92.5 167.5t-35.5 228.5q0 245 130 391z" />
    <glyph glyph-name="parenright.dnom" horiz-adv-x="420" 
d="M15 704h250q130 -148 130 -391q0 -126 -35.5 -228.5t-93.5 -167.5h-250q114 174 114 396q0 231 -115 391z" />
    <glyph glyph-name="zero.numr" horiz-adv-x="676" 
d="M337 678q-140 0 -222 89.5t-82 238.5v48q0 149 82.5 238t223.5 89q140 0 222 -89t82 -238v-48q0 -147 -82.5 -237.5t-223.5 -90.5zM338 868q36 0 56.5 36t20.5 102v48q0 66 -20.5 101.5t-56.5 35.5t-56.5 -35.5t-20.5 -101.5v-48q0 -66 20.5 -102t56.5 -36z" />
    <glyph glyph-name="one.numr" horiz-adv-x="530" 
d="M446 695h-246v456h-15q-2 -1 -146 -97v205q148 99 165 106h242v-670z" />
    <glyph glyph-name="two.numr" horiz-adv-x="664" 
d="M258 1133h-223v12q0 102 81.5 169t217.5 67q127 0 204 -58t77 -151q0 -57 -27 -97.5t-90 -95.5l-107 -99v-11h234v-174h-577v148l292 245q42 37 42 70q0 23 -17 38t-43 15q-30 0 -47.5 -17.5t-17.5 -45.5q0 -11 1 -15z" />
    <glyph glyph-name="three.numr" horiz-adv-x="673" 
d="M263 965v136h50q32 0 50 15.5t18 41.5q0 25 -17.5 40t-45.5 15q-29 0 -47 -20t-19 -49h-216q5 115 83.5 176t225.5 61q120 0 199.5 -52t79.5 -131q0 -59 -36 -98.5t-90 -48.5v-13q61 -9 100.5 -49t39.5 -103q0 -93 -86.5 -150.5t-221.5 -57.5q-140 0 -219.5 65.5
t-77.5 171.5h216q-1 -31 18.5 -50t51.5 -19q30 0 49 17t18 43q0 59 -72 59h-51z" />
    <glyph glyph-name="four.numr" horiz-adv-x="679" 
d="M261 1365h324v-415h73v-173h-73v-82h-223v82h-333v178q55 118 232 410zM233 950h129v241h-7q-86 -158 -122 -238v-3z" />
    <glyph glyph-name="five.numr" horiz-adv-x="677" 
d="M51 902h219q4 -26 23.5 -41.5t48.5 -15.5q31 0 52 21t21 53t-20.5 53.5t-51.5 21.5q-43 0 -67 -37l-217 -2l36 410h508v-178h-315l-12 -108h11q51 58 145 58q96 0 156 -56.5t61 -152.5q0 -116 -82 -182t-223 -66q-134 0 -213 61.5t-80 160.5z" />
    <glyph glyph-name="six.numr" horiz-adv-x="684" 
d="M365 1381q111 0 187.5 -60.5t89.5 -148.5h-225q-10 49 -62 49q-47 0 -71 -46.5t-19 -119.5h8q59 83 165 83q95 0 157 -57.5t63 -152.5q1 -115 -84 -182.5t-225 -67.5q-147 0 -230 92q-84 89 -84 252q0 169 87.5 264t242.5 95zM359 843q31 0 53 21.5t22 55.5
q0 33 -22 54.5t-53 21.5q-32 0 -53.5 -21.5t-21.5 -54.5t21.5 -55t53.5 -22z" />
    <glyph glyph-name="seven.numr" horiz-adv-x="620" 
d="M30 1365h558v-196l-258 -474h-263l272 478v14h-309v178z" />
    <glyph glyph-name="eight.numr" horiz-adv-x="710" 
d="M355 678q-152 0 -237.5 55t-85.5 151q0 63 44.5 106.5t110.5 52.5v12q-128 41 -128 146q0 82 79.5 131t216.5 49t216.5 -49t79.5 -131q0 -105 -128 -146v-12q66 -9 110.5 -52.5t44.5 -106.5q0 -96 -86 -151t-237 -55zM355 1114q27 0 44 16.5t17 43.5q0 28 -17 44.5
t-44 16.5t-44 -16.5t-17 -44.5q0 -27 17 -43.5t44 -16.5zM355 832q32 0 51 18.5t19 49.5q0 32 -19.5 50.5t-50.5 18.5q-32 0 -51 -18.5t-19 -50.5q0 -31 19 -49.5t51 -18.5z" />
    <glyph glyph-name="nine.numr" horiz-adv-x="683" 
d="M49 888h224q12 -50 64 -50q49 0 72.5 47.5t17.5 119.5h-8q-56 -83 -166 -83q-95 0 -156 57.5t-62 152.5q-1 115 83.5 182t223.5 67q147 0 231 -91.5t84 -254.5q0 -167 -87 -261.5t-243 -94.5q-112 0 -189 60.5t-89 148.5zM333 1216q-31 0 -53 -21.5t-22 -54.5t21.5 -55
t53.5 -22t54 22t22 54q0 33 -21.5 55t-54.5 22z" />
    <glyph glyph-name="plus.numr" horiz-adv-x="694" 
d="M454 908v-185h-215v185h-179v205h179v185h215v-185h180v-205h-180z" />
    <glyph glyph-name="equal.numr" horiz-adv-x="705" 
d="M645 1053h-585v196h585v-196zM645 770h-585v196h585v-196z" />
    <glyph glyph-name="parenleft.numr" horiz-adv-x="420" 
d="M156 1399h249q-114 -160 -114 -391q0 -225 114 -396h-251q-57 64 -92.5 167t-35.5 229q0 245 130 391z" />
    <glyph glyph-name="parenright.numr" horiz-adv-x="420" 
d="M15 1399h250q130 -148 130 -391q0 -126 -36 -229t-93 -167h-250q114 174 114 396q0 230 -115 391z" />
    </font>
</defs>
</svg>
