<?xml version="1.0" standalone="no"?>
<!DOCTYPE svg PUBLIC "-//W3C//DTD SVG 1.1//EN" "http://www.w3.org/Graphics/SVG/1.1/DTD/svg11.dtd" >
<svg xmlns="http://www.w3.org/2000/svg" xmlns:xlink="http://www.w3.org/1999/xlink" version="1.1">
<metadata>
Created by FontForge 20190801 at Tue Nov  3 19:38:20 2020
 By root
(c) 2015-2020 Apple Inc. All rights reserved.
</metadata>
<defs>
<font id="SFCompactDisplay-Black" horiz-adv-x="1295" >
  <font-face 
    font-family="SF Compact Display"
    font-weight="900"
    font-stretch="normal"
    units-per-em="2048"
    panose-1="2 11 3 4 3 2 2 6 2 4"
    ascent="1638"
    descent="-410"
    x-height="1078"
    cap-height="1365"
    bbox="-66 -494 2401 1780"
    underline-thickness="50"
    underline-position="-100"
    unicode-range="U+0020-2122"
  />
<missing-glyph horiz-adv-x="2048" 
 />
    <glyph glyph-name=".notdef" horiz-adv-x="2048" 
 />
    <glyph glyph-name="space" unicode=" " horiz-adv-x="392" 
 />
    <glyph glyph-name="exclam" unicode="!" horiz-adv-x="619" 
d="M90 1365h439l-47 -937h-348zM101 163q0 83 60 133t149 50q88 0 148 -50t60 -133q0 -84 -60 -134t-148 -50q-89 0 -149 50t-60 134z" />
    <glyph glyph-name="quotedbl" unicode="&#x22;" horiz-adv-x="999" 
d="M80 1365h366l-48 -591h-270zM553 1365h366l-48 -591h-270z" />
    <glyph glyph-name="numbersign" unicode="#" horiz-adv-x="1290" 
d="M1231 769h-203l-29 -154h199l-53 -281h-191l-66 -334h-296l65 334h-170l-67 -334h-295l66 334h-183l52 281h194l31 154h-191l51 281h185l61 315h298l-64 -315h172l60 315h298l-61 -315h188zM551 813l-47 -242h230l45 242h-228z" />
    <glyph glyph-name="dollar" unicode="$" 
d="M104 439h363q1 -38 33 -71t90 -45v207l-109 19q-357 62 -357 373q0 180 125.5 287t340.5 120v152h110v-152q115 -7 205 -43.5t144.5 -92.5t82.5 -122t28 -138h-349q-2 36 -30.5 68.5t-80.5 44.5v-195l132 -20q71 -11 129.5 -34t111.5 -65t83 -112t30 -163
q0 -181 -123.5 -295t-362.5 -127v-152h-110v151q-107 5 -192.5 31t-139 65t-89.5 91.5t-50.5 106t-14.5 111.5zM507 953q0 -52 83 -79v172q-83 -20 -83 -93zM809 415q0 37 -26.5 58t-82.5 35v-188q56 8 82.5 34t26.5 61z" />
    <glyph glyph-name="percent" unicode="%" horiz-adv-x="1733" 
d="M395 664q-151 0 -240.5 90.5t-89.5 242.5v52q0 152 89.5 242.5t240.5 90.5t240.5 -90.5t89.5 -242.5v-52q0 -152 -89.5 -242.5t-240.5 -90.5zM471 -1h-274l597 749l468 617h274l-578 -725zM395 888q30 0 47 29t17 80v52q0 51 -17 80t-47 29t-47 -29t-17 -80v-52
q0 -51 17 -80t47 -29zM1338 -19q-151 0 -240.5 90.5t-89.5 242.5v52q0 152 89.5 242.5t240.5 90.5t240.5 -90.5t89.5 -242.5v-52q0 -152 -89.5 -242.5t-240.5 -90.5zM1338 205q30 0 47 29t17 80v52q0 51 -17 80t-47 29t-47 -29t-17 -80v-52q0 -51 17 -80t47 -29z" />
    <glyph glyph-name="ampersand" unicode="&#x26;" horiz-adv-x="1432" 
d="M1032 0l-84 88q-59 -50 -164 -83.5t-242 -33.5q-237 0 -366.5 103t-129.5 276q0 119 60.5 201t172.5 147q36 21 75 39q-87 88 -128 157.5t-41 150.5q0 149 126 240t305 91q77 0 148 -18.5t132.5 -55t98.5 -100t37 -145.5q0 -214 -259 -360l178 -192q31 51 31 148v104h307
v-136q0 -88 -31 -182t-88 -161l270 -278h-408zM607 860q122 65 122 163q0 54 -32 85.5t-80 31.5q-49 0 -82.5 -32.5t-33.5 -82.5q0 -39 23.5 -74.5t82.5 -90.5zM489 532q-38 -23 -64.5 -61.5t-26.5 -87.5q0 -68 52 -109t134 -41q53 0 100.5 17t72.5 45l-238 252
q-15 -6 -30 -15z" />
    <glyph glyph-name="quotesingle" unicode="'" horiz-adv-x="526" 
d="M80 1365h366l-48 -591h-270z" />
    <glyph glyph-name="parenleft" unicode="(" horiz-adv-x="820" 
d="M400 1437h390q-27 -34 -55.5 -82t-61.5 -128t-58.5 -171t-42.5 -217t-17 -260t17.5 -260t38.5 -210t59.5 -179t59 -136t58.5 -112h-396q-46 61 -85.5 135.5t-81 184t-66 258.5t-24.5 317q0 137 17 257t40.5 202.5t63 164.5t69.5 128.5t75 107.5z" />
    <glyph glyph-name="parenright" unicode=")" horiz-adv-x="820" 
d="M30 1437h390q45 -61 75 -107.5t69.5 -128.5t63 -164.5t40.5 -202.5t17 -257q0 -168 -24.5 -317t-66 -258.5t-81 -184t-85.5 -135.5h-396q38 71 58.5 112t59 136t59.5 179t38.5 210t17.5 260t-17 260t-42.5 217t-58.5 171t-61.5 128t-55.5 82z" />
    <glyph glyph-name="asterisk" unicode="*" horiz-adv-x="930" 
d="M578 589h-226l38 257l-209 -157l-113 194l236 98l-237 100l114 197l203 -154l-33 253h229l-34 -250l202 152l115 -198l-239 -100l239 -97l-114 -195l-206 158z" />
    <glyph glyph-name="plus" unicode="+" 
d="M827 406v-388h-359v388h-372v347h372v385h359v-385h372v-347h-372z" />
    <glyph glyph-name="comma" unicode="," horiz-adv-x="485" 
d="M275 -326h-264l129 591h344z" />
    <glyph glyph-name="hyphen" unicode="-" horiz-adv-x="790" 
d="M710 380h-630v360h630v-360z" />
    <glyph glyph-name="hyphen" unicode="&#x2011;" horiz-adv-x="790" 
d="M710 380h-630v360h630v-360z" />
    <glyph glyph-name="hyphen" unicode="&#x2010;" horiz-adv-x="790" 
d="M710 380h-630v360h630v-360z" />
    <glyph glyph-name="period" unicode="." horiz-adv-x="612" 
d="M89 192q0 89 64 153t153 64t153 -64t64 -153t-64 -153t-153 -64t-153 64t-64 153z" />
    <glyph glyph-name="slash" unicode="/" horiz-adv-x="820" 
d="M346 -318h-366l494 1755h366z" />
    <glyph glyph-name="zero" unicode="0" horiz-adv-x="1247" 
d="M50 646v77q0 195 68 344.5t199.5 234.5t310.5 85q181 0 310.5 -84.5t194 -233t64.5 -346.5v-77q0 -107 -22 -204.5t-69 -182.5t-114.5 -147.5t-163.5 -98.5t-210 -36q-180 0 -309.5 86.5t-194 236.5t-64.5 346zM471 722v-75q0 -173 41.5 -257.5t110.5 -84.5t111 85
t42 257v75q0 172 -41.5 254.5t-111.5 82.5t-111 -82t-41 -255z" />
    <glyph glyph-name="one" unicode="1" horiz-adv-x="894" 
d="M789 0h-416v997h-20q-50 -34 -150.5 -103t-150.5 -103v356q53 37 160 109.5t161 108.5h416v-1365z" />
    <glyph glyph-name="two" unicode="2" horiz-adv-x="1194" 
d="M450 910h-390v25q0 196 154 324t388 128q231 0 373 -109t142 -287q0 -111 -53 -204t-198 -235l-216 -212v-16h489v-324h-1049v257l472 457q81 78 113.5 129.5t32.5 102.5q0 53 -36 87.5t-92 34.5q-55 0 -92.5 -37t-37.5 -92v-29z" />
    <glyph glyph-name="three" unicode="3" horiz-adv-x="1221" 
d="M441 553v297h152q69 0 108.5 34t39.5 88q0 47 -43 80.5t-106 33.5q-66 0 -110 -42.5t-44 -97.5h-387q8 210 156 325.5t406 115.5q148 0 268.5 -44.5t192.5 -128.5t72 -192q0 -69 -23.5 -124.5t-61.5 -88.5t-78.5 -52t-81.5 -23v-21q116 -7 198 -91.5t82 -234.5
q0 -96 -49.5 -175.5t-132 -130t-186.5 -77.5t-218 -27q-139 0 -247.5 36.5t-174 99t-99.5 141t-34 167.5h381q0 -59 54.5 -97t129.5 -38q71 0 116 38.5t45 94.5q0 55 -44 94.5t-123 39.5h-158z" />
    <glyph glyph-name="four" unicode="4" horiz-adv-x="1268" 
d="M489 1365h592v-841h149v-319h-149v-205h-389v205h-655v325q34 69 74 146t69.5 132.5t80.5 147.5t72 130.5t81.5 145.5t74.5 133zM389 524h303v556h-19q-189 -339 -284 -552v-4z" />
    <glyph glyph-name="five" unicode="5" horiz-adv-x="1242" 
d="M75 404h376q8 -47 57.5 -80.5t120.5 -33.5q77 0 126 48.5t49 123.5q0 74 -49 123t-127 49q-58 0 -100 -27.5t-57 -58.5h-377l50 817h967v-320h-643l-18 -234h19q27 44 99 80.5t191 36.5q118 0 218.5 -50t165 -153t64.5 -241q0 -237 -158.5 -372t-420.5 -135
q-257 0 -405 121.5t-148 305.5z" />
    <glyph glyph-name="six" unicode="6" horiz-adv-x="1225" 
d="M1145 991h-377q-8 41 -46 64t-88 23t-88 -24.5t-58.5 -63.5t-33.5 -87.5t-12.5 -96t3.5 -89.5h22q81 189 292 189q175 0 294 -117t119 -322q0 -116 -42 -210t-114.5 -154.5t-169.5 -93t-208 -32.5q-274 0 -428 190q-152 187 -152 516q0 328 152.5 516t429.5 188
q98 0 182 -24.5t141.5 -65t99 -92.5t61 -106.5t21.5 -107.5zM488 454q0 -72 40 -119t107 -47q66 0 106 46.5t40 119.5q0 72 -39.5 119.5t-106.5 47.5t-107 -48t-40 -119z" />
    <glyph glyph-name="seven" unicode="7" horiz-adv-x="1145" 
d="M40 1365h1055v-328l-545 -1037h-441l569 1026v15h-638v324z" />
    <glyph glyph-name="eight" unicode="8" horiz-adv-x="1282" 
d="M641 -23q-281 0 -441 111t-160 292q0 79 27 141.5t72.5 100.5t96.5 60.5t107 30.5v16q-248 71 -248 302q0 156 146.5 256t399.5 100t399.5 -100t146.5 -256q0 -231 -248 -302v-16q56 -8 107 -30.5t96.5 -60.5t72.5 -100.5t27 -141.5q0 -181 -160 -292t-441 -111zM641 832
q63 0 105.5 39.5t42.5 101.5t-42.5 101.5t-105.5 39.5t-105 -39.5t-42 -101.5t42 -101.5t105 -39.5zM641 249q77 0 129 46.5t52 120.5t-52 121t-129 47t-128.5 -46.5t-51.5 -121.5q0 -74 51.5 -120.5t128.5 -46.5z" />
    <glyph glyph-name="nine" unicode="9" horiz-adv-x="1225" 
d="M81 371h376q9 -41 46.5 -63t86.5 -22q50 0 88.5 24.5t59 64t34 88.5t13 97.5t-3.5 92.5h-22q-18 -75 -90 -131.5t-200 -56.5q-178 0 -296.5 115.5t-118.5 319.5q0 155 73 267t192 166t268 54q276 0 428.5 -186.5t152.5 -516.5q0 -328 -152 -517.5t-430 -189.5
q-120 0 -218.5 36.5t-158.5 95t-93 126.5t-35 136zM738 914q0 72 -40 118t-107 46t-106.5 -45.5t-39.5 -118.5q0 -71 39.5 -117.5t106.5 -46.5t107 46.5t40 117.5z" />
    <glyph glyph-name="colon" unicode=":" horiz-adv-x="612" 
d="M89 819q0 89 64 153t153 64t153 -64t64 -153t-64 -153t-153 -64t-153 64t-64 153zM89 192q0 89 64 153t153 64t153 -64t64 -153t-64 -153t-153 -64t-153 64t-64 153z" />
    <glyph glyph-name="semicolon" unicode=";" horiz-adv-x="607" 
d="M97 819q0 89 64 153t153 64t153 -64t64 -153t-64 -153t-153 -64t-153 64t-64 153zM373 -326h-284l53 591h344z" />
    <glyph glyph-name="less" unicode="&#x3c;" 
d="M132 438v224l1022 509v-391l-530 -217v-16l530 -228v-380z" />
    <glyph glyph-name="equal" unicode="=" 
d="M1186 655h-1076v315h1076v-315zM1186 146h-1076v315h1076v-315z" />
    <glyph glyph-name="greater" unicode="&#x3e;" 
d="M1154 662v-224l-1022 -499v380l530 228v16l-530 217v391z" />
    <glyph glyph-name="question" unicode="?" horiz-adv-x="1022" 
d="M8 955q-7 107 31 191.5t110.5 135.5t165.5 77.5t201 26.5q142 0 253 -43t179 -134.5t68 -219.5q0 -53 -13 -98.5t-31 -76t-48.5 -59.5t-54.5 -45.5t-60 -38.5q-101 -60 -134.5 -96t-33.5 -107v-40h-348l-3 21q-17 123 20.5 209t138.5 143q44 25 65.5 39t46.5 35t35 43.5
t10 50.5q0 53 -34 82t-82 29q-52 0 -83.5 -35t-33.5 -90h-365zM262 163q0 83 60 133t149 50q88 0 148 -50t60 -133q0 -84 -60 -134t-148 -50q-89 0 -149 50t-60 134z" />
    <glyph glyph-name="at" unicode="@" horiz-adv-x="1772" 
d="M1319 133q-54 0 -106.5 13.5t-100.5 50t-65 90.5h-9q-23 -80 -89 -116.5t-152 -36.5q-138 0 -221 87t-83 242v139q0 145 81.5 231.5t217.5 86.5q101 0 157 -45t73 -109h7v139h247v-509q0 -37 21.5 -59t55.5 -22q47 0 83.5 77.5t36.5 226.5v21q0 147 -68.5 265t-196 187
t-291.5 69h-9q-274 0 -434 -166t-160 -442v-29q0 -124 32 -225.5t86 -168.5t128 -112.5t155 -65.5t170 -20h11q159 0 237 35v-191q-77 -35 -257 -35h-11q-170 0 -312 52t-245 149.5t-160.5 245t-57.5 330.5v42q0 358 224.5 577t593.5 219h8q180 0 328.5 -57t245 -154.5
t149.5 -224.5t53 -270v-47q0 -134 -40 -238.5t-126 -168t-207 -63.5zM765 505q0 -87 29 -124t86 -37q50 0 79.5 31.5t29.5 113.5v87q0 75 -31.5 106t-79.5 31q-113 0 -113 -162v-46z" />
    <glyph glyph-name="A" unicode="A" horiz-adv-x="1356" 
d="M415 0h-415l414 1365h532l410 -1365h-448l-59 258h-373zM676 1018h-21l-110 -465h237z" />
    <glyph glyph-name="B" unicode="B" horiz-adv-x="1315" 
d="M115 0v1365h659q200 0 321 -89t121 -246q0 -130 -76 -206t-182 -89v-19q54 -2 107 -21.5t101 -57t78 -102t30 -145.5q0 -122 -67 -212.5t-172.5 -134t-233.5 -43.5h-686zM530 1085v-256h130q75 0 112.5 37.5t37.5 91.5q0 57 -40.5 92t-111.5 35h-128zM530 581v-301h143
q88 0 132 43t44 110t-45 107.5t-133 40.5h-141z" />
    <glyph glyph-name="C" unicode="C" horiz-adv-x="1328" 
d="M489 745v-127q0 -146 52 -223.5t147 -77.5q90 0 139 64t49 166h397v-61q0 -230 -164.5 -369.5t-424.5 -139.5q-298 0 -461.5 173.5t-163.5 470.5v123q0 298 163 470.5t462 172.5q261 0 425 -139.5t164 -370.5v-59h-397q0 101 -49 165t-139 64q-95 0 -147 -77.5
t-52 -224.5z" />
    <glyph glyph-name="D" unicode="D" horiz-adv-x="1386" 
d="M115 1365h593q131 0 235 -31.5t177 -89t121.5 -141t71 -186t22.5 -226.5q0 -157 -37 -282.5t-112.5 -217.5t-196.5 -141.5t-281 -49.5h-593v1365zM535 1042v-719h96q40 0 69 4t63 16t57.5 36.5t44 62.5t30.5 98t10 139q0 59 -5.5 106.5t-23 97.5t-46.5 83t-79.5 54.5
t-119.5 21.5h-96z" />
    <glyph glyph-name="E" unicode="E" horiz-adv-x="1173" 
d="M1088 323v-323h-973v1365h973v-323h-558v-215h521v-292h-521v-212h558z" />
    <glyph glyph-name="F" unicode="F" horiz-adv-x="1130" 
d="M535 0h-420v1365h970v-328h-550v-250h497v-316h-497v-471z" />
    <glyph glyph-name="G" unicode="G" horiz-adv-x="1353" 
d="M1294 894h-405q-7 65 -57 111t-136 46q-104 0 -158 -75t-54 -218v-144q0 -50 5.5 -90.5t20.5 -81t39 -68t64.5 -44.5t93.5 -17q93 0 143.5 49.5t50.5 115.5v16h-170v278h563v-256q0 -83 -20 -159t-66 -146t-114 -121.5t-170.5 -82t-228.5 -30.5q-134 0 -242.5 34
t-180.5 93t-121 140.5t-70.5 173t-21.5 194.5v151q0 135 41.5 248.5t120.5 197.5t201.5 131t276.5 47q147 0 264.5 -43t187.5 -114.5t106.5 -157.5t36.5 -178z" />
    <glyph glyph-name="H" unicode="H" horiz-adv-x="1465" 
d="M1350 0h-420v517h-395v-517h-420v1365h420v-515h395v515h420v-1365z" />
    <glyph glyph-name="I" unicode="I" horiz-adv-x="650" 
d="M535 0h-420v1365h420v-1365z" />
    <glyph glyph-name="J" unicode="J" horiz-adv-x="1217" 
d="M27 508h401q0 -77 36 -120.5t102 -43.5q70 0 100 40t30 119v862h421v-869q0 -256 -144 -387.5t-402 -131.5q-114 0 -207 30.5t-154.5 81t-103.5 119.5t-60.5 144t-18.5 156z" />
    <glyph glyph-name="K" unicode="K" horiz-adv-x="1372" 
d="M1389 1365l-453 -598l465 -767h-486l-285 493l-95 -120v-373h-420v1365h420v-535h19l397 535h438z" />
    <glyph glyph-name="L" unicode="L" horiz-adv-x="1065" 
d="M1036 344v-344h-921v1365h420v-1021h501z" />
    <glyph glyph-name="M" unicode="M" horiz-adv-x="1703" 
d="M486 0h-371v1365h439l292 -609h14l293 609h435v-1365h-377v761h-19l-232 -502h-220l-234 502h-20v-761z" />
    <glyph glyph-name="N" unicode="N" horiz-adv-x="1411" 
d="M500 0h-385v1365h315l465 -660h16v660h385v-1365h-312l-468 672h-16v-672z" />
    <glyph glyph-name="O" unicode="O" horiz-adv-x="1407" 
d="M1348 613q0 -293 -168 -464.5t-476 -171.5t-476.5 172t-168.5 464v134q0 296 168.5 468t476.5 172t476 -173t168 -467v-134zM918 753q0 145 -56.5 223t-157.5 78q-102 0 -158.5 -78t-56.5 -223v-142q0 -146 56.5 -223.5t158.5 -77.5q101 0 157.5 77.5t56.5 223.5v142z
" />
    <glyph glyph-name="P" unicode="P" horiz-adv-x="1273" 
d="M738 1365q125 0 223.5 -41.5t158 -112t90.5 -159.5t31 -189q0 -102 -31.5 -190t-92.5 -156.5t-160 -108t-225 -39.5h-198v-369h-419v1365h623zM817 863q0 93 -52 142.5t-141 49.5h-92v-384h92q88 0 140.5 50.5t52.5 141.5z" />
    <glyph glyph-name="Q" unicode="Q" horiz-adv-x="1414" 
d="M1307 -107h-382l-61 99q-80 -15 -154 -15q-296 0 -470.5 176t-174.5 464v126q0 290 174.5 467t470.5 177t470 -177.5t174 -466.5v-126q0 -309 -197 -484zM474 606q0 -158 59 -242.5t161 -90.5l-104 171h334q21 73 21 162v142q0 148 -64 228.5t-171 80.5
q-108 0 -172 -80.5t-64 -228.5v-142z" />
    <glyph glyph-name="R" unicode="R" horiz-adv-x="1334" 
d="M741 1365q262 0 401.5 -126.5t139.5 -343.5q0 -64 -17.5 -123t-44 -101t-60.5 -76.5t-62.5 -54.5t-54.5 -32l268 -508h-461l-219 455h-105v-455h-411v1365h626zM526 735h151q74 0 123 41.5t49 120.5q0 80 -50.5 123.5t-121.5 43.5h-151v-329z" />
    <glyph glyph-name="S" unicode="S" horiz-adv-x="1288" 
d="M57 418h394q2 -53 55 -93t145 -40q90 0 131 30t41 77q0 49 -45 73.5t-146 42.5l-165 29q-388 69 -388 406q0 209 154 326.5t413 117.5q139 0 249 -37t176 -99.5t100 -138t34 -157.5h-380q-2 49 -48 89t-130 40q-76 0 -114 -30t-38 -77q0 -79 178 -106l175 -27
q61 -9 113 -26t103.5 -48.5t87.5 -75t58.5 -109.5t22.5 -148q0 -208 -150.5 -334t-440.5 -126q-130 0 -232.5 26t-167 68.5t-107.5 101t-60.5 119t-17.5 126.5z" />
    <glyph glyph-name="T" unicode="T" horiz-adv-x="1128" 
d="M774 0h-420v1029h-347v336h1114v-336h-347v-1029z" />
    <glyph glyph-name="U" unicode="U" horiz-adv-x="1408" 
d="M704 321q84 0 134 52t50 158v834h420v-893q0 -227 -162.5 -361t-441.5 -134t-441.5 134t-162.5 361v893h420v-834q0 -108 49.5 -159t134.5 -51z" />
    <glyph glyph-name="V" unicode="V" horiz-adv-x="1334" 
d="M396 0l-401 1365h490l191 -935h19l185 935h459l-392 -1365h-551z" />
    <glyph glyph-name="W" unicode="W" horiz-adv-x="1865" 
d="M726 0h-395l-336 1365h433l129 -828h19l196 828h323l196 -828h20l126 828h433l-335 -1365h-395l-199 751h-15z" />
    <glyph glyph-name="X" unicode="X" horiz-adv-x="1279" 
d="M1314 1365l-406 -678l405 -687h-467l-211 395h-16l-209 -395h-443l386 687l-388 678h489l188 -413h17l188 413h467z" />
    <glyph glyph-name="Y" unicode="Y" horiz-adv-x="1252" 
d="M836 0h-420v411l-457 954h455l212 -537h15l214 537h438l-457 -941v-424z" />
    <glyph glyph-name="Z" unicode="Z" horiz-adv-x="1224" 
d="M85 0v262l550 758v19h-545v326h1046v-262l-550 -757v-20h573v-326h-1074z" />
    <glyph glyph-name="bracketleft" unicode="[" horiz-adv-x="820" 
d="M100 1437h690v-293h-301v-1170h301v-292h-690v1755z" />
    <glyph glyph-name="backslash" unicode="\" horiz-adv-x="820" 
d="M840 -318h-366l-494 1755h366z" />
    <glyph glyph-name="bracketright" unicode="]" horiz-adv-x="820" 
d="M30 1437h690v-1755h-690v292h301v1170h-301v293z" />
    <glyph glyph-name="asciicircum" unicode="^" horiz-adv-x="1055" 
d="M1032 795h-355l-142 255h-18l-151 -255h-343l345 570h324z" />
    <glyph glyph-name="underscore" unicode="_" horiz-adv-x="871" 
d="M897 -408h-923v305h923v-305z" />
    <glyph glyph-name="grave" unicode="`" horiz-adv-x="950" 
d="M752 1190h-268l-286 318h321z" />
    <glyph glyph-name="a" unicode="a" horiz-adv-x="1155" 
d="M407 -15q-162 0 -260 86.5t-98 240.5q0 153 102.5 241t289.5 88h231v79q0 42 -27.5 66t-73.5 24q-48 0 -77 -26.5t-29 -67.5h-378q1 55 14.5 104.5t48 100.5t87 88t139.5 60.5t199 23.5q107 0 194 -20.5t156 -65t107 -121.5t38 -182v-704h-378v126h-20q-23 -58 -89 -99.5
t-176 -41.5zM555 253q46 0 81.5 26t35.5 68v96h-104q-55 0 -89 -26t-34 -69q0 -44 32.5 -69.5t77.5 -25.5z" />
    <glyph glyph-name="b" unicode="b" horiz-adv-x="1265" 
d="M827 -9q-112 0 -192 49.5t-108 132.5h-20v-173h-407v1437h407v-530h20q28 83 108 131.5t192 48.5q180 0 281.5 -129.5t101.5 -377.5v-80q0 -248 -101.5 -378.5t-281.5 -130.5zM648 295q65 0 103 54.5t38 159.5v59q0 105 -38 159t-103 54q-63 0 -102 -54t-39 -159v-59
q0 -105 39 -159.5t102 -54.5z" />
    <glyph glyph-name="c" unicode="c" horiz-adv-x="1123" 
d="M51 514v64q0 235 142 378t387 143q228 0 361 -124.5t135 -329.5h-359q-2 65 -35.5 108.5t-87.5 43.5q-60 0 -97 -59.5t-37 -158.5v-60q0 -117 35.5 -178t99.5 -61q118 0 122 149h359q-1 -95 -27.5 -171.5t-72 -127.5t-109 -85.5t-135.5 -50t-154 -15.5q-242 0 -384.5 138
t-142.5 397z" />
    <glyph glyph-name="d" unicode="d" horiz-adv-x="1266" 
d="M439 1087q112 0 192 -48.5t109 -131.5h19v530h407v-1437h-407v173h-19q-29 -83 -109 -132.5t-192 -49.5q-178 0 -281 132.5t-103 376.5v80q0 244 102.5 375.5t281.5 131.5zM617 781q-63 0 -102 -54.5t-39 -158.5v-59q0 -105 39 -159.5t102 -54.5q64 0 103 54.5t39 159.5
v59q0 105 -39 159t-103 54z" />
    <glyph glyph-name="e" unicode="e" horiz-adv-x="1154" 
d="M595 -21q-120 0 -218.5 32t-172 95.5t-113.5 166t-40 235.5v66q0 132 42.5 234.5t116 165t167.5 94t203 31.5q236 0 379.5 -140.5t143.5 -384.5v-113h-659v-46q0 -70 44.5 -109t104.5 -39q62 0 104 29t43 78h360q-1 -52 -18 -104.5t-56 -105.5t-95.5 -93.5t-143.5 -66
t-192 -25.5zM444 671h274q0 68 -36.5 109.5t-97.5 41.5q-62 0 -101 -42t-39 -109z" />
    <glyph glyph-name="f" unicode="f" horiz-adv-x="848" 
d="M203 0v778h-168v300h168v106q0 172 97.5 241t321.5 69q45 0 81.5 -1.5t61.5 -4t28 -2.5v-262q-33 3 -78 3q-122 0 -122 -78v-71h200v-300h-188v-778h-402z" />
    <glyph glyph-name="g" unicode="g" horiz-adv-x="1257" 
d="M606 -123q151 0 151 168v145h-20q-28 -76 -106 -122.5t-192 -46.5q-179 0 -279.5 132t-100.5 385v32q0 253 100.5 385t279.5 132q114 0 192.5 -48.5t105.5 -131.5h20v171h405v-1075q0 -93 -36 -164.5t-92 -114.5t-133 -70.5t-150.5 -37.5t-153.5 -10q-132 0 -233.5 28.5
t-161.5 77.5t-90.5 109.5t-30.5 130.5h378q20 -75 147 -75zM618 781q-63 0 -100.5 -54t-37.5 -159v-57q0 -105 37.5 -159.5t100.5 -54.5t101 54.5t38 159.5v57q0 105 -38 159t-101 54z" />
    <glyph glyph-name="h" unicode="h" horiz-adv-x="1261" 
d="M100 0v1437h405v-540h20q10 33 32 65t57.5 62.5t90.5 49.5t121 19q163 0 256.5 -101t93.5 -294v-698h-405v596q0 50 -12.5 85t-33.5 51.5t-41.5 23t-43.5 6.5q-55 0 -95 -42.5t-40 -126.5v-593h-405z" />
    <glyph glyph-name="i" unicode="i" horiz-adv-x="617" 
d="M100 1356q0 83 60 133t149 50q88 0 148 -50t60 -133q0 -84 -60 -134t-148 -50q-89 0 -149 50t-60 134zM106 0v1078h405v-1078h-405z" />
    <glyph glyph-name="j" unicode="j" horiz-adv-x="616" 
d="M100 1356q0 83 60 133t149 50q88 0 148 -50t60 -133q0 -84 -60 -134t-148 -50q-89 0 -149 50t-60 134zM510 1078v-1095q0 -178 -123 -269.5t-328 -91.5q-79 0 -125 6v272q19 -3 47 -3q59 0 92 20t33 70v1091h404z" />
    <glyph glyph-name="k" unicode="k" horiz-adv-x="1244" 
d="M501 339v-339h-406v1437h406v-751h20l233 392h449l-344 -461l370 -617h-467l-219 399z" />
    <glyph glyph-name="l" unicode="l" horiz-adv-x="616" 
d="M105 0v1437h406v-1437h-406z" />
    <glyph glyph-name="m" unicode="m" horiz-adv-x="1855" 
d="M95 0v1078h391v-189h20q9 35 29.5 68.5t55.5 65t90 51t123 19.5q117 0 191 -55t97 -147h16q23 77 108.5 139.5t215.5 62.5q157 0 245 -96.5t88 -254.5v-742h-405v609q0 163 -119 163q-54 0 -86.5 -39.5t-32.5 -125.5v-607h-384v609q0 163 -119 163t-119 -163v-609h-405z
" />
    <glyph glyph-name="n" unicode="n" horiz-adv-x="1256" 
d="M95 0v1078h391v-181h20q24 75 103.5 135.5t207.5 60.5q164 0 256.5 -100.5t92.5 -294.5v-698h-405v596q0 50 -12.5 85t-33.5 51.5t-41 23t-42 6.5q-54 0 -93 -42.5t-39 -126.5v-593h-405z" />
    <glyph glyph-name="o" unicode="o" horiz-adv-x="1181" 
d="M592 1099q251 0 394.5 -144.5t143.5 -382.5v-54q0 -259 -141 -399t-397 -140q-258 0 -399.5 139.5t-141.5 397.5v53q0 238 144.5 384t396.5 146zM591 807q-128 0 -128 -227v-81q0 -228 128 -228q127 0 127 228v81q0 227 -127 227z" />
    <glyph glyph-name="p" unicode="p" horiz-adv-x="1260" 
d="M822 -9q-111 0 -189.5 49t-110.5 133h-20v-531h-407v1436h407v-171h20q32 84 110 132t190 48q180 0 281.5 -129.5t101.5 -377.5v-80q0 -248 -101.5 -378.5t-281.5 -130.5zM643 295q65 0 103 54.5t38 159.5v59q0 105 -38 159t-103 54q-63 0 -102 -54t-39 -159v-59
q0 -105 39 -159.5t102 -54.5z" />
    <glyph glyph-name="q" unicode="q" horiz-adv-x="1261" 
d="M439 1087q113 0 194.5 -48.5t106.5 -131.5h19v171h407v-1436h-407v531h-19q-25 -83 -106.5 -132.5t-194.5 -49.5q-179 0 -281.5 131t-102.5 378v80q0 248 102.5 377.5t281.5 129.5zM617 781q-63 0 -102 -54.5t-39 -158.5v-59q0 -105 39 -159.5t102 -54.5q64 0 103 54.5
t39 159.5v59q0 105 -39 159t-103 54z" />
    <glyph glyph-name="r" unicode="r" horiz-adv-x="889" 
d="M95 0v1078h406v-173h20q13 67 75 127.5t156 60.5q84 0 114 -12v-338q-39 17 -136 17q-215 0 -215 -227v-533h-420z" />
    <glyph glyph-name="s" unicode="s" horiz-adv-x="1097" 
d="M70 740q0 93 39 164t107 112.5t152.5 62t184.5 20.5q134 0 234.5 -35t161.5 -112.5t61 -190.5h-348q-7 38 -35 63t-78 25q-48 0 -73 -21.5t-25 -51.5q0 -25 17.5 -42.5t54 -28.5t66.5 -17t83 -13.5t76 -11.5q150 -27 226 -100.5t76 -206.5q0 -176 -131 -276.5
t-377 -100.5q-243 0 -370 96t-127 247h392q3 -40 36.5 -65.5t85.5 -25.5q47 0 74 21t27 51q0 22 -14.5 37.5t-45 25t-58 15.5t-73.5 13.5t-71 12.5q-328 68 -328 333z" />
    <glyph glyph-name="t" unicode="t" horiz-adv-x="872" 
d="M206 1078v239h389v-239h202v-300h-202v-378q0 -107 128 -107q54 0 74 2v-285q-73 -10 -171 -10q-223 0 -327.5 70t-104.5 240v468h-164v300h176z" />
    <glyph glyph-name="u" unicode="u" horiz-adv-x="1255" 
d="M1160 1078v-1078h-391v181h-20q-24 -75 -103.5 -135.5t-207.5 -60.5q-164 0 -256 99.5t-92 293.5v700h405v-598q0 -50 12.5 -85t33.5 -51.5t40.5 -23t41.5 -6.5q54 0 93 42.5t39 126.5v595h405z" />
    <glyph glyph-name="v" unicode="v" horiz-adv-x="1145" 
d="M318 0l-323 1078h437l125 -731h16l153 731h424l-356 -1078h-476z" />
    <glyph glyph-name="w" unicode="w" horiz-adv-x="1726" 
d="M1721 1078l-269 -1078h-433l-149 670h-14l-148 -670h-437l-266 1078h410l102 -709h16l142 709h380l144 -709h16l102 709h404z" />
    <glyph glyph-name="x" unicode="x" horiz-adv-x="1188" 
d="M729 0l-137 305h-16l-137 -305h-416l297 540l-319 538h459l136 -302h16l137 302h438l-335 -538l314 -540h-437z" />
    <glyph glyph-name="y" unicode="y" horiz-adv-x="1171" 
d="M1172 1078q-296 -963 -307 -994l-27 -71q-79 -209 -215.5 -300t-370.5 -91q-117 0 -193 16v267q30 -8 101 -8q90 0 132 27.5t42 85.5v7l-335 1061h446l135 -766h16l146 766h430z" />
    <glyph glyph-name="z" unicode="z" horiz-adv-x="1050" 
d="M70 0v201l424 561v16h-406v300h889v-236l-386 -525v-16h409v-301h-930z" />
    <glyph glyph-name="braceleft" unicode="{" horiz-adv-x="820" 
d="M339 588v-34q111 -10 169.5 -73t59.5 -176l1 -166q1 -109 34.5 -142t146.5 -33h40v-282h-146q-250 0 -357 87.5t-108 306.5l-1 133q-1 104 -31 147.5t-117 43.5v342q87 0 117.5 44t30.5 147v118q0 216 107 301t358 85h147v-281h-41q-113 0 -147 -33.5t-34 -142.5v-176
q0 -109 -56.5 -157.5t-172.5 -58.5z" />
    <glyph glyph-name="bar" unicode="|" horiz-adv-x="820" 
d="M598 -318h-376v1755h376v-1755z" />
    <glyph glyph-name="braceright" unicode="}" horiz-adv-x="820" 
d="M481 554v34q-116 10 -172.5 58.5t-56.5 157.5v176q0 109 -34 142.5t-147 33.5h-41v281h147q251 0 358 -85t107 -301v-118q0 -103 30.5 -147t117.5 -44v-342q-87 0 -117 -43.5t-31 -147.5l-1 -133q-1 -219 -108 -306.5t-357 -87.5h-146v282h40q113 0 146.5 33t34.5 142
l1 166q1 113 59.5 176t169.5 73z" />
    <glyph glyph-name="asciitilde" unicode="~" horiz-adv-x="1117" 
d="M762 470q-64 0 -122 23.5t-93.5 52t-76 52t-73.5 23.5q-21 0 -36 -9t-23.5 -21.5t-13.5 -33t-7 -36t-3 -37.5h-277q-10 130 23 233t108.5 163.5t181.5 60.5q53 0 99 -15.5t78.5 -37.5t61.5 -44.5t59.5 -38t60.5 -15.5q23 0 40 10t25 21.5t13 35t5.5 34.5t1.5 36h279
q8 -213 -76.5 -335t-234.5 -122z" />
    <glyph glyph-name="cent" unicode="&#xa2;" 
d="M627 -20v146q-226 11 -357.5 148t-131.5 386v64q0 225 131 366t358 154v141h110v-143q197 -19 310.5 -139t115.5 -302h-321q-8 56 -35 97.5t-70 59.5v-551q50 14 72.5 54t32.5 104h321q-1 -104 -34 -185.5t-92 -133t-134 -81t-166 -37.5v-148h-110zM509 665
q0 -105 31 -169.5t87 -85.5v548q-53 -22 -85.5 -82t-32.5 -146v-65z" />
    <glyph glyph-name="sterling" unicode="&#xa3;" 
d="M147 614v160h187q-30 97 -30 190q0 189 154 306t415 117q150 0 252 -29v-287q-94 25 -229 25q-86 0 -139 -40t-53 -104q0 -80 30 -178h327v-160h-279q7 -37 7 -64q1 -91 -35.5 -148.5t-81.5 -81.5v-16h542v-304h-1067v275q102 9 177 73t75 166q0 48 -13 100h-239z" />
    <glyph glyph-name="yen" unicode="&#xa5;" 
d="M857 0h-420v192h-286v110h286v109l-8 17h-278v110h225l-397 827h455l213 -537h15l216 537h438l-403 -827h230v-110h-284l-2 -4v-122h286v-110h-286v-192z" />
    <glyph glyph-name="dieresis" unicode="&#xa8;" horiz-adv-x="948" 
d="M690 1187q-62 0 -101 39t-39 102t39 103.5t101 40.5q64 0 107 -40.5t43 -103.5q0 -62 -42.5 -101.5t-107.5 -39.5zM251 1187q-63 0 -103 39t-40 102t40.5 103.5t102.5 40.5q64 0 105.5 -40.5t41.5 -103.5t-41.5 -102t-105.5 -39z" />
    <glyph glyph-name="copyright" unicode="&#xa9;" horiz-adv-x="1640" 
d="M820 -64q-209 0 -374 92t-255.5 253.5t-90.5 362.5v103q0 142 54 268t148 218t229 145.5t289 53.5q155 0 290 -54t228.5 -146.5t147.5 -218.5t54 -266v-103q0 -151 -53 -282t-146.5 -224.5t-228.5 -147.5t-292 -54zM247 643q0 -246 158 -403.5t414 -157.5
q255 0 414.5 157.5t159.5 403.5v103q0 112 -42.5 211t-116.5 172t-182 115.5t-233 42.5t-232.5 -42.5t-181.5 -115t-116 -172t-42 -211.5v-103zM450 632v99q0 102 53 179t137.5 115t185.5 38q144 0 245.5 -86.5t103.5 -210.5h-232q0 41 -32 68.5t-84 27.5q-61 0 -95.5 -29
t-34.5 -108v-94q0 -68 37 -99t93 -31q52 0 84 21.5t32 61.5h230q-1 -125 -97.5 -206t-249.5 -81q-157 0 -266.5 89.5t-109.5 245.5z" />
    <glyph glyph-name="guillemotleft" unicode="&#xab;" horiz-adv-x="1350" 
d="M608 565l344 404h335l-339 -403v-6l339 -405h-344l-335 402v8zM69 565l344 404h335l-339 -403v-6l339 -405h-344l-335 402v8z" />
    <glyph glyph-name="registered" unicode="&#xae;" horiz-adv-x="915" 
d="M458 648q-177 0 -293 112t-116 281v57q0 161 117 271t292 110q173 0 290.5 -111t117.5 -270v-57q0 -169 -115 -281t-293 -112zM458 755q128 0 212 83t84 205v51q0 114 -85 196t-211 82q-127 0 -211 -81.5t-84 -196.5v-51q0 -123 83.5 -205.5t211.5 -82.5zM405 884h-122
v385h212q70 0 110 -35.5t40 -93.5q0 -42 -20.5 -73.5t-52.5 -44.5l93 -138h-142l-77 120h-41v-120zM405 1176v-87h58q23 0 38.5 10.5t15.5 32.5q0 44 -52 44h-60z" />
    <glyph glyph-name="acute" unicode="&#xb4;" horiz-adv-x="950" 
d="M221 1190l233 318h321l-286 -318h-268z" />
    <glyph glyph-name="cedilla" unicode="&#xb8;" horiz-adv-x="950" 
d="M360 -237v134l40 103h209l-40 -94q78 0 123.5 -49t45.5 -128q0 -206 -277 -206q-95 0 -141 16v149q44 -13 105 -13q99 0 99 39q0 25 -19.5 37t-86.5 12h-58z" />
    <glyph glyph-name="guillemotright" unicode="&#xbb;" horiz-adv-x="1350" 
d="M1287 565v-8l-335 -402h-344l339 405v6l-339 403h335zM748 565v-8l-335 -402h-344l339 405v6l-339 403h335z" />
    <glyph glyph-name="quoteright" unicode="&#x2019;" horiz-adv-x="557" 
d="M364 774h-284l53 591h344z" />
    <glyph glyph-name="circumflex" unicode="&#x2c6;" horiz-adv-x="946" 
d="M70 1190l257 323h292l257 -323h-290l-108 159h-10l-108 -159h-290z" />
    <glyph glyph-name="ring" unicode="&#x2da;" horiz-adv-x="943" 
d="M472 1183q-109 0 -180.5 67t-71.5 175q0 107 71 173t181 66t180.5 -66t70.5 -173q0 -108 -71 -175t-180 -67zM389 1423q0 -36 23 -58.5t59 -22.5t59.5 22.5t23.5 58.5t-23.5 59t-59.5 23t-59 -23t-23 -59z" />
    <glyph glyph-name="tilde" unicode="&#x2dc;" horiz-adv-x="950" 
d="M613 1227q-49 0 -91 17.5t-65.5 38t-50.5 38t-49 17.5q-33 0 -48 -27.5t-15 -55.5h-202q0 112 64.5 189.5t173.5 77.5q48 0 90.5 -17.5t67.5 -38t55 -38t56 -17.5q69 0 69 95h202q0 -122 -73 -200.5t-184 -78.5z" />
    <glyph glyph-name="uni0401" unicode="&#x401;" horiz-adv-x="1193" 
d="M796 1448q-56 0 -93.5 38t-37.5 94t38 95.5t93 39.5q57 0 96.5 -39.5t39.5 -95.5t-39.5 -94t-96.5 -38zM391 1448q-55 0 -92 38t-37 94q0 57 37 96t92 39q57 0 97.5 -39.5t40.5 -95.5t-40.5 -94t-97.5 -38zM1098 323v-323h-973v1365h973v-323h-558v-215h521v-292h-521
v-212h558z" />
    <glyph glyph-name="uni0410" unicode="&#x410;" horiz-adv-x="1376" 
d="M425 0h-415l414 1365h532l410 -1365h-448l-59 258h-373zM686 1018h-21l-110 -465h237z" />
    <glyph glyph-name="uni0411" unicode="&#x411;" horiz-adv-x="1302" 
d="M1251 452q0 -91 -31 -170.5t-90.5 -143.5t-158 -101t-223.5 -37h-623v1365h980v-328h-561v-151h198q126 0 225 -34.5t160 -95t92.5 -138t31.5 -166.5zM542 310h112q80 0 126.5 37t46.5 105q0 67 -47 104.5t-126 37.5h-112v-284z" />
    <glyph glyph-name="uni0412" unicode="&#x412;" horiz-adv-x="1335" 
d="M125 0v1365h659q200 0 321 -89t121 -246q0 -130 -76 -206t-182 -89v-19q54 -2 107 -21.5t101 -57t78 -102t30 -145.5q0 -122 -67 -212.5t-172.5 -134t-233.5 -43.5h-686zM540 1085v-256h130q75 0 112.5 37.5t37.5 91.5q0 57 -40.5 92t-111.5 35h-128zM540 581v-301h143
q88 0 132 43t44 110t-45 107.5t-133 40.5h-141z" />
    <glyph glyph-name="uni0413" unicode="&#x413;" horiz-adv-x="1135" 
d="M545 0h-420v1365h960v-328h-540v-1037z" />
    <glyph glyph-name="uni0414" unicode="&#x414;" horiz-adv-x="1550" 
d="M400 -286h-370v619h108q64 45 90.5 142t34.5 310l23 580h1064v-1032h160v-619h-370v286h-740v-286zM940 333v699h-297l-14 -314q-6 -143 -24 -222.5t-60 -142.5v-20h395z" />
    <glyph glyph-name="uni0415" unicode="&#x415;" horiz-adv-x="1193" 
d="M1098 323v-323h-973v1365h973v-323h-558v-215h521v-292h-521v-212h558z" />
    <glyph glyph-name="uni0416" unicode="&#x416;" horiz-adv-x="2067" 
d="M838 830v535h400v-535h19l362 535h458l-457 -648l439 -717h-476l-326 537h-19v-537h-400v537h-19l-326 -537h-466l430 702l-467 663h467l362 -535h19z" />
    <glyph glyph-name="uni0417" unicode="&#x417;" horiz-adv-x="1250" 
d="M457 550v300h163q64 0 104 30.5t40 78.5q0 57 -42.5 92t-112.5 35q-74 0 -119.5 -50t-45.5 -130h-383q8 227 155.5 354t402.5 127q242 0 394 -105t152 -272q0 -109 -75.5 -186.5t-197.5 -94.5v-21q133 -10 220 -96t87 -208q0 -197 -156.5 -312t-425.5 -115
q-255 0 -411 136t-156 358h377q0 -85 51.5 -135t140.5 -50q74 0 121.5 37t47.5 96q0 58 -47.5 94.5t-121.5 36.5h-162z" />
    <glyph glyph-name="uni0418" unicode="&#x418;" horiz-adv-x="1485" 
d="M960 0v737h-20l-435 -737h-380v1365h400v-735h20l435 735h380v-1365h-400z" />
    <glyph glyph-name="uni0419" unicode="&#x419;" horiz-adv-x="1485" 
d="M383 1780h212q0 -139 144 -139t144 139h212q0 -156 -95.5 -243t-260.5 -87q-163 0 -259.5 87t-96.5 243zM960 0v737h-20l-435 -737h-380v1365h400v-735h20l435 735h380v-1365h-400z" />
    <glyph glyph-name="uni041A" unicode="&#x41a;" horiz-adv-x="1409" 
d="M915 0l-351 537h-19v-537h-420v1365h420v-535h19l387 535h468l-479 -644l465 -721h-490z" />
    <glyph glyph-name="uni041B" unicode="&#x41b;" horiz-adv-x="1410" 
d="M230 785l6 580h1049v-1365h-420v1032h-257l-7 -319q-6 -278 -52 -439t-134.5 -229t-237.5 -68q-96 0 -142 23v350q23 -10 50 -10q80 0 111 95.5t34 349.5z" />
    <glyph glyph-name="uni041C" unicode="&#x41c;" horiz-adv-x="1723" 
d="M496 0h-371v1365h439l292 -609h14l293 609h435v-1365h-377v761h-19l-232 -502h-220l-234 502h-20v-761z" />
    <glyph glyph-name="uni041D" unicode="&#x41d;" horiz-adv-x="1485" 
d="M1360 0h-420v517h-395v-517h-420v1365h420v-515h395v515h420v-1365z" />
    <glyph glyph-name="uni041E" unicode="&#x41e;" horiz-adv-x="1427" 
d="M1358 613q0 -293 -168 -464.5t-476 -171.5t-476.5 172t-168.5 464v134q0 296 168.5 468t476.5 172t476 -173t168 -467v-134zM928 753q0 145 -56.5 223t-157.5 78q-102 0 -158.5 -78t-56.5 -223v-142q0 -146 56.5 -223.5t158.5 -77.5q101 0 157.5 77.5t56.5 223.5v142z
" />
    <glyph glyph-name="uni041F" unicode="&#x41f;" horiz-adv-x="1465" 
d="M1340 0h-420v1032h-375v-1032h-420v1365h1215v-1365z" />
    <glyph glyph-name="uni0420" unicode="&#x420;" horiz-adv-x="1293" 
d="M748 1365q125 0 223.5 -41.5t158 -112t90.5 -159.5t31 -189q0 -102 -31.5 -190t-92.5 -156.5t-160 -108t-225 -39.5h-198v-369h-419v1365h623zM827 863q0 93 -52 142.5t-141 49.5h-92v-384h92q88 0 140.5 50.5t52.5 141.5z" />
    <glyph glyph-name="uni0421" unicode="&#x421;" horiz-adv-x="1348" 
d="M499 745v-127q0 -146 52 -223.5t147 -77.5q90 0 139 64t49 166h397v-61q0 -230 -164.5 -369.5t-424.5 -139.5q-298 0 -461.5 173.5t-163.5 470.5v123q0 298 163 470.5t462 172.5q261 0 425 -139.5t164 -370.5v-59h-397q0 101 -49 165t-139 64q-95 0 -147 -77.5
t-52 -224.5z" />
    <glyph glyph-name="uni0422" unicode="&#x422;" horiz-adv-x="1148" 
d="M784 0h-420v1029h-347v336h1114v-336h-347v-1029z" />
    <glyph glyph-name="uni0423" unicode="&#x423;" horiz-adv-x="1274" 
d="M358 -23q-52 0 -99.5 5.5t-68.5 11.5l-22 6v318q47 -13 116 -13q102 0 162 66l-477 994h460l221 -568h19l203 568h433l-428 -941q-53 -117 -100.5 -193.5t-108.5 -137.5t-136.5 -88.5t-173.5 -27.5z" />
    <glyph glyph-name="uni0424" unicode="&#x424;" horiz-adv-x="1758" 
d="M1079 -10h-400v148q-292 14 -453.5 157.5t-161.5 394.5t161.5 394.5t453.5 157.5v133h400v-133q292 -14 453.5 -157.5t161.5 -394.5t-161.5 -394.5t-453.5 -157.5v-148zM469 690q0 -231 220 -245v490q-220 -14 -220 -245zM1289 690q0 231 -220 245v-490q220 14 220 245z
" />
    <glyph glyph-name="uni0425" unicode="&#x425;" horiz-adv-x="1299" 
d="M1324 1365l-406 -678l405 -687h-467l-211 395h-16l-209 -395h-443l386 687l-388 678h489l188 -413h17l188 413h467z" />
    <glyph glyph-name="uni0426" unicode="&#x426;" horiz-adv-x="1540" 
d="M1340 1365v-1032h160v-619h-370v286h-1005v1365h420v-1032h375v1032h420z" />
    <glyph glyph-name="uni0427" unicode="&#x427;" horiz-adv-x="1445" 
d="M1320 0h-420v512h-18q-46 -25 -128 -42t-151 -17q-241 0 -372 135t-131 382v395h420v-365q0 -108 49 -158.5t154 -50.5q45 0 97 13.5t80 32.5v528h420v-1365z" />
    <glyph glyph-name="uni0428" unicode="&#x428;" horiz-adv-x="2060" 
d="M125 0v1365h420v-1032h275v1032h420v-1032h275v1032h420v-1365h-1810z" />
    <glyph glyph-name="uni0429" unicode="&#x429;" horiz-adv-x="2135" 
d="M2095 -286h-370v286h-1600v1365h420v-1032h275v1032h420v-1032h275v1032h420v-1032h160v-619z" />
    <glyph glyph-name="uni042A" unicode="&#x42a;" horiz-adv-x="1460" 
d="M905 0h-623v1032h-265v333h684v-389h198q126 0 225 -38.5t160 -106t92.5 -153.5t31.5 -186q0 -98 -31 -185t-90.5 -156.5t-158 -110t-223.5 -40.5zM791 310q89 0 141 47t52 135q0 86 -52.5 134t-140.5 48h-97v-364h97z" />
    <glyph glyph-name="uni042B" unicode="&#x42b;" horiz-adv-x="1860" 
d="M1246 492q0 -98 -31 -185t-90.5 -156.5t-158 -110t-223.5 -40.5h-618v1365h419v-389h193q126 0 225 -38.5t160 -106t92.5 -153.5t31.5 -186zM1735 0h-420v1365h420v-1365zM629 674h-92v-364h92q89 0 141 47t52 135q0 86 -52.5 134t-140.5 48z" />
    <glyph glyph-name="uni042C" unicode="&#x42c;" horiz-adv-x="1303" 
d="M748 0h-623v1365h419v-389h198q126 0 225 -38.5t160 -106t92.5 -153.5t31.5 -186q0 -98 -31 -185t-90.5 -156.5t-158 -110t-223.5 -40.5zM634 310q89 0 141 47t52 135q0 86 -52.5 134t-140.5 48h-97v-364h97z" />
    <glyph glyph-name="uni042D" unicode="&#x42d;" horiz-adv-x="1333" 
d="M639 -23q-260 0 -424.5 139.5t-164.5 369.5v21h399q10 -82 55 -136t131 -54q83 0 134.5 56.5t64.5 163.5h-381v293h381q-15 106 -66 161.5t-133 55.5q-84 0 -128.5 -50.5t-56.5 -128.5h-400v9q0 231 164 370.5t425 139.5q299 0 462 -172.5t163 -470.5v-123
q0 -297 -163.5 -470.5t-461.5 -173.5z" />
    <glyph glyph-name="uni042E" unicode="&#x42e;" horiz-adv-x="1992" 
d="M1923 613q0 -293 -165 -464.5t-469 -171.5q-273 0 -433.5 144.5t-186.5 395.5h-124v-517h-420v1365h420v-515h125q27 251 187 394t432 143q304 0 469 -173t165 -467v-134zM1084 753v-142q0 -146 54 -223.5t151 -77.5q96 0 150 77.5t54 223.5v142q0 145 -54 223t-150 78
q-97 0 -151 -77.5t-54 -223.5z" />
    <glyph glyph-name="uni042F" unicode="&#x42f;" horiz-adv-x="1363" 
d="M819 429h-107l-214 -429h-453l274 511q-116 60 -176.5 159.5t-60.5 222.5q0 95 31.5 178t93 149.5t163.5 105.5t231 39h637v-1365h-419v429zM697 726h130v334h-130q-89 0 -141 -43.5t-52 -123.5q0 -79 52.5 -123t140.5 -44z" />
    <glyph glyph-name="uni0430" unicode="&#x430;" horiz-adv-x="1175" 
d="M417 -15q-162 0 -260 86.5t-98 240.5q0 153 102.5 241t289.5 88h231v79q0 42 -27.5 66t-73.5 24q-48 0 -77 -26.5t-29 -67.5h-378q1 55 14.5 104.5t48 100.5t87 88t139.5 60.5t199 23.5q107 0 194 -20.5t156 -65t107 -121.5t38 -182v-704h-378v126h-20q-23 -58 -89 -99.5
t-176 -41.5zM565 253q46 0 81.5 26t35.5 68v96h-104q-55 0 -89 -26t-34 -69q0 -44 32.5 -69.5t77.5 -25.5z" />
    <glyph glyph-name="uni0431" unicode="&#x431;" horiz-adv-x="1221" 
d="M727 983q88 0 166 -32t137.5 -90.5t94.5 -149t35 -200.5q0 -261 -141.5 -397t-401.5 -136q-263 0 -404.5 148t-141.5 441v90q0 121 13.5 216.5t50 185t96 152t155 106t223.5 58.5l149 17q71 8 71 45h296q0 -295 -261 -324l-175 -19q-87 -9 -142.5 -30t-89 -59
t-47.5 -88.5t-16 -127.5h20q43 94 118 144t195 50zM616 706q-133 0 -133 -217q0 -219 133 -219q132 0 132 219q0 217 -132 217z" />
    <glyph glyph-name="uni0432" unicode="&#x432;" horiz-adv-x="1192" 
d="M105 0v1078h633q157 0 252.5 -70t95.5 -195q0 -102 -59.5 -162t-143.5 -71v-15q42 -1 84 -16.5t80 -45t61.5 -80.5t23.5 -115q0 -96 -53 -167.5t-136 -106t-184 -34.5h-654zM500 847v-187h87q59 0 89 28t30 69q0 40 -32 65t-88 25h-86zM500 454v-223h98q69 0 103.5 31
t34.5 80q0 51 -35.5 81.5t-104.5 30.5h-96z" />
    <glyph glyph-name="uni0433" unicode="&#x433;" horiz-adv-x="931" 
d="M881 788h-371v-788h-405v1078h776v-290z" />
    <glyph glyph-name="uni0434" unicode="&#x434;" horiz-adv-x="1345" 
d="M375 -285h-350v575h90q45 35 63.5 128.5t22.5 267.5l8 392h961v-788h140v-575h-350v285h-585v-285zM770 290v498h-211l-3 -116q-4 -144 -16.5 -227.5t-43.5 -134.5v-20h274z" />
    <glyph glyph-name="uni0435" unicode="&#x435;" horiz-adv-x="1174" 
d="M605 -21q-120 0 -218.5 32t-172 95.5t-113.5 166t-40 235.5v66q0 132 42.5 234.5t116 165t167.5 94t203 31.5q236 0 379.5 -140.5t143.5 -384.5v-113h-659v-46q0 -70 44.5 -109t104.5 -39q62 0 104 29t43 78h360q-1 -52 -18 -104.5t-56 -105.5t-95.5 -93.5t-143.5 -66
t-192 -25.5zM454 671h274q0 68 -36.5 109.5t-97.5 41.5q-62 0 -101 -42t-39 -109z" />
    <glyph glyph-name="uni0436" unicode="&#x436;" horiz-adv-x="1808" 
d="M704 683v395h390v-395h16l223 395h429l-319 -490l345 -588h-447l-231 419h-16v-419h-390v419h-14l-233 -419h-437l339 577l-329 501h435l225 -395h14z" />
    <glyph glyph-name="uni0437" unicode="&#x437;" horiz-adv-x="1134" 
d="M563 243q54 0 89 25.5t35 66.5q0 40 -35 65.5t-89 25.5h-119v229h120q46 0 75 25.5t29 65.5q0 38 -29.5 62t-73.5 24q-61 0 -96 -39t-35 -103h-364q6 192 136.5 300t356.5 108q215 0 349.5 -83.5t134.5 -216.5q0 -86 -60 -148t-157 -75v-17q106 -8 175 -76.5t69 -165.5
q0 -157 -138 -248t-374 -91q-226 0 -363.5 112t-137.5 296h360q0 -65 38 -103.5t104 -38.5z" />
    <glyph glyph-name="uni0438" unicode="&#x438;" horiz-adv-x="1281" 
d="M796 0v522h-20l-296 -522h-375v1078h380v-522h20l296 522h375v-1078h-380z" />
    <glyph glyph-name="uni0439" unicode="&#x439;" horiz-adv-x="1281" 
d="M282 1576h212q0 -169 144 -169t144 169h212q0 -170 -95.5 -265t-260.5 -95q-163 0 -259.5 95t-96.5 265zM796 0v522h-20l-296 -522h-375v1078h380v-522h20l296 522h375v-1078h-380z" />
    <glyph glyph-name="uni043A" unicode="&#x43a;" horiz-adv-x="1259" 
d="M528 414h-18v-414h-405v1078h405v-392h16l238 392h449l-321 -498l347 -580h-467z" />
    <glyph glyph-name="uni043B" unicode="&#x43b;" horiz-adv-x="1246" 
d="M216 694l6 384h919v-1078h-405v788h-169l-4 -143q-3 -92 -8.5 -163t-18 -143t-32.5 -125t-50.5 -99.5t-72 -75.5t-98 -45.5t-127.5 -16.5q-32 0 -62.5 5t-44.5 10l-14 6v334q22 -9 52 -9q38 0 63.5 24.5t39 77t19 114t7.5 155.5z" />
    <glyph glyph-name="uni043C" unicode="&#x43c;" horiz-adv-x="1560" 
d="M470 575v-575h-365v1078h479l190 -464h20l189 464h472v-1078h-365v575h-19l-182 -412h-216l-183 412h-20z" />
    <glyph glyph-name="uni043D" unicode="&#x43d;" horiz-adv-x="1281" 
d="M771 0v404h-261v-404h-405v1078h405v-384h261v384h405v-1078h-405z" />
    <glyph glyph-name="uni043E" unicode="&#x43e;" horiz-adv-x="1201" 
d="M602 1099q251 0 394.5 -144.5t143.5 -382.5v-54q0 -259 -141 -399t-397 -140q-258 0 -399.5 139.5t-141.5 397.5v53q0 238 144.5 384t396.5 146zM601 807q-128 0 -128 -227v-81q0 -228 128 -228q127 0 127 228v81q0 227 -127 227z" />
    <glyph glyph-name="uni043F" unicode="&#x43f;" horiz-adv-x="1271" 
d="M761 0v788h-251v-788h-405v1078h1061v-1078h-405z" />
    <glyph glyph-name="uni0440" unicode="&#x440;" horiz-adv-x="1276" 
d="M832 -9q-111 0 -189.5 49t-110.5 133h-20v-531h-407v1436h407v-171h20q32 84 110 132t190 48q180 0 281.5 -129.5t101.5 -377.5v-80q0 -248 -101.5 -378.5t-281.5 -130.5zM653 295q65 0 103 54.5t38 159.5v59q0 105 -38 159t-103 54q-63 0 -102 -54t-39 -159v-59
q0 -105 39 -159.5t102 -54.5z" />
    <glyph glyph-name="uni0441" unicode="&#x441;" horiz-adv-x="1147" 
d="M61 514v64q0 235 142 378t387 143q228 0 361 -124.5t135 -329.5h-359q-2 65 -35.5 108.5t-87.5 43.5q-60 0 -97 -59.5t-37 -158.5v-60q0 -117 35.5 -178t99.5 -61q118 0 122 149h359q-1 -95 -27.5 -171.5t-72 -127.5t-109 -85.5t-135.5 -50t-154 -15.5q-242 0 -384.5 138
t-142.5 397z" />
    <glyph glyph-name="uni0442" unicode="&#x442;" horiz-adv-x="1027" 
d="M987 788h-271v-788h-405v788h-271v290h947v-290z" />
    <glyph glyph-name="uni0443" unicode="&#x443;" horiz-adv-x="1191" 
d="M1182 1078q-296 -963 -307 -994l-27 -71q-79 -209 -215.5 -300t-370.5 -91q-117 0 -193 16v267q30 -8 101 -8q90 0 132 27.5t42 85.5v7l-335 1061h446l135 -766h16l146 766h430z" />
    <glyph glyph-name="uni0444" unicode="&#x444;" horiz-adv-x="1650" 
d="M1018 -358h-386v342q-274 8 -422.5 147.5t-148.5 399.5v22q0 242 151.5 388t419.5 153v243h386v-243q274 -8 422.5 -147.5t148.5 -400.5v-22q0 -241 -151.5 -387t-419.5 -153v-342zM1197 563q0 235 -189 249v-546q189 14 189 247v50zM453 514q0 -234 189 -248v546
q-189 -14 -189 -248v-50z" />
    <glyph glyph-name="uni0445" unicode="&#x445;" horiz-adv-x="1208" 
d="M739 0l-137 305h-16l-137 -305h-416l297 540l-319 538h459l136 -302h16l137 302h438l-335 -538l314 -540h-437z" />
    <glyph glyph-name="uni0446" unicode="&#x446;" horiz-adv-x="1341" 
d="M1306 -285h-350v285h-851v1078h405v-788h251v788h405v-788h140v-575z" />
    <glyph glyph-name="uni0447" unicode="&#x447;" horiz-adv-x="1236" 
d="M1131 0h-409v386h-20q-81 -66 -258 -66q-167 0 -260.5 96t-93.5 257v405h405v-340q0 -57 29.5 -88.5t84.5 -31.5q84 0 113 39v421h409v-1078z" />
    <glyph glyph-name="uni0448" unicode="&#x448;" horiz-adv-x="1765" 
d="M105 0v1078h395v-788h185v788h395v-788h185v788h395v-1078h-1555z" />
    <glyph glyph-name="uni0449" unicode="&#x449;" horiz-adv-x="1845" 
d="M1810 -285h-350v285h-1355v1078h395v-788h185v788h395v-788h185v788h395v-788h150v-575z" />
    <glyph glyph-name="uni044A" unicode="&#x44a;" horiz-adv-x="1341" 
d="M872 0h-592v788h-240v290h645v-304h187q197 0 313 -104.5t116 -281.5q0 -178 -116 -283t-313 -105zM781 489h-103v-204h103q52 0 84 28t32 74t-31.5 74t-84.5 28z" />
    <glyph glyph-name="uni044B" unicode="&#x44b;" horiz-adv-x="1705" 
d="M1195 0v1078h405v-1078h-405zM105 0v1078h405v-304h182q197 0 313 -104.5t116 -281.5q0 -178 -116 -283t-313 -105h-587zM606 489h-103v-204h103q52 0 84 28t32 74t-31.5 74t-84.5 28z" />
    <glyph glyph-name="uni044C" unicode="&#x44c;" horiz-adv-x="1166" 
d="M105 0v1078h405v-304h187q197 0 313 -104.5t116 -281.5q0 -178 -116 -283t-313 -105h-592zM606 489h-103v-204h103q52 0 84 28t32 74t-31.5 74t-84.5 28z" />
    <glyph glyph-name="uni044D" unicode="&#x44d;" horiz-adv-x="1155" 
d="M562 -21q-78 0 -147 14t-130.5 45.5t-107.5 78.5t-76.5 116t-38.5 155h363q15 -108 120 -108q108 0 134 152h-261v210h262q-11 72 -46.5 113.5t-87.5 41.5q-47 0 -80.5 -30.5t-42.5 -80.5h-362q15 188 148 300.5t351 112.5q247 0 390.5 -143t143.5 -378v-64
q0 -259 -144 -397t-388 -138z" />
    <glyph glyph-name="uni044E" unicode="&#x44e;" horiz-adv-x="1711" 
d="M1122 -21q-219 0 -352.5 110t-161.5 315h-98v-404h-405v1078h405v-384h102q34 187 167.5 296t342.5 109q247 0 387.5 -144.5t140.5 -382.5v-54q0 -259 -138 -399t-390 -140zM1121 807q-118 0 -118 -227v-81q0 -228 118 -228q117 0 117 228v81q0 227 -117 227z" />
    <glyph glyph-name="uni044F" unicode="&#x44f;" horiz-adv-x="1219" 
d="M709 0v329h-46l-194 -329h-429l244 402q-96 33 -148.5 114t-52.5 196q0 163 117 264.5t312 101.5h602v-1078h-405zM594 584h115v214h-115q-52 0 -84 -29.5t-32 -77.5q0 -49 31.5 -78t84.5 -29z" />
    <glyph glyph-name="uni0451" unicode="&#x451;" horiz-adv-x="1174" 
d="M803 1187q-62 0 -101 39t-39 102t39 103.5t101 40.5q64 0 107 -40.5t43 -103.5q0 -62 -42.5 -101.5t-107.5 -39.5zM364 1187q-63 0 -103 39t-40 102t40.5 103.5t102.5 40.5q64 0 105.5 -40.5t41.5 -103.5t-41.5 -102t-105.5 -39zM605 -21q-120 0 -218.5 32t-172 95.5
t-113.5 166t-40 235.5v66q0 132 42.5 234.5t116 165t167.5 94t203 31.5q236 0 379.5 -140.5t143.5 -384.5v-113h-659v-46q0 -70 44.5 -109t104.5 -39q62 0 104 29t43 78h360q-1 -52 -18 -104.5t-56 -105.5t-95.5 -93.5t-143.5 -66t-192 -25.5zM454 671h274q0 68 -36.5 109.5
t-97.5 41.5q-62 0 -101 -42t-39 -109z" />
    <glyph glyph-name="figuredash" unicode="&#x2012;" 
d="M1295 380h-1295v360h1295v-360z" />
    <glyph glyph-name="endash" unicode="&#x2013;" horiz-adv-x="1256" 
d="M1256 380h-1256v360h1256v-360z" />
    <glyph glyph-name="emdash" unicode="&#x2014;" horiz-adv-x="2048" 
d="M2048 380h-2048v360h2048v-360z" />
    <glyph glyph-name="quoteleft" unicode="&#x2018;" horiz-adv-x="557" 
d="M193 1365h284l-53 -591h-344z" />
    <glyph glyph-name="quotesinglbase" unicode="&#x201a;" horiz-adv-x="557" 
d="M364 -494h-284l53 591h344z" />
    <glyph glyph-name="quotedblleft" unicode="&#x201c;" horiz-adv-x="1035" 
d="M193 1365h284l-53 -591h-344zM671 1365h284l-53 -591h-344z" />
    <glyph glyph-name="quotedblright" unicode="&#x201d;" horiz-adv-x="1035" 
d="M842 774h-284l53 591h344zM364 774h-284l53 591h344z" />
    <glyph glyph-name="quotedblbase" unicode="&#x201e;" horiz-adv-x="1035" 
d="M842 -494h-284l53 591h344zM364 -494h-284l53 591h344z" />
    <glyph glyph-name="ellipsis" unicode="&#x2026;" horiz-adv-x="1897" 
d="M1373 192q0 89 64 153t153 64t153 -64t64 -153t-64 -153t-153 -64t-153 64t-64 153zM732 192q0 89 64 153t153 64t153 -64t64 -153t-64 -153t-153 -64t-153 64t-64 153zM90 192q0 89 64 153t153 64t153 -64t64 -153t-64 -153t-153 -64t-153 64t-64 153z" />
    <glyph glyph-name="perthousand" unicode="&#x2030;" horiz-adv-x="2497" 
d="M395 664q-151 0 -240.5 90.5t-89.5 242.5v52q0 152 89.5 242.5t240.5 90.5t240.5 -90.5t89.5 -242.5v-52q0 -152 -89.5 -242.5t-240.5 -90.5zM471 -1h-274l597 749l468 617h274l-578 -725zM395 888q30 0 47 29t17 80v52q0 51 -17 80t-47 29t-47 -29t-17 -80v-52
q0 -51 17 -80t47 -29zM2071 -19q-151 0 -240.5 90.5t-89.5 242.5v52q0 152 89.5 242.5t240.5 90.5t240.5 -90.5t89.5 -242.5v-52q0 -152 -89.5 -242.5t-240.5 -90.5zM1338 -19q-151 0 -240.5 90.5t-89.5 242.5v52q0 152 89.5 242.5t240.5 90.5t240.5 -90.5t89.5 -242.5v-52
q0 -152 -89.5 -242.5t-240.5 -90.5zM2071 205q30 0 47 29t17 80v52q0 51 -17 80t-47 29t-47 -29t-17 -80v-52q0 -51 17 -80t47 -29zM1338 205q30 0 47 29t17 80v52q0 51 -17 80t-47 29t-47 -29t-17 -80v-52q0 -51 17 -80t47 -29z" />
    <glyph glyph-name="guilsinglleft" unicode="&#x2039;" horiz-adv-x="803" 
d="M69 565l344 404h335l-339 -403v-6l339 -405h-344l-335 402v8z" />
    <glyph glyph-name="guilsinglright" unicode="&#x203a;" horiz-adv-x="803" 
d="M740 565v-8l-335 -402h-344l339 405v6l-339 403h335z" />
    <glyph glyph-name="slash.frac" horiz-adv-x="1239" 
d="M-50 -1l597 749l468 617h274l-578 -725l-487 -641h-274z" />
    <glyph glyph-name="Euro" unicode="&#x20ac;" 
d="M95 502v110h95q-1 10 -1 29v82q0 19 1 29h-95v110h108q51 237 259.5 381t510.5 144q125 0 217 -20v-318q-69 18 -213 18q-130 0 -223 -55t-135 -150h462v-110h-490q-2 -24 -2 -36v-68q0 -12 2 -36h490v-110h-462q42 -95 135 -150t223 -55q144 0 213 18v-318
q-92 -20 -217 -20q-302 0 -510.5 144t-259.5 381h-108z" />
    <glyph glyph-name="trademark" unicode="&#x2122;" horiz-adv-x="1703" 
d="M503 635h-270v513h-200v217h670v-217h-200v-513zM1008 635h-238v730h270l130 -258h9l131 258h268v-730h-243v359h-12l-86 -190h-129l-87 190h-13v-359z" />
    <glyph glyph-name="uni0414.locl" horiz-adv-x="1540" 
d="M400 0v-286h-370v619h133l328 1032h551l335 -1032h133v-619h-370v286h-740zM743 935l-146 -602h315l-150 602h-19z" />
    <glyph glyph-name="uni0416.locl" horiz-adv-x="2087" 
d="M831 830v535h420v-535h19l377 535h438l-442 -597l454 -768h-486l-265 493l-95 -120v-373h-420v373l-95 120l-265 -493h-481l450 762l-447 603h442l377 -535h19z" />
    <glyph glyph-name="uni041A.locl" horiz-adv-x="1401" 
d="M1399 1365l-453 -598l465 -767h-486l-285 493l-95 -120v-373h-420v1365h420v-535h19l397 535h438z" />
    <glyph glyph-name="uni041B.locl" horiz-adv-x="1364" 
d="M953 1365l401 -1365h-490l-191 935h-19l-185 -935h-459l392 1365h551z" />
    <glyph glyph-name="i.locl" horiz-adv-x="617" 
d="M132 1359q0 68 48 116t116 48t116 -48t48 -116t-48 -116t-116 -48t-116 48t-48 116zM106 0v1078h405v-1078h-405z" />
    <glyph glyph-name="uni0431.locl" horiz-adv-x="1201" 
d="M732 1411q71 0 71 44h296q0 -333 -311 -333h-265q-75 0 -75 -44q0 -12 10 -20t34.5 -12.5t46 -7t64.5 -5t70 -5.5q75 -7 139.5 -26t126.5 -57.5t105 -93.5t69.5 -139.5t26.5 -189.5v-4q0 -259 -141 -399t-397 -140q-258 0 -399.5 139.5t-141.5 397.5v3q0 75 20 143.5
t70.5 131t126.5 95.5v13q-76 34 -114.5 91.5t-38.5 147.5q0 132 88.5 201t254.5 69h264zM473 499q0 -228 128 -228q127 0 127 228v31q0 227 -127 227q-128 0 -128 -227v-31z" />
    <glyph glyph-name="uni0432.locl" horiz-adv-x="1179" 
d="M592 -21q-253 0 -392 131.5t-139 375.5v461q0 225 137.5 362.5t378.5 137.5t376 -99.5t135 -289.5v-21q0 -185 -149 -269v-6q179 -97 179 -311v-25q0 -214 -140 -330.5t-386 -116.5zM463 979v-126h94q129 0 129 145v24q0 133 -110 133q-58 0 -85.5 -48t-27.5 -128z
M591 271q128 0 128 146v14q0 77 -38 114.5t-118 37.5h-100v-132q0 -180 128 -180z" />
    <glyph glyph-name="uni0433.locl" horiz-adv-x="931" 
d="M881 788h-371v-788h-405v1078h776v-290z" />
    <glyph glyph-name="uni0433.locl" horiz-adv-x="1115" 
d="M1035 774q0 -80 -24.5 -142t-70.5 -103.5t-102.5 -68t-130.5 -43.5q-26 -6 -71 -16q-43 -10 -62 -14.5t-46.5 -12t-38.5 -13.5t-23.5 -15t-16.5 -20t-4 -25q0 -70 104 -70q50 0 83.5 26.5t35.5 64.5h392q0 -151 -129.5 -247t-377.5 -96q-236 0 -367 97t-131 248
q0 264 309 329q174 37 219 55q71 28 71 72q0 69 -101 69q-47 0 -75.5 -25.5t-34.5 -62.5h-348q0 168 127.5 253t340.5 85q96 0 179 -19t149.5 -56.5t105 -101.5t38.5 -148z" />
    <glyph glyph-name="uni0434.locl" horiz-adv-x="1345" 
d="M375 -285h-350v575h90q45 35 63.5 128.5t22.5 267.5l8 392h961v-788h140v-575h-350v285h-585v-285zM770 290v498h-211l-3 -116q-4 -144 -16.5 -227.5t-43.5 -134.5v-20h274z" />
    <glyph glyph-name="uni0434.locl" horiz-adv-x="1267" 
d="M606 -123q151 0 151 168v145h-20q-28 -76 -106 -122.5t-192 -46.5q-179 0 -279.5 132t-100.5 385v32q0 253 100.5 385t279.5 132q114 0 192.5 -48.5t105.5 -131.5h20v171h405v-1075q0 -93 -36 -164.5t-92 -114.5t-133 -70.5t-150.5 -37.5t-153.5 -10q-132 0 -233.5 28.5
t-161.5 77.5t-90.5 109.5t-30.5 130.5h378q20 -75 147 -75zM618 781q-63 0 -100.5 -54t-37.5 -159v-57q0 -105 37.5 -159.5t100.5 -54.5t101 54.5t38 159.5v57q0 105 -38 159t-101 54z" />
    <glyph glyph-name="uni0436.locl" horiz-adv-x="1847" 
d="M671 399l-199 -399h-452l338 609l-327 469h449l213 -392h20v751h406v-751h20l213 392h449l-326 -461l352 -617h-467l-199 399l-42 -60v-339h-406v339z" />
    <glyph glyph-name="uni0437.locl" horiz-adv-x="1149" 
d="M571 -338q-233 0 -372.5 118.5t-148.5 318.5h380q4 -66 40.5 -105t92.5 -39q65 0 100 42.5t35 122.5q0 85 -39.5 122.5t-130.5 37.5h-132v275h134q137 0 137 128q0 125 -112 125q-100 0 -120 -118h-367q13 196 141.5 303.5t353.5 107.5q230 0 362 -104t132 -272
q0 -96 -57 -176.5t-142 -105.5v-19q117 -33 179 -116.5t62 -209.5q0 -198 -147 -317t-381 -119z" />
    <glyph glyph-name="uni043A.locl" horiz-adv-x="1259" 
d="M511 339v-339h-406v1437h406v-751h20l233 392h449l-344 -461l370 -617h-467l-219 399z" />
    <glyph glyph-name="uni043B.locl" horiz-adv-x="1165" 
d="M837 1078l323 -1078h-437l-125 731h-16l-153 -731h-424l356 1078h476z" />
    <glyph glyph-name="uni043D.locl" horiz-adv-x="1281" 
d="M771 0v404h-261v-404h-405v1078h405v-384h261v384h405v-1078h-405z" />
    <glyph glyph-name="uni043F.locl" horiz-adv-x="1271" 
d="M761 0v788h-251v-788h-405v1078h1061v-1078h-405z" />
    <glyph glyph-name="uni043F.locl" horiz-adv-x="1276" 
d="M105 0v1078h391v-181h20q24 75 103.5 135.5t207.5 60.5q164 0 256.5 -100.5t92.5 -294.5v-698h-405v596q0 50 -12.5 85t-33.5 51.5t-41 23t-42 6.5q-54 0 -93 -42.5t-39 -126.5v-593h-405z" />
    <glyph glyph-name="uni0442.locl" horiz-adv-x="1027" 
d="M987 788h-271v-788h-405v788h-271v290h947v-290z" />
    <glyph glyph-name="uni0442.locl" horiz-adv-x="1875" 
d="M105 0v1078h391v-189h20q9 35 29.5 68.5t55.5 65t90 51t123 19.5q117 0 191 -55t97 -147h16q23 77 108.5 139.5t215.5 62.5q157 0 245 -96.5t88 -254.5v-742h-405v609q0 163 -119 163q-54 0 -86.5 -39.5t-32.5 -125.5v-607h-384v609q0 163 -119 163t-119 -163v-609h-405z
" />
    <glyph glyph-name="uni0438.locl" horiz-adv-x="1275" 
d="M1170 1078v-1078h-391v181h-20q-24 -75 -103.5 -135.5t-207.5 -60.5q-164 0 -256 99.5t-92 293.5v700h405v-598q0 -50 12.5 -85t33.5 -51.5t40.5 -23t41.5 -6.5q54 0 93 42.5t39 126.5v595h405z" />
    <glyph glyph-name="uni0439.locl" horiz-adv-x="1275" 
d="M279 1578h212q0 -169 144 -169t144 169h212q0 -170 -95.5 -265t-260.5 -95q-163 0 -259.5 95t-96.5 265zM1170 1078v-1078h-391v181h-20q-24 -75 -103.5 -135.5t-207.5 -60.5q-164 0 -256 99.5t-92 293.5v700h405v-598q0 -50 12.5 -85t33.5 -51.5t40.5 -23t41.5 -6.5
q54 0 93 42.5t39 126.5v595h405z" />
    <glyph glyph-name="uni0446.locl" horiz-adv-x="1359" 
d="M1170 1078v-788h154v-575h-350v285h-195v181h-20q-24 -75 -103.5 -135.5t-207.5 -60.5q-164 0 -256 99.5t-92 293.5v700h405v-598q0 -50 12.5 -85t33.5 -51.5t40.5 -23t41.5 -6.5q54 0 93 42.5t39 126.5v595h405z" />
    <glyph glyph-name="uni0447.locl" horiz-adv-x="1236" 
d="M1131 0h-409v386h-20q-81 -66 -258 -66q-167 0 -260.5 96t-93.5 257v405h405v-340q0 -57 29.5 -88.5t84.5 -31.5q84 0 113 39v421h409v-1078z" />
    <glyph glyph-name="uni0448.locl" horiz-adv-x="1875" 
d="M1770 1078v-1078h-391v189h-20q-9 -35 -29.5 -68.5t-55.5 -65t-90 -51t-123 -19.5q-117 0 -191 55t-97 147h-16q-23 -77 -108.5 -139.5t-215.5 -62.5q-157 0 -245 96.5t-88 254.5v742h405v-609q0 -163 119 -163q54 0 86.5 39.5t32.5 125.5v607h384v-609q0 -163 119 -163
t119 163v609h405z" />
    <glyph glyph-name="uni0449.locl" horiz-adv-x="1984" 
d="M1770 1078v-788h179v-575h-350v285h-220v189h-20q-9 -35 -29.5 -68.5t-55.5 -65t-90 -51t-123 -19.5q-117 0 -191 55t-97 147h-16q-23 -77 -108.5 -139.5t-215.5 -62.5q-157 0 -245 96.5t-88 254.5v742h405v-609q0 -163 119 -163q54 0 86.5 39.5t32.5 125.5v607h384v-609
q0 -163 119 -163t119 163v609h405z" />
    <glyph glyph-name="uni044C.locl" horiz-adv-x="1190" 
d="M626 -29q-246 0 -386 114t-140 352v641h405v-289h146q242 0 370.5 -109.5t128.5 -300.5q0 -186 -141.5 -297t-382.5 -111zM602 512h-97v-117q0 -68 32.5 -105t88.5 -37q54 0 87 36t33 93q0 58 -37 94t-107 36z" />
    <glyph glyph-name="uni044A.locl" horiz-adv-x="1370" 
d="M806 -29q-246 0 -386 114t-140 352v351h-240v290h645v-289h146q242 0 370.5 -109.5t128.5 -300.5q0 -186 -141.5 -297t-382.5 -111zM782 512h-97v-117q0 -68 32.5 -105t88.5 -37q54 0 87 36t33 93q0 58 -37 94t-107 36z" />
    <glyph glyph-name="uni044E.locl" horiz-adv-x="1711" 
d="M1122 -21q-219 0 -352.5 110t-161.5 315h-98v-404h-405v1437h405v-743h102q34 187 167.5 296t342.5 109q247 0 387.5 -144.5t140.5 -382.5v-54q0 -259 -138 -399t-390 -140zM1121 807q-118 0 -118 -227v-81q0 -228 118 -228q117 0 117 228v81q0 227 -117 227z" />
    <glyph glyph-name="glyph220" horiz-adv-x="612" 
d="M89 988q0 89 64 153t153 64t153 -64t64 -153t-64 -153t-153 -64t-153 64t-64 153zM89 331q0 89 64 153t153 64t153 -64t64 -153t-64 -153t-153 -64t-153 64t-64 153z" />
    <glyph glyph-name="zero.dnom" horiz-adv-x="728" 
d="M364 -19q-151 0 -240.5 90.5t-89.5 242.5v52q0 152 89.5 242.5t240.5 90.5t240.5 -90.5t89.5 -242.5v-52q0 -152 -89.5 -242.5t-240.5 -90.5zM364 205q30 0 47 29t17 80v52q0 51 -17 80t-47 29t-47 -29t-17 -80v-52q0 -51 17 -80t47 -29z" />
    <glyph glyph-name="one.dnom" horiz-adv-x="593" 
d="M500 0h-295v429h-18l-146 -97v241l169 108h290v-681z" />
    <glyph glyph-name="two.dnom" horiz-adv-x="722" 
d="M296 434h-263v13q0 112 93 182t241 70q138 0 222 -61t84 -161q0 -54 -26 -93t-93 -93l-94 -77v-14h222v-200h-634v175l323 247q26 19 26 42q0 17 -13 28.5t-34 11.5q-25 0 -40 -14.5t-15 -38.5q0 -13 1 -17z" />
    <glyph glyph-name="three.dnom" horiz-adv-x="729" 
d="M293 266v148h42q55 0 55 46q0 20 -13 32t-35 12q-24 0 -38.5 -17t-14.5 -46h-254q12 258 344 258q131 0 216.5 -53.5t85.5 -135.5q0 -58 -36 -98t-95 -50v-17q65 -11 103.5 -51t38.5 -98q0 -97 -92 -156t-241 -59q-151 0 -239 69.5t-85 186.5h254q-1 -29 12.5 -45.5
t39.5 -16.5q21 0 35 13t14 33q0 45 -55 45h-42z" />
    <glyph glyph-name="four.dnom" horiz-adv-x="728" 
d="M258 681h379v-414h71v-200h-71v-67h-264v67h-343v207q40 94 228 407zM270 267h103v207h-7q-75 -145 -96 -204v-3z" />
    <glyph glyph-name="five.dnom" horiz-adv-x="727" 
d="M53 220h259q3 -21 18 -34t37 -13q24 0 40 15.5t16 39.5q0 25 -15.5 41.5t-38.5 16.5q-30 0 -50 -26l-258 -2l39 423h555v-207h-325l-11 -88h15q54 58 148 58q100 0 158.5 -55.5t59.5 -150.5q0 -120 -87 -187.5t-241 -67.5q-145 0 -232 64.5t-87 172.5z" />
    <glyph glyph-name="six.dnom" horiz-adv-x="735" 
d="M395 699q114 0 198 -63t102 -162h-265q-10 43 -49 43q-40 0 -60.5 -40t-13.5 -104h9q34 42 74 60t97 18q99 0 160.5 -58t63.5 -152q2 -119 -89.5 -189.5t-248.5 -70.5q-156 0 -247 94t-91 259q0 171 95.5 268t264.5 97zM388 171q26 0 43.5 17.5t17.5 43.5t-17.5 43.5
t-43.5 17.5t-43.5 -17.5t-17.5 -43.5t17.5 -43.5t43.5 -17.5z" />
    <glyph glyph-name="seven.dnom" horiz-adv-x="665" 
d="M30 681h606v-233l-256 -448h-316l272 455v19h-306v207z" />
    <glyph glyph-name="eight.dnom" horiz-adv-x="772" 
d="M386 -19q-167 0 -260.5 56t-93.5 157q0 59 46 104t118 55v15q-136 43 -136 147q0 86 87.5 135t238.5 49t238.5 -49t87.5 -135q0 -104 -136 -147v-15q72 -10 118 -55t46 -104q0 -101 -93.5 -157t-260.5 -56zM386 436q21 0 33.5 13t12.5 35t-12.5 35.5t-33.5 13.5
t-33.5 -13.5t-12.5 -35.5t12.5 -35t33.5 -13zM386 160q24 0 37 14t13 39t-13.5 39.5t-36.5 14.5t-36.5 -14.5t-13.5 -39.5t13 -39t37 -14z" />
    <glyph glyph-name="nine.dnom" horiz-adv-x="735" 
d="M53 206h265q10 -43 49 -43q40 0 60.5 40t13.5 104h-9q-34 -42 -74 -60t-97 -18q-99 0 -160.5 58t-63.5 152q-2 119 89.5 189.5t248.5 70.5t247.5 -94.5t90.5 -258.5q0 -171 -95.5 -268t-264.5 -97q-114 0 -198 63t-102 162zM360 509q-26 0 -43.5 -17.5t-17.5 -43.5
t17.5 -43.5t43.5 -17.5t43.5 17.5t17.5 43.5t-17.5 43.5t-43.5 17.5z" />
    <glyph glyph-name="plus.dnom" horiz-adv-x="754" 
d="M506 218v-181h-258v181h-178v245h178v181h258v-181h178v-245h-178z" />
    <glyph glyph-name="equal.dnom" horiz-adv-x="771" 
d="M708 382h-645v236h645v-236zM708 64h-645v237h645v-237z" />
    <glyph glyph-name="parenleft.dnom" horiz-adv-x="464" 
d="M145 733h306q-116 -169 -116 -397t116 -397h-306q-62 67 -97 172.5t-35 224.5t35 224.5t97 172.5z" />
    <glyph glyph-name="parenright.dnom" horiz-adv-x="464" 
d="M13 733h306q62 -67 97 -172.5t35 -224.5t-35 -224.5t-97 -172.5h-306q116 169 116 397t-116 397z" />
    <glyph glyph-name="zero.numr" horiz-adv-x="728" 
d="M364 665q-151 0 -240.5 90.5t-89.5 242.5v52q0 152 89.5 242.5t240.5 90.5t240.5 -90.5t89.5 -242.5v-52q0 -152 -89.5 -242.5t-240.5 -90.5zM364 889q30 0 47 29t17 80v52q0 51 -17 80t-47 29t-47 -29t-17 -80v-52q0 -51 17 -80t47 -29z" />
    <glyph glyph-name="one.numr" horiz-adv-x="593" 
d="M500 684h-295v429h-18l-146 -97v241l169 108h290v-681z" />
    <glyph glyph-name="two.numr" horiz-adv-x="722" 
d="M296 1118h-263v13q0 112 93 182t241 70q138 0 222 -61t84 -161q0 -54 -26 -93t-93 -93l-94 -77v-14h222v-200h-634v175l323 247q26 19 26 42q0 17 -13 28.5t-34 11.5q-25 0 -40 -14.5t-15 -38.5q0 -13 1 -17z" />
    <glyph glyph-name="three.numr" horiz-adv-x="729" 
d="M293 950v148h42q55 0 55 46q0 20 -13 32t-35 12q-24 0 -38.5 -17t-14.5 -46h-254q12 258 344 258q131 0 216.5 -53.5t85.5 -135.5q0 -58 -36 -98t-95 -50v-17q65 -11 103.5 -51t38.5 -98q0 -97 -92 -156t-241 -59q-151 0 -239 69.5t-85 186.5h254q-1 -29 12.5 -45.5
t39.5 -16.5q21 0 35 13t14 33q0 45 -55 45h-42z" />
    <glyph glyph-name="four.numr" horiz-adv-x="728" 
d="M258 1365h379v-414h71v-200h-71v-67h-264v67h-343v207q40 94 228 407zM270 951h103v207h-7q-75 -145 -96 -204v-3z" />
    <glyph glyph-name="five.numr" horiz-adv-x="727" 
d="M53 904h259q3 -21 18 -34t37 -13q24 0 40 15.5t16 39.5q0 25 -15.5 41.5t-38.5 16.5q-30 0 -50 -26l-258 -2l39 423h555v-207h-325l-11 -88h15q54 58 148 58q100 0 158.5 -55.5t59.5 -150.5q0 -120 -87 -187.5t-241 -67.5q-145 0 -232 64.5t-87 172.5z" />
    <glyph glyph-name="six.numr" horiz-adv-x="735" 
d="M395 1383q114 0 198 -63t102 -162h-265q-10 43 -49 43q-40 0 -60.5 -40t-13.5 -104h9q34 42 74 60t97 18q99 0 160.5 -58t63.5 -152q2 -119 -89.5 -189.5t-248.5 -70.5q-156 0 -247 94t-91 259q0 171 95.5 268t264.5 97zM388 855q26 0 43.5 17.5t17.5 43.5t-17.5 43.5
t-43.5 17.5t-43.5 -17.5t-17.5 -43.5t17.5 -43.5t43.5 -17.5z" />
    <glyph glyph-name="seven.numr" horiz-adv-x="665" 
d="M30 1365h606v-233l-256 -448h-316l272 455v19h-306v207z" />
    <glyph glyph-name="eight.numr" horiz-adv-x="772" 
d="M386 665q-167 0 -260.5 56t-93.5 157q0 59 46 104t118 55v15q-136 43 -136 147q0 86 87.5 135t238.5 49t238.5 -49t87.5 -135q0 -104 -136 -147v-15q72 -10 118 -55t46 -104q0 -101 -93.5 -157t-260.5 -56zM386 1120q21 0 33.5 13t12.5 35t-12.5 35.5t-33.5 13.5
t-33.5 -13.5t-12.5 -35.5t12.5 -35t33.5 -13zM386 844q24 0 37 14t13 39t-13.5 39.5t-36.5 14.5t-36.5 -14.5t-13.5 -39.5t13 -39t37 -14z" />
    <glyph glyph-name="nine.numr" horiz-adv-x="735" 
d="M53 890h265q10 -43 49 -43q40 0 60.5 40t13.5 104h-9q-34 -42 -74 -60t-97 -18q-99 0 -160.5 58t-63.5 152q-2 119 89.5 189.5t248.5 70.5t247.5 -94.5t90.5 -258.5q0 -171 -95.5 -268t-264.5 -97q-114 0 -198 63t-102 162zM360 1193q-26 0 -43.5 -17.5t-17.5 -43.5
t17.5 -43.5t43.5 -17.5t43.5 17.5t17.5 43.5t-17.5 43.5t-43.5 17.5z" />
    <glyph glyph-name="plus.numr" horiz-adv-x="754" 
d="M506 902v-181h-258v181h-178v245h178v181h258v-181h178v-245h-178z" />
    <glyph glyph-name="equal.numr" horiz-adv-x="771" 
d="M708 1066h-645v236h645v-236zM708 748h-645v237h645v-237z" />
    <glyph glyph-name="parenleft.numr" horiz-adv-x="464" 
d="M145 1417h306q-116 -169 -116 -397t116 -397h-306q-62 67 -97 172.5t-35 224.5t35 224.5t97 172.5z" />
    <glyph glyph-name="parenright.numr" horiz-adv-x="464" 
d="M13 1417h306q62 -67 97 -172.5t35 -224.5t-35 -224.5t-97 -172.5h-306q116 169 116 397t-116 397z" />
    </font>
</defs>
</svg>
