<?xml version="1.0" standalone="no"?>
<!DOCTYPE svg PUBLIC "-//W3C//DTD SVG 1.1//EN" "http://www.w3.org/Graphics/SVG/1.1/DTD/svg11.dtd" >
<svg xmlns="http://www.w3.org/2000/svg" xmlns:xlink="http://www.w3.org/1999/xlink" version="1.1">
<metadata>
Created by FontForge 20190801 at Tue Nov  3 19:42:14 2020
 By root
(c) 2015-2020 Apple Inc. All rights reserved.
</metadata>
<defs>
<font id="SFCompactDisplay-Ultralight" horiz-adv-x="1087" >
  <font-face 
    font-family="SF Compact Display"
    font-weight="100"
    font-stretch="normal"
    units-per-em="2048"
    panose-1="2 11 3 4 3 2 2 6 2 4"
    ascent="1638"
    descent="-410"
    x-height="1033"
    cap-height="1359"
    bbox="-55 -461.056 2048 1741"
    underline-thickness="50"
    underline-position="-100"
    unicode-range="U+0020-2122"
  />
<missing-glyph horiz-adv-x="2048" 
 />
    <glyph glyph-name=".notdef" horiz-adv-x="2048" 
 />
    <glyph glyph-name="space" unicode=" " horiz-adv-x="423" 
 />
    <glyph glyph-name="exclam" unicode="!" horiz-adv-x="483" 
d="M204 1359h74l-6 -990h-61zM168 58q0 30 21.5 52t51.5 22t52 -22t22 -52t-22 -51.5t-52 -21.5t-51.5 21.5t-21.5 51.5z" />
    <glyph glyph-name="quotedbl" unicode="&#x22;" horiz-adv-x="578" 
d="M139 1359h74l-9 -448h-56zM365 1359h74l-9 -448h-56z" />
    <glyph glyph-name="numbersign" unicode="#" horiz-adv-x="1196" 
d="M1149 885h-253l-80 -401h258l-12 -62h-259l-87 -422h-64l87 422h-400l-88 -422h-63l86 422h-239l12 62h241l80 401h-246l12 62h247l86 417h64l-87 -417h401l86 417h64l-86 -417h253zM432 885l-79 -401h400l79 401h-400z" />
    <glyph glyph-name="dollar" unicode="$" 
d="M101 352h74q2 -36 13.5 -72.5t38 -75t64.5 -68t98 -50t134 -23.5v599l-76 22q-150 44 -227 121.5t-77 209.5q0 147 103 243t277 106v141h65v-141q176 -8 276 -100.5t102 -220.5h-73q-4 96 -80.5 170.5t-224.5 82.5v-578l44 -13q95 -28 156.5 -55t111.5 -67t72.5 -95.5
t22.5 -131.5q0 -154 -111.5 -251.5t-295.5 -108.5v-142h-65v141q-108 3 -192 38t-132 89t-72.5 112.5t-25.5 117.5zM479 750l44 -13v559q-143 -9 -224.5 -85t-81.5 -196q0 -109 63 -167t199 -98zM606 638l-18 6v-580q151 9 242 88.5t91 199.5q0 62 -19.5 107t-62.5 78
t-96.5 55t-136.5 46z" />
    <glyph glyph-name="percent" unicode="%" horiz-adv-x="1338" 
d="M261 764q-102 0 -159 81t-57 223v45q0 143 57.5 224t159.5 81q101 0 158 -81t57 -224v-45q0 -142 -57 -223t-159 -81zM261 823q69 0 108.5 65t39.5 180v45q0 116 -39.5 181.5t-108.5 65.5t-108.5 -65.5t-39.5 -181.5v-45q0 -115 39.5 -180t108.5 -65zM218 0h-76l513 680
l513 679h76l-513 -679zM1077 -14q-102 0 -159 81t-57 223v46q0 142 57.5 223t159.5 81q101 0 158 -81t57 -223v-46q0 -142 -57 -223t-159 -81zM1077 45q69 0 108.5 65t39.5 180v46q0 115 -39.5 180.5t-108.5 65.5t-108.5 -65.5t-39.5 -180.5v-46q0 -116 39.5 -180.5
t108.5 -64.5z" />
    <glyph glyph-name="ampersand" unicode="&#x26;" horiz-adv-x="1265" 
d="M1139 0l-166 179q-90 -101 -214.5 -153.5t-250.5 -52.5q-115 0 -211 41t-157 126t-61 199q0 48 12 91.5t41.5 91.5t86.5 94.5t139 88.5q1 0 20.5 10t39.5 21l20 10q-109 110 -155.5 185t-46.5 159q0 128 93.5 204.5t226.5 76.5q139 0 224.5 -83t85.5 -203
q0 -105 -77 -188.5t-241 -165.5l419 -449q42 63 71.5 173.5t33.5 225.5q2 42 2 72h68q0 -31 -2 -77q-5 -128 -37.5 -248t-85.5 -194l221 -234h-99zM501 776q161 78 226.5 149.5t65.5 156.5q0 97 -66 160.5t-173 63.5q-104 0 -174.5 -61.5t-70.5 -158.5q0 -73 43 -137.5
t149 -172.5zM396 652q-243 -126 -243 -313q0 -129 101 -214.5t254 -85.5q113 0 227.5 49.5t189.5 138.5l-439 472q-86 -43 -90 -47z" />
    <glyph glyph-name="quotesingle" unicode="'" horiz-adv-x="352" 
d="M139 1359h74l-9 -448h-56z" />
    <glyph glyph-name="parenleft" unicode="(" horiz-adv-x="617" 
d="M511 1435h66q-51 -66 -95 -146.5t-85 -186.5t-65 -240.5t-24 -278.5q0 -143 23.5 -278t64.5 -244.5t85 -193.5t96 -158h-67q-67 81 -126 202t-102.5 302t-43.5 369q0 275 81 497t192 356z" />
    <glyph glyph-name="parenright" unicode=")" horiz-adv-x="617" 
d="M40 1435h66q111 -134 192 -356t81 -497q0 -188 -43.5 -369t-102.5 -302t-126 -202h-67q52 74 96 158t85 193.5t64.5 244.5t23.5 278q0 144 -24 278.5t-65 240.5t-85 186.5t-95 146.5z" />
    <glyph glyph-name="asterisk" unicode="*" horiz-adv-x="942" 
d="M502 670h-61l5 301l-266 -152l-29 53l271 143l-271 159l29 52l266 -169l-5 319h61l-6 -318l266 168l29 -52l-271 -159l271 -143l-29 -53l-266 152z" />
    <glyph glyph-name="plus" unicode="+" 
d="M575 522v-470h-64v470h-424v63h424v454h64v-454h425v-63h-425z" />
    <glyph glyph-name="comma" unicode="," horiz-adv-x="339" 
d="M142 -266h-60l90 447h77z" />
    <glyph glyph-name="hyphen" unicode="-" horiz-adv-x="758" 
d="M694 530h-630v64h630v-64z" />
    <glyph glyph-name="hyphen" unicode="&#x2011;" horiz-adv-x="758" 
d="M694 530h-630v64h630v-64z" />
    <glyph glyph-name="hyphen" unicode="&#x2010;" horiz-adv-x="758" 
d="M694 530h-630v64h630v-64z" />
    <glyph glyph-name="period" unicode="." horiz-adv-x="423" 
d="M138 58q0 30 21.5 52t51.5 22q31 0 52.5 -22t21.5 -52t-21.5 -51.5t-52.5 -21.5q-30 0 -51.5 21.5t-21.5 51.5z" />
    <glyph glyph-name="slash" unicode="/" horiz-adv-x="617" 
d="M100 -291h-71l488 1726h71z" />
    <glyph glyph-name="zero" unicode="0" horiz-adv-x="1090" 
d="M107 634v91q0 319 118.5 492.5t319.5 173.5q200 0 319 -174t119 -492v-91q0 -318 -119 -492t-319 -174q-201 0 -319.5 173.5t-118.5 492.5zM180 728v-97q0 -287 100 -442.5t265 -155.5t265 155.5t100 442.5v97q0 287 -100 442.5t-265 155.5t-265 -155.5t-100 -442.5z" />
    <glyph glyph-name="one" unicode="1" horiz-adv-x="754" 
d="M512 0h-71v1281h-4q-270 -175 -339 -221v73q158 106 345 226h69v-1359z" />
    <glyph glyph-name="two" unicode="2" horiz-adv-x="1083" 
d="M209 1021h-71v4q0 67 25.5 131t73 117t126.5 85.5t176 32.5q187 0 292 -104.5t105 -255.5q0 -49 -13.5 -98.5t-30.5 -85t-49.5 -81.5t-52 -69.5t-57.5 -66.5l-493 -562v-4h728v-64h-823v59l540 616q44 51 65 78t52.5 76.5t45.5 99.5t14 107q0 117 -85.5 203.5
t-238.5 86.5q-152 0 -240 -90t-89 -211v-4z" />
    <glyph glyph-name="three" unicode="3" horiz-adv-x="1094" 
d="M383 669v65h118q163 0 255.5 87.5t92.5 217.5q0 124 -88 205.5t-239 81.5q-68 0 -124 -19.5t-91.5 -50t-60.5 -70t-35.5 -77t-10.5 -73.5h-71q0 56 21.5 114.5t65.5 114t124 91t183 35.5q184 0 291.5 -98t108.5 -248q0 -74 -25.5 -137.5t-68 -104.5t-93 -66.5
t-102.5 -30.5v-2q65 -5 127 -29.5t113.5 -66.5t83 -107.5t31.5 -143.5q1 -171 -125.5 -280t-319.5 -109q-105 0 -191 32.5t-139.5 85.5t-82.5 118.5t-30 134.5h72q1 -57 26.5 -111t71.5 -98t118 -70.5t158 -26.5q163 0 266.5 91t103.5 230q0 142 -113 228.5t-286 86.5h-135z
" />
    <glyph glyph-name="four" unicode="4" horiz-adv-x="1099" 
d="M707 1359h104v-958h202v-64h-202v-337h-66v337h-661v63q263 411 623 959zM161 401h584v895h-3q-219 -332 -581 -891v-4z" />
    <glyph glyph-name="five" unicode="5" horiz-adv-x="1103" 
d="M123 327h72q2 -37 15.5 -75.5t42 -78t68.5 -70.5t101 -50.5t134 -19.5q157 0 264.5 112t107.5 274q0 166 -104.5 276.5t-269.5 110.5q-121 0 -211.5 -59t-123.5 -126h-70l93 738h664v-63h-606l-79 -588h2q31 52 122 107.5t216 55.5q193 0 316 -127.5t123 -323.5
q0 -124 -57 -227.5t-160.5 -164t-231.5 -60.5q-108 0 -194 35.5t-134.5 91t-73.5 115t-26 117.5z" />
    <glyph glyph-name="six" unicode="6" horiz-adv-x="1070" 
d="M971 1046h-69q-6 47 -30 94.5t-63 90t-98.5 69t-128.5 26.5q-193 0 -305 -178.5t-113 -542.5h2q31 106 140.5 186t267.5 80q79 0 155.5 -31.5t137.5 -88t98 -143.5t37 -190q0 -200 -125 -324.5t-316 -124.5q-205 0 -329 152q-135 166 -135 470q0 210 35 365.5t101 249.5
t154 139t199 45q80 0 150.5 -31t118.5 -81t78.5 -110.5t37.5 -121.5zM187 450q0 -178 109 -298t267 -120q160 0 263.5 107.5t103.5 271.5q0 175 -107.5 285t-252.5 110q-101 0 -186.5 -39.5t-141 -122.5t-55.5 -194z" />
    <glyph glyph-name="seven" unicode="7" horiz-adv-x="1045" 
d="M109 1359h811v-68l-589 -1291h-78l595 1291v3h-739v65z" />
    <glyph glyph-name="eight" unicode="8" horiz-adv-x="1110" 
d="M554 -32q-198 0 -326 110t-128 283q0 81 30.5 148.5t78.5 109.5t98 67t98 32v6q-41 9 -82.5 31.5t-81.5 59.5t-65 95.5t-25 128.5q0 154 112.5 252.5t291.5 98.5t291.5 -98.5t112.5 -252.5q0 -70 -25 -128.5t-65 -95.5t-82 -59.5t-82 -31.5v-6q48 -7 98 -32.5t98 -67.5
t78.5 -109.5t30.5 -147.5q0 -172 -128.5 -282.5t-327.5 -110.5zM555 747q142 0 236.5 81t94.5 206q0 131 -93.5 211.5t-237.5 80.5q-145 0 -238.5 -80.5t-93.5 -211.5q0 -125 95 -206t237 -81zM555 32q167 0 275 93.5t108 242.5q0 139 -107 230t-276 91q-170 0 -276.5 -91
t-106.5 -230q0 -149 107.5 -242.5t275.5 -93.5z" />
    <glyph glyph-name="nine" unicode="9" horiz-adv-x="1070" 
d="M110 318h69q6 -49 27 -96t58.5 -90.5t100.5 -70.5t141 -27q130 0 215.5 70.5t132.5 234t47 424.5h-2q-18 -53 -47 -99t-74 -87.5t-112 -65.5t-149 -24q-114 0 -210 51.5t-157.5 156.5t-61.5 246q0 195 123 322t306 127q103 0 184 -37t141.5 -114.5t93 -207t32.5 -305.5
q0 -395 -118.5 -575.5t-349.5 -180.5q-89 0 -163 31.5t-121 82.5t-74 111.5t-32 122.5zM879 908q0 182 -97.5 300.5t-263.5 118.5q-154 0 -256 -110.5t-102 -275.5q0 -176 105 -282.5t263 -106.5q144 0 247.5 104t103.5 252z" />
    <glyph glyph-name="colon" unicode=":" horiz-adv-x="404" 
d="M128 816q0 30 21.5 51.5t51.5 21.5t52 -21.5t22 -51.5t-22 -51.5t-52 -21.5t-51.5 21t-21.5 52zM128 79q0 30 21.5 52t51.5 22t52 -22t22 -52t-22 -51.5t-52 -21.5t-51.5 21.5t-21.5 51.5z" />
    <glyph glyph-name="semicolon" unicode=";" horiz-adv-x="415" 
d="M113 816q0 30 21 51.5t52 21.5q30 0 51.5 -21.5t21.5 -51.5q0 -31 -21.5 -52t-51.5 -21q-31 0 -52 21t-21 52zM132 -266h-60l89 447h78z" />
    <glyph glyph-name="less" unicode="&#x3c;" 
d="M140 471v71l772 541v-77l-706 -491v-11l706 -457v-77z" />
    <glyph glyph-name="equal" unicode="=" 
d="M953 693h-820v63h820v-63zM953 336h-820v63h820v-63z" />
    <glyph glyph-name="greater" unicode="&#x3e;" 
d="M947 542v-71l-772 -501v77l706 457v11l-706 491v77z" />
    <glyph glyph-name="question" unicode="?" horiz-adv-x="871" 
d="M61 1066q7 139 105 232t277 93q158 0 262 -84.5t104 -230.5q0 -104 -51.5 -179.5t-154.5 -152.5q-96 -72 -126.5 -130t-30.5 -133v-93h-71v101q0 90 39.5 156.5t146.5 147.5q93 71 134 133.5t41 147.5q0 120 -86 186.5t-213 66.5q-66 0 -119.5 -18t-87 -45.5t-56.5 -63.5
t-33 -69t-13 -65h-67zM341 58q0 30 21.5 52t51.5 22t51.5 -22t21.5 -52t-21.5 -51.5t-51.5 -21.5t-51.5 21.5t-21.5 51.5z" />
    <glyph glyph-name="at" unicode="@" horiz-adv-x="1634" 
d="M1242 176q-88 0 -147.5 44t-68.5 115h-5q-3 -14 -11 -31t-26 -40.5t-41 -42t-61 -32t-83 -13.5q-113 0 -185 78.5t-72 228.5v99q0 135 67 217t190 82q55 0 98.5 -17.5t66 -44t34 -48t14.5 -39.5h5v133h60v-471q0 -47 16 -81t42.5 -51t54 -24.5t58.5 -7.5q44 0 83 20
t72.5 61.5t53 115t19.5 170.5v39q0 123 -42.5 233t-121.5 194.5t-201 134.5t-270 50h-7q-296 0 -477.5 -192.5t-181.5 -523.5v-33q0 -161 51 -290.5t141 -212.5t209 -127t257 -44h9q167 0 294 43v-57q-107 -42 -294 -42h-9q-209 0 -371 82.5t-257 248t-95 393.5v46
q0 174 53 318t148 242t229 152t294 54h7q161 0 295 -55.5t220.5 -148.5t133.5 -212t47 -249v-54q0 -198 -85 -304t-210 -106zM608 490q0 -129 56.5 -192t143.5 -63q38 0 72 12t64.5 37t49 71t18.5 107v127q0 97 -53 166t-150 69q-93 0 -147 -66t-54 -181v-87z" />
    <glyph glyph-name="A" unicode="A" horiz-adv-x="1179" 
d="M139 0h-75l487 1359h76l488 -1359h-76l-163 463h-574zM592 1272h-5l-264 -748h531z" />
    <glyph glyph-name="B" unicode="B" horiz-adv-x="1207" 
d="M194 0v1359h431q186 0 292.5 -88t106.5 -244q0 -72 -24 -132t-61.5 -96.5t-76 -58.5t-75.5 -30v-5q61 -6 115 -28.5t99 -62.5t71.5 -103.5t26.5 -143.5q0 -169 -115 -268t-329 -99h-461zM265 1293v-562h355q142 0 236 73.5t94 212.5q0 133 -88.5 204.5t-247.5 71.5h-349z
M265 665v-599h376q186 0 285.5 78.5t99.5 220.5q0 148 -103.5 224t-264.5 76h-393z" />
    <glyph glyph-name="C" unicode="C" horiz-adv-x="1245" 
d="M209 808v-258q0 -106 25.5 -196.5t77 -163.5t138.5 -115t200 -42q179 0 291 99.5t112 245.5h70v-3q0 -82 -33.5 -155.5t-94 -129.5t-150 -89t-195.5 -33q-133 0 -233.5 46.5t-160 128.5t-89 186.5t-29.5 229.5v238q0 124 30.5 229.5t90.5 188t159 129.5t227 47
q110 0 201 -37t147.5 -96.5t87.5 -131t31 -145.5v-4h-69q0 61 -27 122t-75.5 112t-126 83t-169.5 32q-110 0 -195.5 -42t-137 -114.5t-77.5 -164t-26 -197.5z" />
    <glyph glyph-name="D" unicode="D" horiz-adv-x="1295" 
d="M194 1359h356q310 0 460 -178t150 -501q0 -159 -34.5 -282t-107 -213.5t-190.5 -137.5t-278 -47h-356v1359zM265 1293v-1227h286q274 0 405.5 160.5t131.5 453.5q0 290 -132.5 451.5t-404.5 161.5h-286z" />
    <glyph glyph-name="E" unicode="E" horiz-adv-x="1093" 
d="M965 66v-66h-771v1359h771v-66h-700v-563h666v-66h-666v-598h700z" />
    <glyph glyph-name="F" unicode="F" horiz-adv-x="1040" 
d="M265 0h-71v1359h760v-66h-689v-575h632v-66h-632v-652z" />
    <glyph glyph-name="G" unicode="G" horiz-adv-x="1262" 
d="M1111 1006h-68q-4 42 -20.5 84.5t-49 85.5t-77 76t-110 53.5t-142.5 20.5q-208 0 -321.5 -140t-113.5 -380v-236q0 -159 46 -277.5t148 -189t252 -70.5q178 0 290 96t112 264v193h-413v65h480v-258q0 -133 -62.5 -230.5t-168.5 -146t-241 -48.5q-131 0 -231 45.5
t-161 127.5t-91.5 190t-30.5 239v236q0 269 131.5 427t373.5 158q109 0 198.5 -34t145.5 -90t87.5 -123t36.5 -138z" />
    <glyph glyph-name="H" unicode="H" horiz-adv-x="1330" 
d="M1137 0h-71v682h-801v-682h-71v1359h71v-613h801v613h71v-1359z" />
    <glyph glyph-name="I" unicode="I" horiz-adv-x="493" 
d="M282 0h-71v1359h71v-1359z" />
    <glyph glyph-name="J" unicode="J" horiz-adv-x="926" 
d="M64 294h70q0 -32 8 -64t28 -66t49.5 -59.5t77.5 -42t108 -16.5q127 0 202 79t75 233v1001h71v-1002q0 -185 -94 -280.5t-256 -95.5q-73 0 -132.5 20t-97 52.5t-63 74.5t-36 83.5t-10.5 82.5z" />
    <glyph glyph-name="K" unicode="K" horiz-adv-x="1128" 
d="M1050 1359l-564 -608l597 -751h-92l-557 704l-169 -178v-526h-71v1359h71v-738h2l692 738h91z" />
    <glyph glyph-name="L" unicode="L" horiz-adv-x="1017" 
d="M954 65v-65h-760v1359h71v-1294h689z" />
    <glyph glyph-name="M" unicode="M" horiz-adv-x="1574" 
d="M260 0h-66v1359h72l519 -1171h4l521 1171h70v-1359h-66v1201h-4l-489 -1096h-68l-489 1096h-4v-1201z" />
    <glyph glyph-name="N" unicode="N" horiz-adv-x="1330" 
d="M264 0h-70v1359h74l794 -1233h4v1233h71v-1359h-74l-795 1233h-4v-1233z" />
    <glyph glyph-name="O" unicode="O" horiz-adv-x="1310" 
d="M1172 554q0 -269 -136.5 -427.5t-380.5 -158.5t-380.5 158.5t-136.5 427.5v249q0 269 136.5 428.5t380.5 159.5t380.5 -160t136.5 -430v-247zM1101 810q0 232 -120 374t-326 142t-326.5 -142t-120.5 -374v-263q0 -232 119.5 -373t327.5 -141q207 0 326.5 140.5
t119.5 373.5v263z" />
    <glyph glyph-name="P" unicode="P" horiz-adv-x="1141" 
d="M625 1359q202 0 312 -106.5t110 -292.5q0 -184 -110 -289.5t-312 -105.5h-360v-565h-71v1359h431zM974 960q0 158 -92 245.5t-260 87.5h-357v-663h342q176 0 271.5 85t95.5 245z" />
    <glyph glyph-name="Q" unicode="Q" horiz-adv-x="1310" 
d="M1150 -170h-81l-155 210q-110 -61 -259 -61q-245 0 -381 158.5t-136 428.5v237q0 270 136 429t381 159q244 0 380.5 -159.5t136.5 -428.5v-237q0 -164 -52 -289.5t-151 -199.5zM208 559q0 -233 119.5 -374t327.5 -141q123 0 218 52l-184 249h86l153 -212q83 67 128 177
t45 249v252q0 232 -120 373.5t-326 141.5t-326.5 -141.5t-120.5 -373.5v-252z" />
    <glyph glyph-name="R" unicode="R" horiz-adv-x="1184" 
d="M635 1359q188 0 298.5 -104t110.5 -275q0 -151 -80.5 -243.5t-213.5 -122.5l316 -614h-83l-309 600h-409v-600h-71v1359h441zM265 664h358q160 0 254 84.5t94 230.5t-93.5 231t-253.5 85h-359v-631z" />
    <glyph glyph-name="S" unicode="S" horiz-adv-x="1156" 
d="M112 342h73q1 -39 14 -79.5t43 -82t73.5 -73.5t112.5 -52.5t153 -20.5q172 0 278.5 85.5t106.5 218.5q0 125 -78 190t-251 112l-169 45q-151 39 -231 122t-80 222q0 163 117.5 262.5t314.5 99.5q196 0 309 -97t115 -241h-73q-2 49 -22.5 95t-60.5 86.5t-110 65.5t-159 25
q-166 0 -261.5 -81t-95.5 -215q0 -114 67 -178t206 -102l163 -44q96 -27 160 -55t115 -69.5t74.5 -100t23.5 -138.5q0 -171 -129.5 -272.5t-336.5 -101.5q-99 0 -179.5 24.5t-132 63.5t-86 89.5t-49.5 99.5t-15 97z" />
    <glyph glyph-name="T" unicode="T" horiz-adv-x="1072" 
d="M572 0h-71v1293h-446v66h962v-66h-445v-1293z" />
    <glyph glyph-name="U" unicode="U" horiz-adv-x="1327" 
d="M663 36q198 0 305 115.5t107 316.5v891h72v-894q0 -228 -127.5 -362.5t-356.5 -134.5q-228 0 -355.5 134.5t-127.5 362.5v894h71v-891q0 -199 108 -315.5t304 -116.5z" />
    <glyph glyph-name="V" unicode="V" horiz-adv-x="1202" 
d="M556 0l-493 1359h78l455 -1272h4l462 1272h77l-502 -1359h-81z" />
    <glyph glyph-name="W" unicode="W" horiz-adv-x="1723" 
d="M500 0h-79l-359 1359h78l321 -1253h4l358 1253h76l359 -1253h4l321 1253h77l-359 -1359h-79l-358 1244h-5z" />
    <glyph glyph-name="X" unicode="X" horiz-adv-x="1148" 
d="M1087 1359l-471 -682l467 -677h-86l-423 620h-4l-424 -620h-83l467 679l-468 680h86l425 -621h5l426 621h83z" />
    <glyph glyph-name="Y" unicode="Y" horiz-adv-x="1100" 
d="M586 0h-70v608l-473 751h85l420 -675h6l421 675h82l-471 -749v-610z" />
    <glyph glyph-name="Z" unicode="Z" horiz-adv-x="1153" 
d="M98 0v58l865 1233v4h-838v64h926v-58l-866 -1233v-5h868v-63h-955z" />
    <glyph glyph-name="bracketleft" unicode="[" horiz-adv-x="617" 
d="M231 1435h346v-62h-276v-1601h276v-63h-346v1726z" />
    <glyph glyph-name="backslash" unicode="\" horiz-adv-x="617" 
d="M588 -291h-71l-488 1726h71z" />
    <glyph glyph-name="bracketright" unicode="]" horiz-adv-x="617" 
d="M40 1435h346v-1726h-346v63h276v1601h-276v62z" />
    <glyph glyph-name="asciicircum" unicode="^" horiz-adv-x="751" 
d="M661 794h-69l-215 497h-4l-215 -497h-68l250 570h70z" />
    <glyph glyph-name="underscore" unicode="_" horiz-adv-x="852" 
d="M874 -188h-896v62h896v-62z" />
    <glyph glyph-name="grave" unicode="`" horiz-adv-x="786" 
d="M512 1203h-64l-252 297h80z" />
    <glyph glyph-name="a" unicode="a" horiz-adv-x="1009" 
d="M442 -18q-152 0 -244.5 83t-92.5 224q0 131 90 208.5t259 77.5h323v152q0 129 -75.5 194t-206.5 65q-238 0 -275 -208h-69q14 125 102 199t246 74q160 0 254 -81t94 -228v-742h-70v171h-4q-10 -27 -33.5 -56.5t-62.5 -61t-100.5 -51.5t-134.5 -20zM449 47q136 0 232 84
t96 216v165h-322q-137 0 -206 -60t-69 -162q0 -111 75 -177t194 -66z" />
    <glyph glyph-name="b" unicode="b" horiz-adv-x="1106" 
d="M588 -18q-76 0 -139 22t-102.5 58t-63.5 71.5t-37 71.5h-4v-205h-69v1435h70v-608h4q7 22 21 47.5t42.5 58t65 58t93 43t121.5 17.5q172 0 282.5 -119.5t110.5 -319.5v-190q0 -107 -32.5 -192.5t-87.5 -138.5t-125.5 -81t-149.5 -28zM586 47q64 0 121.5 24t104 70
t73.5 122t27 173v165q0 179 -93 281.5t-233 102.5q-107 0 -186.5 -54t-118 -139t-38.5 -188v-171q0 -169 94 -277.5t249 -108.5z" />
    <glyph glyph-name="c" unicode="c" horiz-adv-x="1032" 
d="M124 442v157q0 213 112 332.5t292 119.5q89 0 162 -28t119 -74t72 -101t30 -112h-69q-16 103 -98 176t-215 73q-151 0 -243 -105t-92 -294v-136q0 -194 91.5 -298t251.5 -104q139 0 214.5 67.5t92.5 163.5h68q-7 -55 -31 -105t-68 -94.5t-116.5 -71t-165.5 -26.5
q-188 0 -297.5 120t-109.5 340z" />
    <glyph glyph-name="d" unicode="d" horiz-adv-x="1106" 
d="M519 1051q76 0 138.5 -22.5t102 -58.5t63.5 -70.5t36 -70.5h4v606h70v-1435h-69v208h-4q-10 -30 -31.5 -63.5t-60 -72.5t-104.5 -64.5t-147 -25.5q-174 0 -283.5 120t-109.5 319v189q0 106 32 191.5t87 139t125.5 82t150.5 28.5zM521 985q-64 0 -121.5 -23.5t-104 -69.5
t-73.5 -122.5t-27 -173.5v-164q0 -180 92.5 -282.5t233.5 -102.5q106 0 185.5 54.5t118 140.5t38.5 188v168q0 167 -94 277t-248 110z" />
    <glyph glyph-name="e" unicode="e" horiz-adv-x="1045" 
d="M534 -18q-192 0 -301 124.5t-109 349.5v109q0 234 107.5 360t291.5 126t292 -126.5t108 -361.5v-50h-729v-55q0 -197 91.5 -304t249.5 -107q70 0 127 19.5t92.5 51t56.5 68t26 73.5h71q-6 -48 -31 -95t-68.5 -88.5t-115 -67.5t-159.5 -26zM194 576h658v4q0 190 -89.5 298
t-239.5 108t-239.5 -108t-89.5 -298v-4z" />
    <glyph glyph-name="f" unicode="f" horiz-adv-x="613" 
d="M218 0v971h-168v62h168v140q0 136 64.5 195t192.5 59q53 0 81 -7v-61q-35 5 -78 5q-98 0 -144 -43.5t-46 -148.5v-139h264v-62h-264v-971h-70z" />
    <glyph glyph-name="g" unicode="g" horiz-adv-x="1106" 
d="M531 -294q151 0 241.5 76t90.5 206v270h-4q-25 -91 -124.5 -157.5t-215.5 -66.5q-176 0 -285.5 120.5t-109.5 317.5v140q0 198 109.5 318.5t287.5 120.5q117 0 211.5 -62.5t126.5 -159.5h4v204h70v-1043q0 -160 -111 -254t-292 -94q-161 0 -265 76.5t-110 199.5h72
q8 -93 93.5 -152.5t210.5 -59.5zM524 986q-149 0 -239 -106.5t-90 -282.5v-113q0 -173 90.5 -279t238.5 -106t243.5 107t95.5 274v120q0 170 -95 278t-244 108z" />
    <glyph glyph-name="h" unicode="h" horiz-adv-x="1106" 
d="M173 0v1435h70v-602h4q28 88 115.5 153t223.5 65q159 0 258.5 -98.5t99.5 -274.5v-678h-70v670q0 138 -79 226.5t-217 88.5q-106 0 -184 -52t-114.5 -131.5t-36.5 -172.5v-629h-70z" />
    <glyph glyph-name="i" unicode="i" horiz-adv-x="427" 
d="M147 1308q0 28 19 47.5t47 19.5t47.5 -19.5t19.5 -47.5t-19.5 -47t-47.5 -19t-47 19t-19 47zM178 0v1033h70v-1033h-70z" />
    <glyph glyph-name="j" unicode="j" horiz-adv-x="427" 
d="M147 1308q0 28 19 47.5t47 19.5t47.5 -19.5t19.5 -47.5t-19.5 -47t-47.5 -19t-47 19t-19 47zM248 1033v-1115q0 -138 -52.5 -199t-160.5 -61q-47 0 -73 7v64q35 -7 66 -7q80 0 115 43.5t35 149.5v1118h70z" />
    <glyph glyph-name="k" unicode="k" horiz-adv-x="989" 
d="M243 426v-426h-70v1435h70v-919h4l558 517h96l-456 -424l480 -609h-90l-443 562z" />
    <glyph glyph-name="l" unicode="l" horiz-adv-x="443" 
d="M186 0v1435h70v-1435h-70z" />
    <glyph glyph-name="m" unicode="m" horiz-adv-x="1659" 
d="M172 0v1033h71v-176h4q9 32 29.5 63t53.5 62t87 50t119 19q128 0 207 -63t101 -155h5q7 32 29 67.5t58.5 70.5t96 57.5t130.5 22.5q148 0 240.5 -90t92.5 -254v-707h-70v690q0 144 -73.5 219.5t-195.5 75.5q-135 0 -211.5 -91t-76.5 -217v-677h-70v684q0 144 -72 222.5
t-197 78.5q-136 0 -211.5 -92.5t-75.5 -232.5v-660h-71z" />
    <glyph glyph-name="n" unicode="n" horiz-adv-x="1102" 
d="M172 0v1033h71v-200h4q28 89 114.5 153.5t222.5 64.5q158 0 257 -98.5t99 -274.5v-678h-70v670q0 138 -78.5 226.5t-215.5 88.5q-106 0 -183.5 -52t-113.5 -131t-36 -173v-629h-71z" />
    <glyph glyph-name="o" unicode="o" horiz-adv-x="1086" 
d="M542 1051q183 0 301.5 -123t118.5 -337v-153q0 -215 -117.5 -335.5t-302.5 -120.5t-301.5 120.5t-116.5 335.5v153q0 217 116 338.5t302 121.5zM542 986q-155 0 -251.5 -105.5t-96.5 -298.5v-136q0 -191 96.5 -295t252.5 -104q155 0 251.5 103t96.5 296v136
q0 192 -97.5 298t-251.5 106z" />
    <glyph glyph-name="p" unicode="p" horiz-adv-x="1105" 
d="M586 -18q-75 0 -137.5 22t-101.5 58t-63 70.5t-37 70.5h-4v-534h-70v1364h69v-207h4q8 23 21.5 48t42 58t64.5 58.5t92.5 43t122.5 17.5q171 0 281.5 -119.5t110.5 -319.5v-189q0 -107 -32.5 -192.5t-87.5 -139t-125.5 -81.5t-149.5 -28zM585 47q64 0 121.5 24t103.5 70
t73 122.5t27 173.5v164q0 179 -92.5 282t-233.5 103q-106 0 -185 -55t-117.5 -141t-38.5 -187v-167q0 -168 94 -278.5t248 -110.5z" />
    <glyph glyph-name="q" unicode="q" horiz-adv-x="1106" 
d="M518 1051q76 0 139 -22t102.5 -58t63.5 -71t37 -71h4v204h69v-1364h-70v537h-4q-8 -28 -29.5 -61.5t-60.5 -72.5t-105.5 -64.5t-147.5 -25.5q-172 0 -282 120t-110 321v187q0 106 32 191.5t87.5 139t125.5 82t149 28.5zM521 985q-137 0 -231.5 -100t-94.5 -289v-162
q0 -180 92.5 -283.5t233.5 -103.5q106 0 185.5 54.5t118 140.5t38.5 188v169q0 167 -94 276.5t-248 109.5z" />
    <glyph glyph-name="r" unicode="r" horiz-adv-x="667" 
d="M172 0v1033h71v-201h4q61 217 293 217q27 0 79 -8v-67q-50 9 -87 9q-139 0 -214 -103t-75 -282v-598h-71z" />
    <glyph glyph-name="s" unicode="s" horiz-adv-x="955" 
d="M134 770q0 132 95.5 206.5t250.5 74.5q73 0 133 -18t98 -46.5t64 -65t37 -72.5t11 -71h-69q0 32 -14.5 65.5t-44.5 66.5t-86.5 54.5t-130.5 21.5q-119 0 -195.5 -54t-76.5 -158q0 -47 17 -80.5t58 -58.5t85 -41t120 -37q154 -41 205 -64q122 -55 146 -158q7 -29 7 -62
q0 -96 -53 -163.5t-136.5 -97.5t-189.5 -30q-96 0 -170 26.5t-115.5 69.5t-62 90.5t-20.5 95.5h69q1 -35 17.5 -70.5t49.5 -70t93.5 -56t139.5 -21.5q132 0 218.5 58t86.5 168q0 29 -7.5 52t-17.5 40.5t-33.5 33.5t-42 26.5t-58 23.5t-65.5 20.5t-80 22.5q-68 19 -111 33.5
t-90 38t-72.5 50.5t-42.5 66.5t-17 90.5z" />
    <glyph glyph-name="t" unicode="t" horiz-adv-x="626" 
d="M218 1033v250h70v-250h264v-62h-264v-759q0 -92 41.5 -126.5t142.5 -34.5q56 0 94 8v-59q-42 -10 -106 -10q-137 0 -189.5 53t-52.5 186v742h-168v62h168z" />
    <glyph glyph-name="u" unicode="u" horiz-adv-x="1101" 
d="M928 1033v-1033h-70v200h-4q-31 -87 -117.5 -152.5t-223.5 -65.5q-155 0 -253 90t-98 261v700h70v-688q0 -137 78 -217t211 -80q157 0 247 109t90 260v616h70z" />
    <glyph glyph-name="v" unicode="v" horiz-adv-x="918" 
d="M421 0l-382 1033h77l341 -942h5l343 942h74l-383 -1033h-75z" />
    <glyph glyph-name="w" unicode="w" horiz-adv-x="1396" 
d="M1355 1033l-283 -1033h-74l-298 933h-4l-299 -933h-73l-284 1033h76l244 -930h5l296 930h73l297 -930h5l244 930h75z" />
    <glyph glyph-name="x" unicode="x" horiz-adv-x="925" 
d="M786 0l-323 462h-3l-324 -462h-81l365 521l-354 512h84l313 -453h3l315 453h81l-356 -511l364 -522h-84z" />
    <glyph glyph-name="y" unicode="y" horiz-adv-x="917" 
d="M877 1033l-372 -1033l-50 -132q-79 -210 -267 -210q-50 0 -86 8v63q35 -7 83 -7q70 0 122 41t80 118l39 106l-387 1046h78l343 -957h4l338 957h75z" />
    <glyph glyph-name="z" unicode="z" horiz-adv-x="900" 
d="M96 0v57l631 909v4h-631v63h718v-60l-630 -906v-5h631v-62h-719z" />
    <glyph glyph-name="braceleft" unicode="{" horiz-adv-x="617" 
d="M117 598v-19q82 -8 119.5 -59t37.5 -155v-379q0 -214 239 -214h64v-63h-34q-87 0 -147 13.5t-104.5 47t-65.5 92.5t-21 147v321q0 111 -33.5 157t-131.5 46v108q98 0 131.5 48t33.5 159v297q0 87 21 144.5t65.5 89.5t104 44.5t147.5 12.5h34v-62h-64q-123 0 -181 -51.5
t-58 -161.5v-348q0 -104 -37.5 -155.5t-119.5 -59.5z" />
    <glyph glyph-name="bar" unicode="|" horiz-adv-x="617" 
d="M342 -291h-67v1726h67v-1726z" />
    <glyph glyph-name="braceright" unicode="}" horiz-adv-x="617" 
d="M500 579v19q-82 8 -119.5 59.5t-37.5 155.5v347q0 110 -58 161.5t-181 51.5h-64v62h34q88 0 147.5 -12.5t104 -44.5t65.5 -89.5t21 -144.5v-296q0 -111 34 -159t131 -48v-108q-98 0 -131.5 -46.5t-33.5 -156.5v-321q0 -88 -21 -147t-65.5 -92.5t-104.5 -47t-147 -13.5
h-34v63h64q239 0 239 214v379q0 104 37.5 155t119.5 59z" />
    <glyph glyph-name="asciitilde" unicode="~" horiz-adv-x="1125" 
d="M775 528q-56 0 -105 23.5t-85.5 57.5t-70 68t-73 57.5t-81.5 23.5q-71 0 -119.5 -59t-49.5 -157h-68q0 121 67.5 200t170.5 79q53 0 100 -23.5t83 -57.5t70 -68t75.5 -57.5t85.5 -23.5q76 0 117.5 63t45.5 153h68q0 -49 -13 -96t-39.5 -89t-73 -68t-105.5 -26z" />
    <glyph glyph-name="cent" unicode="&#xa2;" 
d="M551 -22v187q-175 10 -275.5 129t-100.5 329v118q0 204 103.5 322.5t272.5 127.5v186l65 2v-188q80 -6 146 -36t107.5 -74.5t65.5 -97t27 -106.5h-69q-14 96 -86.5 167t-190.5 81v-895q126 8 194.5 74t84.5 157h68q-6 -52 -28.5 -100.5t-62.5 -91.5t-106 -71t-150 -33
v-185zM245 632q0 -182 81 -285.5t225 -115.5v895q-140 -11 -223 -114.5t-83 -283.5v-96z" />
    <glyph glyph-name="sterling" unicode="&#xa3;" 
d="M109 671v60h239q-49 198 -49 313q0 156 104.5 251.5t281.5 95.5q151 0 257 -46v-68q-111 49 -254 49q-146 0 -232.5 -77.5t-86.5 -206.5q0 -111 51 -311h429v-60h-414q39 -160 39 -253q0 -266 -175 -349v-6h685v-63h-847v61q139 44 203.5 128.5t64.5 227.5q0 90 -41 254
h-255z" />
    <glyph glyph-name="yen" unicode="&#xa5;" 
d="M577 0h-70v340h-268v61h268v191h-268v60h240l-442 707h84l418 -675h6l418 675h82l-442 -707h240v-60h-266v-191h266v-61h-266v-340z" />
    <glyph glyph-name="dieresis" unicode="&#xa8;" horiz-adv-x="786" 
d="M539 1240q-25 0 -42.5 18t-17.5 43t17.5 43t42.5 18t43 -18t18 -43t-18 -43t-43 -18zM246 1240q-25 0 -42.5 18t-17.5 43t17.5 43t42.5 18q26 0 43.5 -18t17.5 -43t-17.5 -43t-43.5 -18z" />
    <glyph glyph-name="copyright" unicode="&#xa9;" horiz-adv-x="1651" 
d="M831 -58q-207 0 -368.5 91t-249 249.5t-87.5 357.5v105q0 139 52.5 263.5t145 215t224 143t283.5 52.5t284.5 -53.5t224.5 -144.5t144.5 -214.5t52.5 -261.5v-105q0 -199 -87 -357.5t-249 -249.5t-370 -91zM191 636q0 -180 80 -324.5t226.5 -227.5t333.5 -83
q188 0 335 83t227 227.5t80 324.5v109q0 124 -47.5 236.5t-131 196t-204 132.5t-259.5 49t-259 -49t-203 -132t-130.5 -195.5t-47.5 -237.5v-109zM534 637v100q0 154 80 234t222 80q120 0 189.5 -60.5t79.5 -136.5h-71q-12 53 -60.5 93.5t-137.5 40.5q-234 0 -234 -256v-97
q0 -122 61.5 -186t172.5 -64q90 0 140.5 33.5t61.5 86.5h72q-12 -76 -84.5 -130.5t-189.5 -54.5q-142 0 -222 80t-80 237z" />
    <glyph glyph-name="guillemotleft" unicode="&#xab;" horiz-adv-x="1165" 
d="M546 565l370 401h85l-364 -400v-6l364 -402h-94l-361 399v8zM149 565l370 401h85l-364 -400v-6l364 -402h-94l-361 399v8z" />
    <glyph glyph-name="registered" unicode="&#xae;" horiz-adv-x="1149" 
d="M577 439q-205 0 -336 129.5t-131 328.5v46q0 188 132.5 315.5t334.5 127.5t334 -128t132 -315v-46q0 -200 -129.5 -329t-336.5 -129zM577 492q182 0 296.5 113t114.5 287v57q0 163 -115.5 274t-295.5 111q-178 0 -294 -111.5t-116 -273.5v-57q0 -175 114 -287.5
t296 -112.5zM465 664h-53v515h189q74 0 119 -42.5t45 -110.5q0 -57 -29 -94t-77 -51q13 -21 122 -217h-60l-116 208h-140v-208zM465 1131v-210h127q54 0 86.5 27.5t32.5 76.5t-31.5 77.5t-86.5 28.5h-128z" />
    <glyph glyph-name="acute" unicode="&#xb4;" horiz-adv-x="786" 
d="M259 1203l237 297h79l-252 -297h-64z" />
    <glyph glyph-name="cedilla" unicode="&#xb8;" horiz-adv-x="786" 
d="M301 -193v44l66 150h60l-59 -140q86 0 145.5 -37.5t59.5 -115.5q0 -83 -66.5 -125.5t-158.5 -43.5q-68 -1 -120 16v57q46 -16 121 -16q63 0 109 27.5t46 80.5q0 103 -153 103h-50z" />
    <glyph glyph-name="guillemotright" unicode="&#xbb;" horiz-adv-x="1165" 
d="M1015 565v-8l-361 -399h-94l364 402v6l-364 400h85zM618 565v-8l-361 -399h-94l364 402v6l-364 400h85z" />
    <glyph glyph-name="quoteright" unicode="&#x2019;" horiz-adv-x="384" 
d="M173 911h-60l89 448h78z" />
    <glyph glyph-name="circumflex" unicode="&#x2c6;" horiz-adv-x="786" 
d="M130 1203l235 330h56l235 -330h-66l-195 277h-4l-196 -277h-65z" />
    <glyph glyph-name="ring" unicode="&#x2da;" horiz-adv-x="786" 
d="M397 1202q-72 0 -122 49.5t-50 121.5q0 70 50 119t122 49q70 0 121 -49t51 -119q0 -71 -51 -121t-121 -50zM277 1371q0 -49 36 -84.5t84 -35.5q49 0 84.5 35.5t35.5 84.5t-35.5 84.5t-84.5 35.5q-48 0 -84 -35.5t-36 -84.5z" />
    <glyph glyph-name="tilde" unicode="&#x2dc;" horiz-adv-x="786" 
d="M518 1199q-40 0 -72.5 16.5t-55 40.5t-43 48t-45.5 40.5t-53 16.5q-44 0 -74 -38.5t-30 -107.5h-57q0 95 44.5 147.5t116.5 52.5q39 0 70.5 -16.5t53.5 -40.5t42 -48t46 -40.5t57 -16.5q50 0 77.5 40.5t27.5 110.5h57q0 -91 -42.5 -148t-119.5 -57z" />
    <glyph glyph-name="uni0401" unicode="&#x401;" horiz-adv-x="1113" 
d="M731 1513q-25 0 -42.5 17.5t-17.5 42.5q0 26 17.5 43.5t42.5 17.5t42.5 -18t17.5 -43t-17.5 -42.5t-42.5 -17.5zM442 1513q-25 0 -42 17.5t-17 42.5q0 26 17 43.5t42 17.5q26 0 43.5 -18t17.5 -43t-17.5 -42.5t-43.5 -17.5zM975 66v-66h-771v1359h771v-66h-700v-563h666
v-66h-666v-598h700z" />
    <glyph glyph-name="uni0410" unicode="&#x410;" horiz-adv-x="1199" 
d="M149 0h-75l487 1359h76l488 -1359h-76l-163 463h-574zM602 1272h-5l-264 -748h531z" />
    <glyph glyph-name="uni0411" unicode="&#x411;" horiz-adv-x="1172" 
d="M1056 389q0 -181 -110 -285t-312 -104h-430v1359h753v-66h-682v-519h359q202 0 312 -103t110 -282zM275 66h356q168 0 260 84.5t92 237.5q0 152 -92 236.5t-260 84.5h-356v-643z" />
    <glyph glyph-name="uni0412" unicode="&#x412;" horiz-adv-x="1227" 
d="M204 0v1359h431q186 0 292.5 -88t106.5 -244q0 -72 -24 -132t-61.5 -96.5t-76 -58.5t-75.5 -30v-5q61 -6 115 -28.5t99 -62.5t71.5 -103.5t26.5 -143.5q0 -169 -115 -268t-329 -99h-461zM275 1293v-562h355q142 0 236 73.5t94 212.5q0 133 -88.5 204.5t-247.5 71.5h-349z
M275 665v-599h376q186 0 285.5 78.5t99.5 220.5q0 148 -103.5 224t-264.5 76h-393z" />
    <glyph glyph-name="uni0413" unicode="&#x413;" horiz-adv-x="1032" 
d="M275 0h-71v1359h752v-66h-681v-1293z" />
    <glyph glyph-name="uni0414" unicode="&#x414;" horiz-adv-x="1379" 
d="M110 -286h-63v351h100q39 18 64 49.5t44 85t30.5 149t19 222t12.5 323.5l12 465h785v-1294h180v-351h-63v286h-1121v-286zM1043 65v1229h-645l-13 -403q-13 -434 -38 -597.5t-93 -224.5v-4h789z" />
    <glyph glyph-name="uni0415" unicode="&#x415;" horiz-adv-x="1113" 
d="M975 66v-66h-771v1359h771v-66h-700v-563h666v-66h-666v-598h700z" />
    <glyph glyph-name="uni0416" unicode="&#x416;" horiz-adv-x="1788" 
d="M857 731v628h72v-628h6l638 628h100l-677 -658l737 -701h-101l-697 666h-6v-666h-72v666h-5l-698 -666h-99l736 699l-679 660h101l639 -628h5z" />
    <glyph glyph-name="uni0417" unicode="&#x417;" horiz-adv-x="1127" 
d="M390 669v65h171q144 0 234.5 85t90.5 223q0 122 -89.5 203t-243.5 81q-81 0 -147 -23.5t-106 -61.5t-61.5 -81.5t-22.5 -87.5h-72q0 54 25.5 108.5t73 102.5t128.5 78t181 30q190 0 299 -98.5t109 -248.5q0 -143 -82 -233t-187 -104v-5q63 -5 118.5 -29t101 -65t72 -106
t26.5 -146q0 -172 -123.5 -280t-322.5 -108q-203 0 -323 97t-122 237h72q2 -113 105.5 -191t267.5 -78q169 0 271 90.5t102 230.5q0 153 -100 234t-276 81h-170z" />
    <glyph glyph-name="uni0418" unicode="&#x418;" horiz-adv-x="1359" 
d="M1084 0v1233h-4l-806 -1233h-70v1359h71v-1232h4l807 1232h69v-1359h-71z" />
    <glyph glyph-name="uni0419" unicode="&#x419;" horiz-adv-x="1359" 
d="M413 1741h61q0 -81 55.5 -126.5t154.5 -45.5q98 0 150 45t52 127h61q0 -97 -68 -162t-195 -65q-129 0 -200 64.5t-71 162.5zM1084 0v1233h-4l-806 -1233h-70v1359h71v-1232h4l807 1232h69v-1359h-71z" />
    <glyph glyph-name="uni041A" unicode="&#x41a;" horiz-adv-x="1175" 
d="M1018 0l-737 666h-6v-666h-71v1359h71v-628h6l679 628h99l-719 -658l780 -701h-102z" />
    <glyph glyph-name="uni041B" unicode="&#x41b;" horiz-adv-x="1297" 
d="M319 902l5 457h770v-1359h-72v1294h-630l-5 -394q-2 -132 -5 -221.5t-8.5 -186.5t-14.5 -159t-23.5 -124t-34.5 -98t-48 -66t-64.5 -42t-82.5 -12q-14 0 -27 2t-19 5l-6 2v70q21 -9 51 -9q34 0 60.5 11.5t47.5 37.5t37 61t27 90t18.5 115.5t12.5 146.5t7.5 173.5
t3.5 205.5z" />
    <glyph glyph-name="uni041C" unicode="&#x41c;" horiz-adv-x="1593" 
d="M270 0h-66v1359h71l520 -1171h4l520 1171h70v-1359h-65v1201h-5l-488 -1096h-69l-488 1096h-4v-1201z" />
    <glyph glyph-name="uni041D" unicode="&#x41d;" horiz-adv-x="1350" 
d="M1147 0h-71v682h-801v-682h-71v1359h71v-613h801v613h71v-1359z" />
    <glyph glyph-name="uni041E" unicode="&#x41e;" horiz-adv-x="1330" 
d="M1182 554q0 -269 -136.5 -427.5t-380.5 -158.5t-380.5 158.5t-136.5 427.5v249q0 269 136.5 428.5t380.5 159.5t380.5 -160t136.5 -430v-247zM1111 810q0 232 -120 374t-326 142t-326.5 -142t-120.5 -374v-263q0 -232 119.5 -373t327.5 -141q207 0 326.5 140.5
t119.5 373.5v263z" />
    <glyph glyph-name="uni041F" unicode="&#x41f;" horiz-adv-x="1339" 
d="M1135 0h-71v1294h-789v-1294h-71v1359h931v-1359z" />
    <glyph glyph-name="uni0420" unicode="&#x420;" horiz-adv-x="1162" 
d="M635 1359q202 0 312 -106.5t110 -292.5q0 -184 -110 -289.5t-312 -105.5h-360v-565h-71v1359h431zM984 960q0 158 -92 245.5t-260 87.5h-357v-663h342q176 0 271.5 85t95.5 245z" />
    <glyph glyph-name="uni0421" unicode="&#x421;" horiz-adv-x="1265" 
d="M219 808v-258q0 -106 25.5 -196.5t77 -163.5t138.5 -115t200 -42q179 0 291 99.5t112 245.5h70v-3q0 -82 -33.5 -155.5t-94 -129.5t-150 -89t-195.5 -33q-133 0 -233.5 46.5t-160 128.5t-89 186.5t-29.5 229.5v238q0 124 30.5 229.5t90.5 188t159 129.5t227 47
q110 0 201 -37t147.5 -96.5t87.5 -131t31 -145.5v-4h-69q0 61 -27 122t-75.5 112t-126 83t-169.5 32q-110 0 -195.5 -42t-137 -114.5t-77.5 -164t-26 -197.5z" />
    <glyph glyph-name="uni0422" unicode="&#x422;" horiz-adv-x="1092" 
d="M582 0h-71v1293h-446v66h962v-66h-445v-1293z" />
    <glyph glyph-name="uni0423" unicode="&#x423;" horiz-adv-x="1085" 
d="M241 -9q-49 0 -67 9v70q27 -9 67 -9q86 0 147.5 69t129.5 214l-465 1015h80l420 -928h4l399 928h76l-431 -995q-32 -74 -56.5 -122.5t-58.5 -100.5t-68 -82t-79 -49t-98 -19z" />
    <glyph glyph-name="uni0424" unicode="&#x424;" horiz-adv-x="1500" 
d="M785 -10h-72v158q-279 3 -431.5 141t-152.5 387v17q0 249 153 387.5t431 141.5v147h72v-147q280 -2 432.5 -140t152.5 -387v-18q0 -250 -153 -388t-432 -141v-158zM200 669q0 -212 135 -332t378 -124v944q-241 -4 -377 -125t-136 -332v-31zM1300 701q0 212 -136 332.5
t-379 123.5v-944q242 4 378.5 125t136.5 332v31z" />
    <glyph glyph-name="uni0425" unicode="&#x425;" horiz-adv-x="1168" 
d="M1097 1359l-471 -682l467 -677h-86l-423 620h-4l-424 -620h-83l467 679l-468 680h86l425 -621h5l426 621h83z" />
    <glyph glyph-name="uni0426" unicode="&#x426;" horiz-adv-x="1401" 
d="M1137 1359v-1294h180v-351h-63v286h-1050v1359h71v-1294h791v1294h71z" />
    <glyph glyph-name="uni0427" unicode="&#x427;" horiz-adv-x="1215" 
d="M1011 0h-71v651h-4q-13 -12 -37 -26t-69 -35t-112.5 -34.5t-143.5 -13.5q-195 0 -305.5 113.5t-110.5 322.5v381h71v-382q0 -183 91.5 -277t254.5 -94q75 0 143.5 15t114 38t69.5 38.5t38 27.5v634h71v-1359z" />
    <glyph glyph-name="uni0428" unicode="&#x428;" horiz-adv-x="1808" 
d="M204 0v1359h71v-1294h593v1294h72v-1294h593v1294h71v-1359h-1400z" />
    <glyph glyph-name="uni0429" unicode="&#x429;" horiz-adv-x="1869" 
d="M1784 -286h-63v286h-1517v1359h71v-1294h593v1294h72v-1294h593v1294h71v-1294h180v-351z" />
    <glyph glyph-name="uni042A" unicode="&#x42a;" horiz-adv-x="1364" 
d="M837 0h-432v1294h-340v65h412v-562h360q202 0 312 -106t110 -291q0 -186 -110 -293t-312 -107zM834 66q168 0 260 87.5t92 246.5q0 157 -92.5 244.5t-259.5 87.5h-357v-666h357z" />
    <glyph glyph-name="uni042B" unicode="&#x42b;" horiz-adv-x="1559" 
d="M1057 400q0 -189 -111.5 -294.5t-310.5 -105.5h-431v1359h71v-562h360q199 0 310.5 -105t111.5 -292zM1355 0h-71v1359h71v-1359zM632 732h-357v-666h357q167 0 259.5 87.5t92.5 246.5q0 158 -92.5 245t-259.5 87z" />
    <glyph glyph-name="uni042C" unicode="&#x42c;" horiz-adv-x="1162" 
d="M635 0h-431v1359h71v-562h360q202 0 312 -106t110 -291q0 -186 -110 -293t-312 -107zM632 66q168 0 260 87.5t92 246.5q0 157 -92.5 244.5t-259.5 87.5h-357v-666h357z" />
    <glyph glyph-name="uni042D" unicode="&#x42d;" horiz-adv-x="1255" 
d="M595 -32q-108 0 -198.5 34t-149.5 91t-91.5 130t-32.5 152v3h70q0 -145 110.5 -245t290.5 -100q113 0 199.5 41.5t138.5 113.5t78 163.5t26 197.5v123h-613v64h613v73q0 106 -26.5 197.5t-78.5 164t-137 114t-194 41.5q-94 0 -172 -32.5t-126.5 -84t-75 -112
t-26.5 -120.5h-69v4q0 71 30 142t86.5 132t148.5 98.5t204 37.5q127 0 226 -47t159.5 -129t91 -187.5t30.5 -228.5v-241q0 -125 -29.5 -229.5t-89.5 -186.5t-160.5 -128t-232.5 -46z" />
    <glyph glyph-name="uni042E" unicode="&#x42e;" horiz-adv-x="1716" 
d="M555 554v128h-280v-682h-71v1359h71v-613h280v57q0 269 134 428.5t373 159.5t373 -160t134 -430v-247q0 -269 -134 -427.5t-374 -158.5q-239 0 -372.5 158.5t-133.5 427.5zM625 810v-263q0 -232 117 -373t320 -141q202 0 319 141t117 373v263q0 232 -117.5 374
t-318.5 142t-319 -142t-118 -374z" />
    <glyph glyph-name="uni042F" unicode="&#x42f;" horiz-adv-x="1229" 
d="M954 585h-353q-22 0 -31 1l-371 -586h-84l375 593q-154 25 -236 123.5t-82 253.5q0 182 110.5 285.5t313.5 103.5h429v-1359h-71v585zM598 650h356v643h-356q-169 0 -261 -84.5t-92 -237.5t92.5 -237t260.5 -84z" />
    <glyph glyph-name="uni0430" unicode="&#x430;" horiz-adv-x="1029" 
d="M452 -18q-152 0 -244.5 83t-92.5 224q0 131 90 208.5t259 77.5h323v152q0 129 -75.5 194t-206.5 65q-238 0 -275 -208h-69q14 125 102 199t246 74q160 0 254 -81t94 -228v-742h-70v171h-4q-10 -27 -33.5 -56.5t-62.5 -61t-100.5 -51.5t-134.5 -20zM459 47q136 0 232 84
t96 216v165h-322q-137 0 -206 -60t-69 -162q0 -111 75 -177t194 -66z" />
    <glyph glyph-name="uni0431" unicode="&#x431;" horiz-adv-x="1106" 
d="M557 1039q186 0 300.5 -125.5t114.5 -328.5v-151q0 -206 -114.5 -329t-305.5 -123t-304.5 123.5t-113.5 332.5v160q0 146 10 256t33.5 197t59 145.5t89.5 98t122.5 58t159.5 22.5l93 3q152 5 169 57h70q-15 -65 -71 -90.5t-165 -30.5l-97 -4q-140 -6 -221 -53
t-125.5 -152.5t-61.5 -295.5h4q39 109 132.5 169.5t221.5 60.5zM552 974q-159 0 -253 -108t-94 -292v-130q0 -184 93.5 -290.5t254.5 -106.5t254.5 106.5t93.5 290.5v130q0 182 -95 291t-254 109z" />
    <glyph glyph-name="uni0432" unicode="&#x432;" horiz-adv-x="1049" 
d="M182 0v1033h353q149 0 234 -67.5t85 -186.5q0 -55 -18.5 -100.5t-48.5 -73t-60 -44t-59 -22.5v-3q65 -8 118 -35.5t89.5 -85t36.5 -136.5q0 -129 -92.5 -204t-261.5 -75h-376zM252 971v-410h284q106 0 176.5 54t70.5 158q0 96 -67.5 147t-188.5 51h-275zM252 500v-439
h302q136 0 212 57.5t76 160.5q0 109 -80 165t-205 56h-305z" />
    <glyph glyph-name="uni0433" unicode="&#x433;" horiz-adv-x="873" 
d="M788 972h-535v-972h-71v1033h606v-61z" />
    <glyph glyph-name="uni0434" unicode="&#x434;" horiz-adv-x="1209" 
d="M107 -285h-63v346h93q68 28 95.5 130t38.5 280q15 241 27 562h646v-972h178v-346h-62v285h-953v-285zM874 61v910h-512q-10 -302 -25 -499q-11 -172 -32 -265.5t-67 -141.5v-4h636z" />
    <glyph glyph-name="uni0435" unicode="&#x435;" horiz-adv-x="1066" 
d="M544 -18q-192 0 -301 124.5t-109 349.5v109q0 234 107.5 360t291.5 126t292 -126t108 -362v-50h-729v-54q0 -197 91.5 -304.5t249.5 -107.5q70 0 127 19.5t92.5 51t56.5 68t26 73.5h71q-6 -48 -31 -95t-68.5 -88.5t-115 -67.5t-159.5 -26zM204 576h658v4q0 190 -89.5 298
t-239.5 108t-239.5 -108t-89.5 -298v-4z" />
    <glyph glyph-name="uni0436" unicode="&#x436;" horiz-adv-x="1461" 
d="M695 563v470h71v-470h4l493 470h94l-526 -500l555 -533h-96l-520 502h-4v-502h-71v502h-4l-520 -502h-95l555 532l-528 501h95l493 -470h4z" />
    <glyph glyph-name="uni0437" unicode="&#x437;" horiz-adv-x="1024" 
d="M509 48q140 0 218.5 62t78.5 169q0 111 -79.5 165.5t-221.5 54.5h-142v62h142q113 0 186.5 54.5t73.5 159.5q0 92 -72 151t-189 59q-69 0 -124 -21t-90 -57t-55.5 -79t-27.5 -91h-68q3 58 27.5 112.5t68.5 100.5t113.5 73.5t155.5 27.5q150 0 240.5 -79t90.5 -197
q0 -54 -18.5 -99t-48 -72.5t-59.5 -43.5t-59 -22v-4q94 -14 160 -78t66 -177q0 -135 -97.5 -216t-270.5 -81q-95 0 -170 27t-118.5 72t-67 94.5t-28.5 103.5h68q8 -44 28.5 -83t57 -73.5t96 -54.5t135.5 -20z" />
    <glyph glyph-name="uni0438" unicode="&#x438;" horiz-adv-x="1125" 
d="M872 0v915h-4l-617 -915h-69v1033h70v-916h4l618 916h68v-1033h-70z" />
    <glyph glyph-name="uni0439" unicode="&#x439;" horiz-adv-x="1125" 
d="M295 1440h62q0 -87 54 -136.5t150 -49.5t146.5 49t50.5 137h62q-1 -101 -67.5 -170t-191.5 -69q-126 0 -196 68.5t-70 170.5zM872 0v915h-4l-617 -915h-69v1033h70v-916h4l618 916h68v-1033h-70z" />
    <glyph glyph-name="uni043A" unicode="&#x43a;" horiz-adv-x="1001" 
d="M257 502h-4v-502h-71v1033h71v-470h4l540 470h94l-572 -497l606 -536h-101z" />
    <glyph glyph-name="uni043B" unicode="&#x43b;" horiz-adv-x="1095" 
d="M284 717l5 316h623v-1033h-70v971h-487l-5 -254q-5 -319 -23 -442q-33 -230 -142 -272q-27 -11 -60 -11q-15 0 -28.5 2.5t-20.5 5.5l-6 2v66q22 -10 52 -10q37 0 64 24t44 77.5t27.5 104t16 141.5t7 148t3.5 164z" />
    <glyph glyph-name="uni043C" unicode="&#x43c;" horiz-adv-x="1338" 
d="M252 880v-880h-70v1033h74l412 -863h4l410 863h73v-1033h-70v880h-3l-386 -800h-55l-386 800h-3z" />
    <glyph glyph-name="uni043D" unicode="&#x43d;" horiz-adv-x="1113" 
d="M861 0v511h-608v-511h-71v1033h71v-461h608v461h70v-1033h-70z" />
    <glyph glyph-name="uni043E" unicode="&#x43e;" horiz-adv-x="1106" 
d="M552 1051q183 0 301.5 -123t118.5 -337v-153q0 -215 -117.5 -335.5t-302.5 -120.5t-301.5 120.5t-116.5 335.5v153q0 217 116 338.5t302 121.5zM552 986q-155 0 -251.5 -105.5t-96.5 -298.5v-136q0 -191 96.5 -295t252.5 -104q155 0 251.5 103t96.5 296v136
q0 192 -97.5 298t-251.5 106z" />
    <glyph glyph-name="uni043F" unicode="&#x43f;" horiz-adv-x="1103" 
d="M851 0v971h-598v-971h-71v1033h739v-1033h-70z" />
    <glyph glyph-name="uni0440" unicode="&#x440;" horiz-adv-x="1124" 
d="M596 -18q-75 0 -137.5 22t-101.5 58t-63 70.5t-37 70.5h-4v-534h-71v1364h70v-207h4q9 29 30.5 62.5t60.5 72.5t104.5 64.5t146.5 25.5q171 0 282 -119.5t111 -319.5v-189q0 -107 -32.5 -192.5t-88 -139t-125.5 -81.5t-149 -28zM595 47q64 0 121.5 24t103.5 70t73 122.5
t27 173.5v164q0 179 -92.5 282t-233.5 103q-106 0 -185.5 -55t-118 -141t-38.5 -187v-167q0 -167 94.5 -278t248.5 -111z" />
    <glyph glyph-name="uni0441" unicode="&#x441;" horiz-adv-x="1052" 
d="M134 442v157q0 213 112 332.5t292 119.5q89 0 162 -28t119 -74t72 -101t30 -112h-69q-16 103 -98 176t-215 73q-151 0 -243 -105t-92 -294v-136q0 -194 91.5 -298t251.5 -104q139 0 214.5 67.5t92.5 163.5h68q-7 -55 -31 -105t-68 -94.5t-116.5 -71t-165.5 -26.5
q-188 0 -297.5 120t-109.5 340z" />
    <glyph glyph-name="uni0442" unicode="&#x442;" horiz-adv-x="925" 
d="M867 972h-369v-972h-70v972h-369v61h808v-61z" />
    <glyph glyph-name="uni0443" unicode="&#x443;" horiz-adv-x="937" 
d="M887 1033l-372 -1033l-50 -132q-79 -210 -267 -210q-50 0 -86 8v63q35 -7 83 -7q70 0 122 41t80 118l39 106l-387 1046h78l343 -957h4l338 957h75z" />
    <glyph glyph-name="uni0444" unicode="&#x444;" horiz-adv-x="1365" 
d="M718 -331h-70v313q-146 1 -260.5 51.5t-184 156t-69.5 251.5v128q0 153 68.5 263.5t183.5 164t262 54.5v283h70v-283q146 -1 260.5 -52.5t184 -159.5t69.5 -257v-128q0 -150 -69 -258t-183.5 -160.5t-261.5 -53.5v-313zM1161 572q0 199 -122.5 306t-320.5 107v-938
q195 1 319 109.5t124 307.5v108zM205 451q0 -194 122 -298.5t321 -105.5v938q-196 0 -319.5 -111t-123.5 -315v-108z" />
    <glyph glyph-name="uni0445" unicode="&#x445;" horiz-adv-x="945" 
d="M796 0l-323 462h-3l-324 -462h-81l365 521l-354 512h84l313 -453h3l315 453h81l-356 -511l364 -522h-84z" />
    <glyph glyph-name="uni0446" unicode="&#x446;" horiz-adv-x="1186" 
d="M1099 -285h-62v285h-855v1033h71v-972h598v972h70v-972h178v-346z" />
    <glyph glyph-name="uni0447" unicode="&#x447;" horiz-adv-x="1052" 
d="M869 0h-70v505h-8q-43 -53 -123 -85t-179 -32q-163 0 -251 96t-88 258v291h70v-291q0 -134 71.5 -212.5t198.5 -78.5q103 0 186.5 40.5t122.5 104.5v437h70v-1033z" />
    <glyph glyph-name="uni0448" unicode="&#x448;" horiz-adv-x="1502" 
d="M182 0v1033h71v-972h463v972h70v-972h464v972h70v-1033h-1138z" />
    <glyph glyph-name="uni0449" unicode="&#x449;" horiz-adv-x="1586" 
d="M1499 -285h-63v285h-1254v1033h71v-972h463v972h70v-972h464v972h70v-972h179v-346z" />
    <glyph glyph-name="uni044A" unicode="&#x44a;" horiz-adv-x="1131" 
d="M657 0h-323v971h-275v62h345v-384h253q167 0 265 -87.5t98 -236.5t-98 -237t-265 -88zM657 588h-253v-527h253q133 0 212.5 72t79.5 192t-79.5 191.5t-212.5 71.5z" />
    <glyph glyph-name="uni044B" unicode="&#x44b;" horiz-adv-x="1308" 
d="M1055 0v1033h70v-1033h-70zM182 0v1033h71v-384h253q166 0 264 -87.5t98 -236.5t-98 -237t-264 -88h-324zM506 588h-253v-527h253q133 0 212 72t79 192t-79 191.5t-212 71.5z" />
    <glyph glyph-name="uni044C" unicode="&#x44c;" horiz-adv-x="980" 
d="M182 0v1033h71v-384h253q166 0 264 -87.5t98 -236.5t-98 -237t-264 -88h-324zM506 588h-253v-527h253q133 0 212 72t79 192t-79 191.5t-212 71.5z" />
    <glyph glyph-name="uni044D" unicode="&#x44d;" horiz-adv-x="1052" 
d="M511 -18q-76 0 -139.5 18t-105.5 47.5t-72.5 69t-45 80t-18.5 82.5h68q8 -44 28 -83t55.5 -73.5t93 -54.5t131.5 -20q160 0 251 102.5t91 293.5v50h-510v61h510v36q0 187 -91.5 290.5t-242.5 103.5q-138 0 -219 -73.5t-95 -174.5h-69q3 57 29 111.5t72 100.5t119.5 74
t162.5 28q180 0 292 -118t112 -329v-168q0 -219 -109.5 -336.5t-297.5 -117.5z" />
    <glyph glyph-name="uni044E" unicode="&#x44e;" horiz-adv-x="1472" 
d="M925 -18q-181 0 -297 118t-116 333v78h-259v-511h-71v1033h71v-461h259v24q0 216 115.5 335.5t297.5 119.5q86 0 160.5 -30t131 -86.5t89 -143.5t32.5 -195v-163q0 -215 -116.5 -333t-296.5 -118zM925 985q-151 0 -246.5 -104t-95.5 -295v-143q0 -191 94.5 -293.5
t248.5 -102.5q152 0 246.5 102.5t94.5 293.5v143q0 189 -96 294t-246 105z" />
    <glyph glyph-name="uni044F" unicode="&#x44f;" horiz-adv-x="1025" 
d="M773 0v412h-269l-298 -412h-84l303 420q-127 22 -199 101.5t-72 200.5q0 143 98.5 227t264.5 84h326v-1033h-70zM517 473h256v498h-257q-133 0 -212 -68t-79 -181q0 -114 79.5 -181.5t212.5 -67.5z" />
    <glyph glyph-name="uni0451" unicode="&#x451;" horiz-adv-x="1066" 
d="M681 1240q-25 0 -42.5 18t-17.5 43t17.5 43t42.5 18t43 -18t18 -43t-18 -43t-43 -18zM388 1240q-25 0 -42.5 18t-17.5 43t17.5 43t42.5 18q26 0 43.5 -18t17.5 -43t-17.5 -43t-43.5 -18zM544 -18q-192 0 -301 124.5t-109 349.5v109q0 234 107.5 360t291.5 126t292 -126
t108 -362v-50h-729v-54q0 -197 91.5 -304.5t249.5 -107.5q70 0 127 19.5t92.5 51t56.5 68t26 73.5h71q-6 -48 -31 -95t-68.5 -88.5t-115 -67.5t-159.5 -26zM204 576h658v4q0 190 -89.5 298t-239.5 108t-239.5 -108t-89.5 -298v-4z" />
    <glyph glyph-name="figuredash" unicode="&#x2012;" 
d="M1087 531h-1087v65h1087v-65z" />
    <glyph glyph-name="endash" unicode="&#x2013;" horiz-adv-x="1094" 
d="M1094 531h-1094v65h1094v-65z" />
    <glyph glyph-name="emdash" unicode="&#x2014;" horiz-adv-x="2048" 
d="M2048 530h-2048v64h2048v-64z" />
    <glyph glyph-name="quoteleft" unicode="&#x2018;" horiz-adv-x="393" 
d="M219 1359h61l-90 -448h-77z" />
    <glyph glyph-name="quotesinglbase" unicode="&#x201a;" horiz-adv-x="388" 
d="M173 -370h-60l89 448h78z" />
    <glyph glyph-name="quotedblleft" unicode="&#x201c;" horiz-adv-x="639" 
d="M219 1359h61l-90 -448h-77zM466 1359h60l-89 -448h-77z" />
    <glyph glyph-name="quotedblright" unicode="&#x201d;" horiz-adv-x="647" 
d="M420 911h-60l89 448h77zM173 911h-60l89 448h78z" />
    <glyph glyph-name="quotedblbase" unicode="&#x201e;" horiz-adv-x="647" 
d="M420 -370h-60l89 448h77zM173 -370h-60l89 448h78z" />
    <glyph glyph-name="ellipsis" unicode="&#x2026;" horiz-adv-x="1320" 
d="M1031 58q0 30 21.5 52t51.5 22t52 -22t22 -52t-22 -51.5t-52 -21.5t-51.5 21.5t-21.5 51.5zM585 58q0 30 21.5 52t51.5 22t52 -22t22 -52t-22 -51.5t-52 -21.5t-51.5 21.5t-21.5 51.5zM139 58q0 30 21.5 52t51.5 22t52 -22t22 -52t-22 -51.5t-52 -21.5t-51.5 21.5
t-21.5 51.5z" />
    <glyph glyph-name="perthousand" unicode="&#x2030;" horiz-adv-x="1896" 
d="M261 764q-102 0 -159 81t-57 223v45q0 143 57.5 224t159.5 81q101 0 158 -81t57 -224v-45q0 -142 -57 -223t-159 -81zM261 823q69 0 108.5 65t39.5 180v45q0 116 -39.5 181.5t-108.5 65.5t-108.5 -65.5t-39.5 -181.5v-45q0 -115 39.5 -180t108.5 -65zM218 0h-76l513 680
l513 679h76l-513 -679zM1635 -14q-102 0 -159 81t-57 223v46q0 142 57.5 223t159.5 81q101 0 158 -81t57 -223v-46q0 -142 -57 -223t-159 -81zM1077 -14q-102 0 -159 81t-57 223v46q0 142 57.5 223t159.5 81q101 0 158 -81t57 -223v-46q0 -142 -57 -223t-159 -81zM1635 45
q69 0 108.5 65t39.5 180v46q0 115 -39.5 180.5t-108.5 65.5t-108.5 -65.5t-39.5 -180.5v-46q0 -115 39.5 -180t108.5 -65zM1077 45q69 0 108.5 65t39.5 180v46q0 115 -39.5 180.5t-108.5 65.5t-108.5 -65.5t-39.5 -180.5v-46q0 -116 39.5 -180.5t108.5 -64.5z" />
    <glyph glyph-name="guilsinglleft" unicode="&#x2039;" horiz-adv-x="756" 
d="M127 565l370 401h85l-364 -400v-6l364 -402h-94l-361 399v8z" />
    <glyph glyph-name="guilsinglright" unicode="&#x203a;" horiz-adv-x="754" 
d="M618 565v-8l-360 -399h-94l364 402v6l-364 400h85z" />
    <glyph glyph-name="slash.frac" horiz-adv-x="1000" 
d="M-55 0l513 680l513 679h76l-513 -679l-513 -680h-76z" />
    <glyph glyph-name="Euro" unicode="&#x20ac;" 
d="M87 531v60h122v171v29h-122v60h126q23 253 171.5 396.5t390.5 143.5q113 0 188 -23v-66q-82 24 -187 24q-206 0 -337.5 -127.5t-154.5 -347.5h543v-60h-547v-29v-165v-6h547v-60h-545q17 -230 149.5 -364t344.5 -134q105 0 187 24v-67q-76 -22 -188 -22
q-248 0 -397.5 149.5t-166.5 413.5h-124z" />
    <glyph glyph-name="trademark" unicode="&#x2122;" horiz-adv-x="1574" 
d="M374 658h-60v647h-234v54h527v-54h-233v-647zM822 658h-55v701h60l262 -573h2l262 573h61v-701h-56v573h-3l-238 -515h-53l-239 515h-3v-573z" />
    <glyph glyph-name="uni0414.locl" horiz-adv-x="1304" 
d="M96 0v-286h-63v351h103l480 1294h80l471 -1294h104v-351h-63v286h-1112zM652 1274l-441 -1209h881l-436 1209h-4z" />
    <glyph glyph-name="uni0416.locl" horiz-adv-x="1752" 
d="M840 621v738h71v-738h2l658 738h91l-541 -604l576 -755h-92l-533 703l-161 -178v-525h-71v524l-161 178l-532 -702h-92l575 755l-542 604h93l657 -738h2z" />
    <glyph glyph-name="uni041A.locl" horiz-adv-x="1148" 
d="M1060 1359l-564 -608l597 -751h-92l-557 704l-169 -178v-526h-71v1359h71v-738h2l692 738h91z" />
    <glyph glyph-name="uni041B.locl" horiz-adv-x="1222" 
d="M655 1359l493 -1359h-76l-456 1274h-5l-462 -1274h-75l501 1359h80z" />
    <glyph glyph-name="i.locl" horiz-adv-x="427" 
d="M141 1332q0 30 21 51.5t51 21.5t51.5 -21.5t21.5 -51.5t-21.5 -50.5t-51.5 -20.5t-51 20.5t-21 50.5zM178 0v1033h70v-1033h-70z" />
    <glyph glyph-name="uni0431.locl" horiz-adv-x="1106" 
d="M698 1392q70 0 116 15t54 42h70q-17 -68 -74 -96t-163 -28h-234q-99 0 -150.5 -33t-51.5 -108q0 -85 95 -117q53 -18 207 -33q405 -38 405 -457v-144q0 -215 -119 -333t-301 -118q-183 0 -300.5 118t-117.5 333v144q0 157 66 262t185 153v6q-191 42 -191 187
q0 207 276 207h228zM205 443q0 -191 96 -293.5t252 -102.5q154 0 251 102.5t97 293.5v124q0 189 -98 294.5t-251 105.5q-154 0 -250.5 -104.5t-96.5 -295.5v-124z" />
    <glyph glyph-name="uni0432.locl" horiz-adv-x="1072" 
d="M539 -18q-177 0 -291 116.5t-114 329.5v622q0 190 104.5 295.5t269.5 105.5q98 0 178.5 -39.5t130.5 -119t50 -186.5v-16q0 -120 -55 -204t-160 -114v-4q135 -29 210.5 -118t75.5 -224v-17q0 -204 -111.5 -315.5t-287.5 -111.5zM205 1040v-242h301q134 0 212 79t78 213
v15q0 126 -83 203.5t-205 77.5q-135 0 -219 -90t-84 -256zM540 47q144 0 234.5 93.5t90.5 268.5v15q0 145 -98 227.5t-258 82.5h-304v-296q0 -188 92.5 -289.5t242.5 -101.5z" />
    <glyph glyph-name="uni0433.locl" horiz-adv-x="873" 
d="M788 972h-535v-972h-71v1033h606v-61z" />
    <glyph glyph-name="uni0433.locl" horiz-adv-x="1006" 
d="M839 794q0 -63 -22.5 -110.5t-69 -82.5t-102.5 -59.5t-139 -49.5q-43 -13 -65.5 -20t-60.5 -21t-59 -25.5t-47 -30t-39.5 -38.5t-23.5 -46.5t-10 -57.5q0 -106 84 -156.5t215 -50.5q83 0 145 21.5t95 55.5t49 69t17 70h70q0 -38 -12 -75.5t-40.5 -75t-70 -66t-107 -46
t-145.5 -17.5q-104 0 -185 26.5t-134 89.5t-53 157q0 31 6.5 58.5t16 49.5t28.5 42.5t34.5 34.5t44.5 29.5t49 25t56.5 22.5t58.5 20t63 20q148 46 214.5 96.5t66.5 140.5q0 98 -75 145.5t-193 47.5q-61 0 -110.5 -14.5t-80 -36.5t-51.5 -50.5t-29.5 -54.5t-8.5 -50h-69
q0 35 11 70.5t37.5 72t65.5 64.5t100 45.5t135 17.5q153 0 246.5 -65.5t93.5 -191.5z" />
    <glyph glyph-name="uni0434.locl" horiz-adv-x="1209" 
d="M107 -285h-63v346h93q68 28 95.5 130t38.5 280q15 241 27 562h646v-972h178v-346h-62v285h-953v-285zM874 61v910h-512q-10 -302 -25 -499q-11 -172 -32 -265.5t-67 -141.5v-4h636z" />
    <glyph glyph-name="uni0434.locl" horiz-adv-x="1125" 
d="M541 -294q151 0 241.5 76t90.5 206v270h-4q-25 -91 -124.5 -157.5t-215.5 -66.5q-176 0 -285.5 120.5t-109.5 317.5v140q0 198 109.5 318.5t287.5 120.5q117 0 211.5 -62.5t126.5 -159.5h4v204h70v-1043q0 -160 -111 -254t-292 -94q-161 0 -265 76.5t-110 199.5h72
q8 -93 93.5 -152.5t210.5 -59.5zM534 986q-149 0 -239 -106.5t-90 -282.5v-113q0 -173 90.5 -279t238.5 -106t243.5 107t95.5 274v120q0 170 -95 278t-244 108z" />
    <glyph glyph-name="uni0436.locl" horiz-adv-x="1547" 
d="M592 563l-430 -563h-86l466 609l-443 424h94l540 -520h4v922h70v-922h5l540 520h91l-440 -422l469 -611h-90l-431 564l-144 -137v-427h-70v426z" />
    <glyph glyph-name="uni0437.locl" horiz-adv-x="975" 
d="M475 -333q-174 0 -275 98.5t-113 259.5h70q10 -131 94 -212t224 -81q146 0 229.5 92t83.5 235q0 145 -94.5 227t-263.5 82h-113v66h114q136 0 217 75t81 203q0 122 -72.5 198t-197.5 76q-118 0 -189 -69.5t-84 -191.5h-70q11 148 102.5 237t240.5 89q157 0 249 -95
t92 -243q0 -113 -57 -191t-162 -113v-4q132 -34 204.5 -120t72.5 -224q0 -174 -102 -284t-281 -110z" />
    <glyph glyph-name="uni043A.locl" horiz-adv-x="1010" 
d="M253 426v-426h-71v1435h71v-919h4l557 517h97l-456 -424l479 -609h-90l-442 562z" />
    <glyph glyph-name="uni043B.locl" horiz-adv-x="964" 
d="M532 1033l383 -1033h-77l-341 941h-5l-343 -941h-74l383 1033h74z" />
    <glyph glyph-name="uni043D.locl" horiz-adv-x="1113" 
d="M861 0v511h-608v-511h-71v1033h71v-461h608v461h70v-1033h-70z" />
    <glyph glyph-name="uni043F.locl" horiz-adv-x="1103" 
d="M851 0v971h-598v-971h-71v1033h739v-1033h-70z" />
    <glyph glyph-name="uni043F.locl" horiz-adv-x="1122" 
d="M182 0v1033h71v-200h4q28 89 114.5 153.5t222.5 64.5q158 0 257 -98.5t99 -274.5v-678h-70v670q0 138 -78.5 226.5t-215.5 88.5q-106 0 -183.5 -52t-113.5 -131t-36 -173v-629h-71z" />
    <glyph glyph-name="uni0442.locl" horiz-adv-x="925" 
d="M867 972h-369v-972h-70v972h-369v61h808v-61z" />
    <glyph glyph-name="uni0442.locl" horiz-adv-x="1677" 
d="M182 0v1033h71v-176h4q9 32 29.5 63t53.5 62t87 50t119 19q128 0 207 -63t101 -155h5q7 32 29 67.5t58.5 70.5t96 57.5t130.5 22.5q148 0 240.5 -90t92.5 -254v-707h-70v690q0 144 -73.5 219.5t-195.5 75.5q-135 0 -211.5 -91t-76.5 -217v-677h-70v684q0 144 -72 222.5
t-197 78.5q-136 0 -211.5 -92.5t-75.5 -232.5v-660h-71z" />
    <glyph glyph-name="uni0438.locl" horiz-adv-x="1121" 
d="M938 1033v-1033h-70v200h-4q-31 -87 -117.5 -152.5t-223.5 -65.5q-155 0 -253 90t-98 261v700h70v-688q0 -137 78 -217t211 -80q157 0 247 109t90 260v616h70z" />
    <glyph glyph-name="uni0439.locl" horiz-adv-x="1121" 
d="M295 1444h61q0 -87 54 -136t151 -49q96 0 146.5 48.5t50.5 136.5h61q0 -100 -66.5 -169.5t-191.5 -69.5q-127 0 -196.5 68.5t-69.5 170.5zM938 1033v-1033h-70v200h-4q-31 -87 -117.5 -152.5t-223.5 -65.5q-155 0 -253 90t-98 261v700h70v-688q0 -137 78 -217t211 -80
q157 0 247 109t90 260v616h70z" />
    <glyph glyph-name="uni0446.locl" horiz-adv-x="1205" 
d="M938 1033v-972h180v-346h-63v285h-187v200h-4q-31 -87 -117.5 -152.5t-223.5 -65.5q-155 0 -253 90t-98 261v700h70v-688q0 -137 78 -217t211 -80q157 0 247 109t90 260v616h70z" />
    <glyph glyph-name="uni0447.locl" horiz-adv-x="1052" 
d="M869 0h-70v505h-8q-43 -53 -123 -85t-179 -32q-163 0 -251 96t-88 258v291h70v-291q0 -134 71.5 -212.5t198.5 -78.5q103 0 186.5 40.5t122.5 104.5v437h70v-1033z" />
    <glyph glyph-name="uni0448.locl" horiz-adv-x="1677" 
d="M1495 1033v-1033h-70v181h-5q-9 -32 -28 -63.5t-52.5 -63.5t-88.5 -52t-123 -20q-127 0 -206 64t-100 158h-5q-8 -34 -29.5 -69.5t-57.5 -71t-95.5 -58.5t-131.5 -23q-148 0 -239.5 88t-91.5 252v711h70v-692q0 -144 73 -219t194 -75q134 0 211.5 91.5t77.5 216.5v678h70
v-688q0 -141 72 -219.5t197 -78.5q136 0 212 93t76 232v661h70z" />
    <glyph glyph-name="uni0449.locl" horiz-adv-x="1761" 
d="M1495 1033v-972h179v-346h-62v285h-187v181h-5q-9 -32 -28 -63.5t-52.5 -63.5t-88.5 -52t-123 -20q-127 0 -206 64t-100 158h-5q-8 -34 -29.5 -69.5t-57.5 -71t-95.5 -58.5t-131.5 -23q-148 0 -239.5 88t-91.5 252v711h70v-692q0 -144 73 -219t194 -75q134 0 211.5 91.5
t77.5 216.5v678h70v-688q0 -141 72 -219.5t197 -78.5q136 0 212 93t76 232v661h70z" />
    <glyph glyph-name="uni044C.locl" horiz-adv-x="990" 
d="M521 -18q-166 0 -257.5 99t-91.5 279v673h70v-356h274q166 0 264 -93.5t98 -252.5q0 -158 -97 -253.5t-260 -95.5zM516 614h-274v-245q0 -155 72.5 -239.5t206.5 -84.5q129 0 208 78.5t79 207.5t-79.5 206t-212.5 77z" />
    <glyph glyph-name="uni044A.locl" horiz-adv-x="1165" 
d="M683 -18q-166 0 -257.5 99t-91.5 279v611h-275v62h345v-356h274q166 0 264 -93.5t98 -252.5q0 -158 -97 -253.5t-260 -95.5zM678 614h-274v-245q0 -155 72.5 -239.5t206.5 -84.5q129 0 208 78.5t79 207.5t-79.5 206t-212.5 77z" />
    <glyph glyph-name="uni044E.locl" horiz-adv-x="1472" 
d="M925 -18q-181 0 -297 118t-116 333v78h-259v-511h-71v1435h71v-863h259v24q0 216 115.5 335.5t297.5 119.5q86 0 160.5 -30t131 -86.5t89 -143.5t32.5 -195v-163q0 -215 -116.5 -333t-296.5 -118zM925 985q-151 0 -246.5 -104t-95.5 -295v-143q0 -191 94.5 -293.5
t248.5 -102.5q152 0 246.5 102.5t94.5 293.5v143q0 189 -96 294t-246 105z" />
    <glyph glyph-name="glyph220" horiz-adv-x="403" 
d="M127 1028q0 30 21.5 52t51.5 22t52 -22t22 -52t-22 -51.5t-52 -21.5t-51.5 21.5t-21.5 51.5zM127 317q0 30 21.5 52t51.5 22t52 -22t22 -52t-22 -51.5t-52 -21.5t-51.5 21.5t-21.5 51.5z" />
    <glyph glyph-name="zero.dnom" horiz-adv-x="522" 
d="M261 -14q-102 0 -159 81t-57 223v46q0 142 57.5 223t159.5 81q101 0 158 -81t57 -223v-46q0 -142 -57 -223t-159 -81zM261 45q69 0 108.5 65t39.5 180v46q0 115 -39.5 180.5t-108.5 65.5t-108.5 -65.5t-39.5 -180.5v-46q0 -115 39.5 -180t108.5 -65z" />
    <glyph glyph-name="one.dnom" horiz-adv-x="363" 
d="M267 0h-68v556h-2q-16 -9 -74.5 -46.5t-75.5 -49.5v68q23 16 80.5 52.5t75.5 46.5h64v-627z" />
    <glyph glyph-name="two.dnom" horiz-adv-x="507" 
d="M122 458h-66v3q0 77 54 128t141 51q86 0 139.5 -47.5t53.5 -122.5q0 -45 -22 -85t-80 -108l-188 -216v-2h303v-59h-397v45l239 273q75 83 75 149q0 50 -34.5 82.5t-89.5 32.5t-91.5 -34.5t-36.5 -86.5v-3z" />
    <glyph glyph-name="three.dnom" horiz-adv-x="515" 
d="M183 294v58h60q58 0 95.5 33.5t36.5 85.5q0 50 -35.5 81t-91.5 31q-53 0 -88 -32t-37 -80h-66q1 73 55 121t137 48q84 0 139 -44.5t56 -115.5q1 -58 -35 -102t-87 -51v-2q62 -5 104.5 -48.5t42.5 -105.5q1 -81 -61 -133t-157 -52q-92 0 -149 49t-58 126h64
q5 -53 44.5 -85t100.5 -32q67 0 108 35.5t40 91.5q0 55 -42.5 89t-111.5 34h-64z" />
    <glyph glyph-name="four.dnom" horiz-adv-x="526" 
d="M310 627h98v-430h86v-59h-86v-138h-65v138h-304v58q31 56 121 198.5t150 232.5zM107 197h236v372h-1q-44 -63 -126 -193t-109 -178v-1z" />
    <glyph glyph-name="five.dnom" horiz-adv-x="532" 
d="M59 155h65q6 -50 45.5 -81t98.5 -31q62 0 105 45t43 111q0 67 -41.5 110t-106.5 43q-46 0 -84 -22.5t-56 -58.5h-60l37 356h335v-59h-279l-26 -221h2q16 25 57.5 43.5t85.5 18.5q88 0 147 -58.5t59 -149.5q0 -94 -63 -155t-159 -61q-87 0 -144 48t-61 122z" />
    <glyph glyph-name="six.dnom" horiz-adv-x="516" 
d="M277 640q75 0 129.5 -47t59.5 -113h-70q-5 41 -40.5 70.5t-81.5 29.5q-76 0 -118.5 -72.5t-44.5 -203.5h1q16 44 62.5 73t104.5 29q85 0 144 -59t59 -147q0 -95 -60 -154t-154 -59q-104 0 -163 73q-63 76 -63 225q0 169 61.5 262t173.5 93zM269 47q63 0 103 41.5
t40 107.5t-40.5 108.5t-102.5 42.5q-65 0 -106 -41t-41 -105q0 -67 41.5 -110.5t105.5 -43.5z" />
    <glyph glyph-name="seven.dnom" horiz-adv-x="492" 
d="M45 627h393v-62l-261 -565h-73l268 566v2h-327v59z" />
    <glyph glyph-name="eight.dnom" horiz-adv-x="532" 
d="M265 -14q-97 0 -158 51t-61 132q0 59 38 104.5t95 57.5v1q-47 13 -78 53t-31 90q0 72 55 118.5t141 46.5t141 -46.5t55 -118.5q0 -50 -30.5 -89.5t-78.5 -53.5v-1q57 -12 95 -57t38 -104q0 -80 -62 -132t-159 -52zM266 355q56 0 92.5 32t36.5 82q0 51 -36 83t-93 32
t-93.5 -32.5t-36.5 -82.5q0 -49 37 -81.5t93 -32.5zM266 42q66 0 109.5 37t43.5 94q0 56 -43.5 92.5t-109.5 36.5q-67 0 -110 -36.5t-43 -92.5q0 -58 43 -94.5t110 -36.5z" />
    <glyph glyph-name="nine.dnom" horiz-adv-x="512" 
d="M42 152h69q6 -46 42.5 -75.5t87.5 -29.5q79 0 120 71.5t41 205.5h-4q-16 -47 -60.5 -75.5t-105.5 -28.5q-86 0 -142 58.5t-56 149.5q0 92 60 151.5t150 59.5q111 0 168.5 -78.5t57.5 -232.5q0 -164 -60 -253t-172 -89q-80 0 -135.5 48t-60.5 118zM248 580
q-63 0 -103.5 -42.5t-40.5 -108.5q0 -67 40 -108.5t103 -41.5q60 0 102 42t42 102q0 71 -39.5 114t-103.5 43z" />
    <glyph glyph-name="plus.dnom" horiz-adv-x="498" 
d="M277 224v-208h-57v208h-189v57h189v199h57v-199h190v-57h-190z" />
    <glyph glyph-name="equal.dnom" horiz-adv-x="498" 
d="M443 309h-388v56h388v-56zM443 138h-388v55h388v-55z" />
    <glyph glyph-name="parenleft.dnom" horiz-adv-x="278" 
d="M184 627h56q-47 -58 -78 -158.5t-31 -207.5q0 -198 108 -382h-59q-53 67 -84.5 168t-31.5 213q0 213 120 367z" />
    <glyph glyph-name="parenright.dnom" horiz-adv-x="278" 
d="M37 627h57q120 -158 120 -367q0 -112 -32 -212.5t-85 -168.5h-59q108 179 108 382q0 106 -31 207.5t-78 158.5z" />
    <glyph glyph-name="zero.numr" horiz-adv-x="522" 
d="M261 719q-102 0 -159 81t-57 223v45q0 143 57.5 224t159.5 81q101 0 158 -81t57 -224v-45q0 -142 -57 -223t-159 -81zM261 777q69 0 108.5 65.5t39.5 180.5v45q0 116 -39.5 181t-108.5 65t-108.5 -65t-39.5 -181v-45q0 -116 39.5 -181t108.5 -65z" />
    <glyph glyph-name="one.numr" horiz-adv-x="363" 
d="M267 732h-68v556h-2q-17 -9 -76 -46.5t-74 -49.5v69q99 67 156 98h64v-627z" />
    <glyph glyph-name="two.numr" horiz-adv-x="507" 
d="M122 1191h-66v2q0 78 54 129t141 51q86 0 139.5 -48t53.5 -123q0 -45 -22 -85t-80 -108l-188 -216v-2h303v-59h-397v45l239 273q41 46 58 79.5t17 69.5q0 51 -34.5 83t-89.5 32t-91.5 -34t-36.5 -86v-3z" />
    <glyph glyph-name="three.numr" horiz-adv-x="515" 
d="M183 1027v58h60q59 0 96 33t36 85q0 50 -35.5 81t-91.5 31q-53 0 -88 -32t-37 -80h-66q1 73 55 121.5t137 48.5q84 0 139 -45t56 -116q1 -57 -35 -101t-87 -52v-2q61 -4 104 -48t43 -106q1 -80 -61 -132t-157 -52q-92 0 -149 48.5t-58 126.5h64q5 -53 44.5 -85.5
t100.5 -32.5q67 0 108 35.5t40 91.5q0 56 -42 90t-112 34h-64z" />
    <glyph glyph-name="four.numr" horiz-adv-x="526" 
d="M310 1359h98v-430h86v-59h-86v-138h-65v138h-304v59q30 55 120 196.5t151 233.5zM107 929h236v372h-1q-42 -60 -125 -191t-110 -180v-1z" />
    <glyph glyph-name="five.numr" horiz-adv-x="532" 
d="M59 888h65q6 -51 45.5 -81.5t98.5 -30.5q62 0 105 45t43 110q0 67 -41.5 110.5t-106.5 43.5q-46 0 -84 -22.5t-56 -59.5h-60l37 356h335v-59h-279l-26 -221h2q16 25 58 44t85 19q88 0 147 -59t59 -150q0 -93 -63 -154t-159 -61q-87 0 -144 47.5t-61 122.5z" />
    <glyph glyph-name="six.numr" horiz-adv-x="516" 
d="M277 1373q75 0 129.5 -47t59.5 -113h-70q-5 41 -40.5 70t-81.5 29q-76 0 -118.5 -72.5t-44.5 -203.5h1q16 44 62.5 73.5t104.5 29.5q85 0 144 -59t59 -148q0 -95 -60 -154t-154 -59q-104 0 -163 73q-63 77 -63 225q0 169 61.5 262.5t173.5 93.5zM269 779q63 0 103 41.5
t40 107.5t-40.5 108.5t-102.5 42.5q-65 0 -106 -40.5t-41 -105.5q0 -67 41.5 -110.5t105.5 -43.5z" />
    <glyph glyph-name="seven.numr" horiz-adv-x="492" 
d="M45 1359h393v-61l-261 -566h-73l268 566v2h-327v59z" />
    <glyph glyph-name="eight.numr" horiz-adv-x="532" 
d="M265 719q-97 0 -158 51t-61 131q0 60 38 105.5t95 56.5v1q-48 14 -78.5 53.5t-30.5 90.5q0 72 55 118.5t141 46.5t141 -46.5t55 -118.5q0 -51 -30.5 -90.5t-78.5 -53.5v-1q57 -11 95 -56t38 -105q0 -80 -62 -131.5t-159 -51.5zM266 1088q56 0 92.5 32t36.5 82
q0 51 -36 82.5t-93 31.5t-93.5 -32t-36.5 -82t37 -82t93 -32zM266 774q66 0 109.5 37t43.5 94q0 56 -43.5 92.5t-109.5 36.5q-67 0 -110 -36.5t-43 -92.5q0 -58 43 -94.5t110 -36.5z" />
    <glyph glyph-name="nine.numr" horiz-adv-x="512" 
d="M42 884h69q6 -46 42.5 -75.5t87.5 -29.5q79 0 120 72t41 206h-4q-16 -47 -60.5 -75.5t-105.5 -28.5q-86 0 -142 58t-56 149q0 92 60 152t150 60q111 0 168.5 -78.5t57.5 -232.5q0 -165 -60 -253.5t-172 -88.5q-81 0 -136 47.5t-60 117.5zM248 1312q-63 0 -103.5 -42
t-40.5 -108q0 -67 40 -109t103 -42q60 0 102 42.5t42 102.5q0 70 -39.5 113t-103.5 43z" />
    <glyph glyph-name="plus.numr" horiz-adv-x="498" 
d="M277 956v-208h-57v208h-189v57h189v199h57v-199h190v-57h-190z" />
    <glyph glyph-name="equal.numr" horiz-adv-x="498" 
d="M443 1042h-388v55h388v-55zM443 870h-388v56h388v-56z" />
    <glyph glyph-name="parenleft.numr" horiz-adv-x="278" 
d="M184 1359h56q-47 -58 -78 -158.5t-31 -207.5q0 -197 108 -381h-59q-53 67 -84.5 168t-31.5 213q0 212 120 366z" />
    <glyph glyph-name="parenright.numr" horiz-adv-x="278" 
d="M37 1359h57q120 -157 120 -366q0 -112 -32 -213t-85 -168h-59q108 179 108 381q0 107 -31 207.5t-78 158.5z" />
    </font>
</defs>
</svg>
