<?xml version="1.0" standalone="no"?>
<!DOCTYPE svg PUBLIC "-//W3C//DTD SVG 1.1//EN" "http://www.w3.org/Graphics/SVG/1.1/DTD/svg11.dtd" >
<svg xmlns="http://www.w3.org/2000/svg" xmlns:xlink="http://www.w3.org/1999/xlink" version="1.1">
<metadata>
Created by FontForge 20190801 at Tue Nov  3 19:40:47 2020
 By root
(c) 2015-2020 Apple Inc. All rights reserved.
</metadata>
<defs>
<font id="SFCompactDisplay-Regular" horiz-adv-x="1138" >
  <font-face 
    font-family="SF Compact Display"
    font-weight="400"
    font-stretch="normal"
    units-per-em="2048"
    panose-1="2 11 3 4 3 2 2 6 2 4"
    ascent="1638"
    descent="-410"
    x-height="1051"
    cap-height="1365"
    bbox="-86 -486.696 2048 1782"
    underline-thickness="50"
    underline-position="-100"
    unicode-range="U+0020-2122"
  />
<missing-glyph horiz-adv-x="2048" 
 />
    <glyph glyph-name=".notdef" horiz-adv-x="2048" 
 />
    <glyph glyph-name="space" unicode=" " horiz-adv-x="410" 
 />
    <glyph glyph-name="exclam" unicode="!" horiz-adv-x="517" 
d="M161 1365h195l-22 -959h-151zM143 94q0 48 33.5 81t81.5 33t81.5 -33t33.5 -81q0 -47 -33.5 -80t-81.5 -33q-47 0 -81 33t-34 80z" />
    <glyph glyph-name="quotedbl" unicode="&#x22;" horiz-adv-x="731" 
d="M114 1365h174l-25 -478h-124zM443 1365h174l-25 -478h-124z" />
    <glyph glyph-name="numbersign" unicode="#" horiz-adv-x="1190" 
d="M1148 854h-228l-69 -331h226l-27 -134h-226l-78 -389h-138l79 389h-317l-80 -389h-138l78 389h-214l28 134h216l67 331h-213l26 132h214l76 379h140l-78 -379h318l77 379h137l-77 -379h228zM464 856l-70 -336h321l70 336h-321z" />
    <glyph glyph-name="dollar" unicode="$" 
d="M110 357h168q16 -81 81 -134t164 -68v474l-70 19q-147 38 -226.5 126.5t-79.5 216.5q0 148 104 249.5t272 121.5v145h120v-142q172 -11 282.5 -103.5t124.5 -234.5h-169q-17 80 -79.5 130t-158.5 60v-447l83 -22q175 -46 257.5 -131.5t82.5 -224.5q0 -164 -113.5 -268
t-309.5 -120v-143h-120v143q-178 13 -289 109t-124 244zM500 808l23 -6v411q-95 -17 -151 -74.5t-56 -140.5q0 -142 184 -190zM683 588l-40 10v-446q118 10 185.5 70.5t67.5 157.5q0 80 -51 129.5t-162 78.5z" />
    <glyph glyph-name="percent" unicode="%" horiz-adv-x="1400" 
d="M293 741q-123 0 -191 86.5t-68 230.5v43q0 143 69.5 229.5t192.5 86.5t191 -86t68 -230v-43q0 -139 -68.5 -228t-193.5 -89zM263 0h-166l525 687l516 678h166l-523 -685zM294 871q46 0 72.5 48t26.5 140v41q0 92 -26.5 139.5t-72.5 47.5q-45 0 -71.5 -47.5t-26.5 -139.5
v-41q0 -92 26.5 -140t71.5 -48zM1104 -12q-122 0 -190.5 86.5t-68.5 230.5v42q0 143 70 229.5t193 86.5t190.5 -85.5t67.5 -230.5v-42q0 -140 -68 -228.5t-194 -88.5zM1106 118q46 0 72.5 47.5t26.5 140.5v40q0 92 -26.5 139.5t-72.5 47.5t-72.5 -47.5t-26.5 -139.5v-40
q0 -93 26.5 -140.5t72.5 -47.5z" />
    <glyph glyph-name="ampersand" unicode="&#x26;" horiz-adv-x="1299" 
d="M1095 0l-123 133q-95 -84 -209 -121.5t-224 -37.5q-127 0 -230 45t-164.5 134t-61.5 206q0 127 70 217t197 160q5 3 15 8t18.5 9t16.5 8q-81 86 -124.5 157.5t-43.5 156.5q0 127 97 214.5t248 87.5q148 0 246.5 -85.5t98.5 -219.5q0 -49 -15.5 -92.5t-40 -77.5t-64 -66.5
t-78.5 -57t-92 -52.5l331 -361q63 118 63 372v41h160v-42q0 -315 -111 -485l236 -251h-216zM539 822q112 58 166.5 111t54.5 134q0 79 -51 127.5t-131 48.5q-81 0 -131.5 -50t-50.5 -128q0 -54 31 -108t112 -135zM449 636q-96 -52 -146 -114.5t-50 -150.5q0 -83 44 -142
t110.5 -86t146.5 -27q84 0 171 31t147 94l-379 418q-35 -18 -44 -23z" />
    <glyph glyph-name="quotesingle" unicode="'" horiz-adv-x="402" 
d="M114 1365h174l-25 -478h-124z" />
    <glyph glyph-name="parenleft" unicode="(" horiz-adv-x="670" 
d="M487 1437h143q-109 -125 -181 -365.5t-72 -489.5q0 -239 61 -451.5t189 -439.5h-149q-129 164 -200.5 395.5t-71.5 493.5q0 266 68 474.5t213 382.5z" />
    <glyph glyph-name="parenright" unicode=")" horiz-adv-x="670" 
d="M39 1437h143q145 -174 213.5 -382.5t68.5 -474.5q0 -262 -71.5 -493.5t-200.5 -395.5h-150q129 226 189.5 439t60.5 452q0 249 -72 489.5t-181 365.5z" />
    <glyph glyph-name="asterisk" unicode="*" horiz-adv-x="930" 
d="M524 746h-117l12 242l-203 -134l-60 105l213 108l-213 109l60 106l203 -137l-13 245h119l-14 -244l203 136l60 -105l-214 -110l214 -108l-60 -105l-203 134z" />
    <glyph glyph-name="plus" unicode="+" 
d="M639 472v-446h-141v446h-408v142h408v422h141v-422h410v-142h-410z" />
    <glyph glyph-name="comma" unicode="," horiz-adv-x="430" 
d="M182 -284h-132l88 479h181z" />
    <glyph glyph-name="hyphen" unicode="-" horiz-adv-x="786" 
d="M708 483h-630v154h630v-154z" />
    <glyph glyph-name="hyphen" unicode="&#x2011;" horiz-adv-x="786" 
d="M708 483h-630v154h630v-154z" />
    <glyph glyph-name="hyphen" unicode="&#x2010;" horiz-adv-x="786" 
d="M708 483h-630v154h630v-154z" />
    <glyph glyph-name="period" unicode="." horiz-adv-x="482" 
d="M127 96q0 48 34 82t81 34q48 0 82 -34t34 -82q0 -47 -34 -81t-82 -34q-47 0 -81 34t-34 81z" />
    <glyph glyph-name="slash" unicode="/" horiz-adv-x="670" 
d="M168 -309h-159l492 1746h159z" />
    <glyph glyph-name="zero" unicode="0" horiz-adv-x="1155" 
d="M97 628v106q0 306 126 483t356 177t354.5 -176.5t124.5 -483.5v-106q0 -305 -124.5 -481t-355.5 -176q-230 0 -355.5 176t-125.5 481zM270 733v-103q0 -241 82 -373.5t226 -132.5t225.5 133t81.5 373v103q0 241 -82 374.5t-225 133.5q-144 0 -226 -133.5t-82 -374.5z" />
    <glyph glyph-name="one" unicode="1" horiz-adv-x="806" 
d="M609 0h-173v1180h-3q-152 -82 -322 -199v178q140 101 336 206h162v-1365z" />
    <glyph glyph-name="two" unicode="2" horiz-adv-x="1107" 
d="M286 988h-170v6q0 79 29 151t82 127.5t136 88.5t184 33q189 0 305.5 -105.5t116.5 -268.5q0 -48 -13 -95.5t-28.5 -81.5t-53.5 -85.5t-60 -78.5t-77 -91l-368 -432v-3h626v-153h-870v110l510 591q37 42 58.5 69.5t47.5 68.5t38.5 83t12.5 86q0 107 -70.5 171t-179.5 64
q-117 0 -186.5 -72.5t-69.5 -176.5v-6z" />
    <glyph glyph-name="three" unicode="3" horiz-adv-x="1128" 
d="M407 628v152h131q116 0 189.5 66.5t72.5 170.5q-1 101 -70 164t-183 63q-118 0 -180.5 -65.5t-70.5 -154.5h-167q2 69 29 133.5t77 118t131.5 86t180.5 32.5q189 0 307 -99t123 -249q3 -134 -77 -226t-171 -107v-3q47 -4 95.5 -25.5t94.5 -60t76 -102.5t32 -143
q2 -115 -60 -209t-174 -147t-252 -53q-210 0 -325 108.5t-121 274.5h164q15 -103 86.5 -167.5t201.5 -64.5q143 0 224 72t79 187q-2 113 -82.5 180.5t-221.5 67.5h-139z" />
    <glyph glyph-name="four" unicode="4" horiz-adv-x="1164" 
d="M670 1365h252v-928h178v-154h-178v-283h-167v283h-663v150q234 422 578 932zM267 437h488v776h-3q-258 -377 -485 -774v-2z" />
    <glyph glyph-name="five" unicode="5" horiz-adv-x="1187" 
d="M137 343h168q16 -106 94.5 -163.5t198.5 -57.5q73 0 141 35t115.5 109.5t47.5 173.5q0 142 -86.5 228.5t-214.5 86.5q-116 0 -190.5 -52.5t-109.5 -129.5h-148l75 794h748v-153h-601l-45 -428h3q30 42 112 79.5t182 37.5q188 0 319.5 -128.5t131.5 -329.5
q0 -138 -64.5 -246.5t-176.5 -168t-250 -59.5q-103 0 -187 30t-139 82t-87 118.5t-37 141.5z" />
    <glyph glyph-name="six" unicode="6" horiz-adv-x="1134" 
d="M1016 1048h-175q-6 69 -71 131t-174 62q-141 0 -234 -138t-101 -417h3q33 82 125.5 142t216.5 60q85 0 164 -30t142.5 -85t102 -141.5t38.5 -191.5q0 -215 -134 -341.5t-336 -126.5q-226 0 -356 161q-136 171 -136 497q0 372 140.5 566.5t371.5 194.5q91 0 168.5 -30
t128 -79.5t81 -110t35.5 -123.5zM286 429q0 -144 87.5 -225t212.5 -81q58 0 109.5 19t94 55t67 96.5t24.5 136.5q0 100 -44 171.5t-110 104t-143 32.5q-125 0 -211.5 -82.5t-86.5 -226.5z" />
    <glyph glyph-name="seven" unicode="7" horiz-adv-x="1078" 
d="M96 1365h866v-160l-559 -1205h-183l575 1209v3h-699v153z" />
    <glyph glyph-name="eight" unicode="8" horiz-adv-x="1175" 
d="M584 -29q-211 0 -344.5 111.5t-133.5 289.5q0 76 26.5 140t69.5 104.5t88 66t92 36.5v2q-38 13 -75 37t-71 61t-55 91.5t-21 118.5q0 159 121 262t307 103t307.5 -103t121.5 -262q0 -65 -22 -120.5t-57 -92t-71 -60t-73 -35.5v-2q47 -11 92 -36.5t88 -66.5t69 -104.5
t26 -138.5q0 -177 -137 -289.5t-348 -112.5zM588 784q113 0 186 65t73 168q0 102 -72.5 165.5t-186.5 63.5q-113 0 -186 -63.5t-73 -165.5t73.5 -167.5t185.5 -65.5zM588 117q134 0 222.5 73t88.5 188q0 116 -88 189.5t-223 73.5q-134 0 -222.5 -73.5t-88.5 -189.5
q0 -115 88.5 -188t222.5 -73z" />
    <glyph glyph-name="nine" unicode="9" horiz-adv-x="1134" 
d="M107 334h175q9 -81 80 -145.5t189 -64.5q160 0 246.5 148.5t87.5 405.5h-7q-31 -86 -124.5 -144t-229.5 -58q-83 0 -159 29.5t-137 85t-97 143t-36 195.5q0 140 66 247.5t169.5 161.5t224.5 54q500 0 500 -683q0 -347 -135.5 -541t-376.5 -194q-102 0 -185.5 33
t-135.5 86t-81 115t-34 126zM863 927q0 153 -84 234t-213 81q-58 0 -110.5 -19t-95 -56t-68 -98t-25.5 -137q0 -149 84.5 -228t208.5 -79q123 0 213 86t90 216z" />
    <glyph glyph-name="colon" unicode=":" horiz-adv-x="526" 
d="M144 808q0 47 34 81t82 34q47 0 81 -34t34 -81q0 -48 -34 -82t-81 -34q-48 0 -82 34t-34 82zM144 96q0 48 34 82t82 34q47 0 81 -34t34 -82q0 -47 -34 -81t-81 -34q-48 0 -82 34t-34 81z" />
    <glyph glyph-name="semicolon" unicode=";" horiz-adv-x="527" 
d="M145 808q0 47 34 81t81 34q48 0 82 -34t34 -81q0 -48 -34 -82t-82 -34q-47 0 -81 34t-34 82zM207 -284h-134l84 479h180z" />
    <glyph glyph-name="less" unicode="&#x3c;" 
d="M141 440v141l855 515v-183l-674 -391v-10l674 -369v-182z" />
    <glyph glyph-name="equal" unicode="=" 
d="M987 659h-836v140h836v-140zM987 293h-836v138h836v-138z" />
    <glyph glyph-name="greater" unicode="&#x3e;" 
d="M997 581v-141l-856 -479v182l676 369v10l-676 391v183z" />
    <glyph glyph-name="question" unicode="?" horiz-adv-x="947" 
d="M66 1007q0 86 25 154.5t65.5 112t95.5 72t111 40t116 11.5q79 0 149.5 -21t127.5 -62t90.5 -107.5t33.5 -150.5q0 -48 -12 -91t-28 -72.5t-45.5 -62.5t-50.5 -51.5t-57 -47.5q-97 -77 -127 -119t-30 -123v-61h-168l-1 87q0 51 14.5 95t45.5 82.5t58.5 64t72.5 61.5
q44 36 64.5 54t45 47t33.5 59t9 68q0 103 -66.5 153.5t-165.5 50.5q-117 0 -179 -67.5t-62 -175.5h-165zM335 94q0 48 33.5 81t81.5 33t81.5 -33t33.5 -81q0 -47 -33.5 -80t-81.5 -33q-47 0 -81 33t-34 80z" />
    <glyph glyph-name="at" unicode="@" horiz-adv-x="1669" 
d="M1245 133q-100 0 -159.5 41.5t-70.5 96.5h-10q-14 -52 -75 -95t-144 -43q-123 0 -192 89.5t-69 238.5v90q0 146 71 235t199 89q78 0 129.5 -39t67.5 -88h8v113h141v-488q0 -58 34 -89t89 -31q81 0 135 87t54 255v36q0 110 -39.5 209t-112.5 176t-186.5 122t-251.5 45h-8
q-131 0 -245 -45.5t-197.5 -128t-131.5 -205t-48 -270.5v-47q0 -155 49 -277.5t134.5 -199t195.5 -116t238 -39.5h8q208 0 326 51v-127q-103 -48 -327 -48h-8q-158 0 -294 47.5t-239.5 139t-163 236.5t-59.5 327v59q0 230 100 405.5t272.5 268.5t389.5 93h8q171 0 311.5 -56
t230 -150.5t137.5 -214.5t48 -251v-51q0 -203 -97.5 -327t-247.5 -124zM672 480q0 -112 43.5 -165.5t119.5 -53.5q75 0 118.5 51.5t43.5 159.5v80q0 97 -46 150.5t-118 53.5q-71 0 -116 -54t-45 -159v-63z" />
    <glyph glyph-name="A" unicode="A" horiz-adv-x="1200" 
d="M207 0h-182l486 1365h178l486 -1365h-184l-138 410h-508zM602 1159h-5l-205 -608h414z" />
    <glyph glyph-name="B" unicode="B" horiz-adv-x="1222" 
d="M164 0v1365h512q174 0 276.5 -91t102.5 -245q0 -115 -56.5 -192t-161.5 -110v-7q139 -19 217.5 -107.5t78.5 -230.5q0 -178 -128 -280t-349 -102h-492zM338 1212v-435h209q171 0 251.5 54t80.5 168q0 101 -60.5 157t-170.5 56h-310zM338 627v-474h237q202 0 290.5 53.5
t88.5 174.5q0 117 -75 181.5t-212 64.5h-329z" />
    <glyph glyph-name="C" unicode="C" horiz-adv-x="1248" 
d="M284 768v-179q0 -221 94 -341t269 -120q144 0 234.5 78.5t94.5 205.5h172v-4q0 -189 -142.5 -313t-359.5 -124q-253 0 -394.5 163.5t-141.5 454.5v179q0 295 141.5 460.5t394.5 165.5q218 0 360 -130t142 -331v-3h-172q-4 137 -94.5 222t-234.5 85q-175 0 -269 -122
t-94 -347z" />
    <glyph glyph-name="D" unicode="D" horiz-adv-x="1291" 
d="M164 1365h438q297 0 448.5 -172.5t151.5 -509.5q0 -336 -152 -509.5t-448 -173.5h-438v1365zM339 1209v-1053h253q429 0 429 527q0 526 -429 526h-253z" />
    <glyph glyph-name="E" unicode="E" horiz-adv-x="1098" 
d="M983 156v-156h-819v1365h819v-156h-645v-436h609v-152h-609v-465h645z" />
    <glyph glyph-name="F" unicode="F" horiz-adv-x="1029" 
d="M339 0h-175v1365h806v-156h-631v-464h579v-156h-579v-589z" />
    <glyph glyph-name="G" unicode="G" horiz-adv-x="1273" 
d="M1160 949h-173q-17 135 -105.5 211.5t-229.5 76.5q-174 0 -271 -117t-97 -326v-202q0 -223 96 -343.5t277 -120.5q150 0 243 83t93 216v132h-352v152h522v-281q0 -197 -143 -328t-364 -131q-265 0 -405.5 161.5t-140.5 459.5v202q0 280 144 440t398 160
q217 0 355.5 -122.5t152.5 -322.5z" />
    <glyph glyph-name="H" unicode="H" horiz-adv-x="1364" 
d="M1201 0h-175v629h-687v-629h-175v1365h175v-581h687v581h175v-1365z" />
    <glyph glyph-name="I" unicode="I" horiz-adv-x="502" 
d="M339 0h-175v1365h175v-1365z" />
    <glyph glyph-name="J" unicode="J" horiz-adv-x="965" 
d="M24 313h171q4 -83 58.5 -133t153.5 -50q114 0 169 68.5t55 207.5v959h175v-959q0 -210 -103.5 -322.5t-295.5 -112.5q-172 0 -277.5 95.5t-105.5 246.5z" />
    <glyph glyph-name="K" unicode="K" horiz-adv-x="1185" 
d="M1146 1365l-509 -581l536 -784h-222l-444 663l-168 -183v-480h-175v1365h175v-660h7l594 660h206z" />
    <glyph glyph-name="L" unicode="L" horiz-adv-x="989" 
d="M967 157v-157h-803v1365h175v-1208h628z" />
    <glyph glyph-name="M" unicode="M" horiz-adv-x="1585" 
d="M327 0h-158v1365h170l452 -1055h4l451 1055h170v-1365h-158v992h-6l-386 -878h-148l-386 878h-5v-992z" />
    <glyph glyph-name="N" unicode="N" horiz-adv-x="1361" 
d="M331 0h-167v1365h168l694 -1066h4v1066h167v-1365h-168l-694 1067h-4v-1067z" />
    <glyph glyph-name="O" unicode="O" horiz-adv-x="1314" 
d="M1204 575q0 -286 -148.5 -445t-400.5 -159q-251 0 -398 159t-147 445v201q0 288 149 453t400 165q250 0 397.5 -164.5t147.5 -453.5v-201zM1029 777q0 221 -103.5 340.5t-268.5 119.5q-164 0 -268 -119.5t-104 -340.5v-202q0 -220 103 -333.5t269 -113.5
q167 0 269.5 113.5t102.5 333.5v202z" />
    <glyph glyph-name="P" unicode="P" horiz-adv-x="1149" 
d="M661 1365q195 0 314.5 -117t119.5 -308q0 -192 -119.5 -308t-314.5 -116h-323v-516h-174v1365h497zM916 940q0 128 -70.5 199t-197.5 71h-310v-540h207q75 0 129 6.5t102 24t77.5 47.5t46 78t16.5 114z" />
    <glyph glyph-name="Q" unicode="Q" horiz-adv-x="1314" 
d="M1215 -154h-196l-126 173q-110 -48 -238 -48q-250 0 -397.5 162t-147.5 449v200q0 287 147.5 449.5t397.5 162.5q251 0 399.5 -162.5t148.5 -449.5v-200q0 -312 -176 -475zM283 583q0 -222 103.5 -339.5t268.5 -118.5q74 0 141 28l-185 253h196l119 -159q103 121 103 336
v198q0 221 -104 338.5t-270 117.5q-165 0 -268.5 -117.5t-103.5 -338.5v-198z" />
    <glyph glyph-name="R" unicode="R" horiz-adv-x="1213" 
d="M657 1365q110 0 196 -33t138 -90.5t78.5 -129.5t26.5 -154q0 -80 -22 -147t-60.5 -112t-81 -74.5t-90.5 -46.5l278 -578h-199l-252 543h-331v-543h-174v1365h493zM338 696h289q142 0 215.5 65t73.5 187q0 128 -75.5 195.5t-205.5 67.5h-297v-515z" />
    <glyph glyph-name="S" unicode="S" horiz-adv-x="1155" 
d="M61 368h175q10 -105 97.5 -173.5t238.5 -68.5q143 0 227.5 65t84.5 176q0 84 -54 135t-169 81l-240 63q-65 17 -119 44.5t-100.5 69.5t-73 104.5t-26.5 139.5q0 93 39.5 169t105.5 124t150.5 74t177.5 26q71 0 137.5 -14.5t127 -46t105.5 -76t72.5 -109.5t29.5 -142h-173
q-9 103 -87.5 168.5t-215.5 65.5q-130 0 -211 -60t-81 -167q0 -154 192 -202l236 -63q83 -22 144.5 -51t111 -72.5t74.5 -105.5t25 -142q0 -98 -39.5 -177t-108.5 -129t-161.5 -76.5t-199.5 -26.5q-129 0 -227.5 36.5t-153.5 96.5t-82 126.5t-29 137.5z" />
    <glyph glyph-name="T" unicode="T" horiz-adv-x="1043" 
d="M608 0h-173v1209h-415v156h1003v-156h-415v-1209z" />
    <glyph glyph-name="U" unicode="U" horiz-adv-x="1331" 
d="M665 128q157 0 251 95t94 254v888h173v-911q0 -215 -139 -349t-379 -134q-239 0 -378 134t-139 349v911h173v-888q0 -160 93.5 -254.5t250.5 -94.5z" />
    <glyph glyph-name="V" unicode="V" horiz-adv-x="1197" 
d="M508 0l-491 1365h199l381 -1140h6l379 1140h198l-492 -1365h-180z" />
    <glyph glyph-name="W" unicode="W" horiz-adv-x="1671" 
d="M546 0h-157l-375 1365h193l264 -1068h5l271 1068h178l269 -1068h6l264 1068h194l-377 -1365h-155l-287 1071h-6z" />
    <glyph glyph-name="X" unicode="X" horiz-adv-x="1124" 
d="M1118 1365l-453 -689l443 -676h-210l-341 540h-9l-344 -540h-198l447 688l-440 677h210l344 -541h9l341 541h201z" />
    <glyph glyph-name="Y" unicode="Y" horiz-adv-x="1088" 
d="M630 0h-173v588l-457 777h200l341 -606h6l342 606h198l-457 -776v-589z" />
    <glyph glyph-name="Z" unicode="Z" horiz-adv-x="1146" 
d="M83 0v123l731 1082v5h-705v155h921v-121l-726 -1084v-5h743v-155h-964z" />
    <glyph glyph-name="bracketleft" unicode="[" horiz-adv-x="670" 
d="M185 1437h445v-136h-281v-1474h281v-136h-445v1746z" />
    <glyph glyph-name="backslash" unicode="\" horiz-adv-x="670" 
d="M660 -309h-159l-492 1746h159z" />
    <glyph glyph-name="bracketright" unicode="]" horiz-adv-x="670" 
d="M39 1437h446v-1746h-446v136h283v1474h-283v136z" />
    <glyph glyph-name="asciicircum" unicode="^" horiz-adv-x="757" 
d="M710 795h-147l-182 430h-5l-183 -430h-146l250 570h165z" />
    <glyph glyph-name="underscore" unicode="_" horiz-adv-x="842" 
d="M870 -239h-898v136h898v-136z" />
    <glyph glyph-name="grave" unicode="`" horiz-adv-x="945" 
d="M633 1187h-132l-227 273h175z" />
    <glyph glyph-name="a" unicode="a" horiz-adv-x="1054" 
d="M436 -17q-153 0 -248 87.5t-95 231.5q0 140 95.5 220t273.5 81h277v107q0 103 -57.5 158.5t-164.5 55.5q-99 0 -156.5 -47t-65.5 -127h-162q9 144 107.5 231t282.5 87q173 0 280 -90.5t107 -252.5v-725h-165v131h-5q-92 -148 -304 -148zM482 126q111 0 184 62.5t73 160.5
v122h-264q-104 0 -155 -44t-51 -119q0 -88 62 -135t151 -47z" />
    <glyph glyph-name="b" unicode="b" horiz-adv-x="1170" 
d="M640 -17q-214 0 -314 175h-5v-158h-165v1437h172v-530h5q41 70 126 115t183 45q188 0 302.5 -129t114.5 -361v-102q0 -227 -114 -359.5t-305 -132.5zM619 133q121 0 194 92.5t73 258.5v83q0 166 -73 258t-194 92q-139 0 -216 -90.5t-77 -259.5v-81q0 -170 77 -261.5
t216 -91.5z" />
    <glyph glyph-name="c" unicode="c" horiz-adv-x="1042" 
d="M111 478v104q0 216 117 351t319 135q116 0 208 -47.5t139.5 -120t52.5 -154.5h-169q-18 71 -78 120.5t-142 49.5q-130 0 -202.5 -90.5t-72.5 -250.5v-98q0 -155 75 -248.5t201 -93.5q94 0 153 43.5t74 110.5h169q-27 -141 -130.5 -223.5t-277.5 -82.5q-136 0 -236 66
t-150 177t-50 252z" />
    <glyph glyph-name="d" unicode="d" horiz-adv-x="1166" 
d="M531 1067q101 0 181 -45t121 -117h5v532h172v-1437h-165v158h-4q-45 -82 -125.5 -128t-184.5 -46q-201 0 -310.5 134.5t-109.5 359.5v95q0 219 112.5 356.5t307.5 137.5zM555 917q-122 0 -196.5 -90t-74.5 -260v-83q0 -170 75 -260t199 -90q133 0 208 91.5t75 257.5v84
q0 160 -77 255t-209 95z" />
    <glyph glyph-name="e" unicode="e" horiz-adv-x="1084" 
d="M552 -17q-204 0 -322.5 133.5t-118.5 358.5v118q0 212 115 343.5t318 131.5t318 -133.5t115 -353.5v-98h-694v-19q0 -152 73 -244.5t200 -92.5q90 0 150 42t86 117h171q-31 -137 -137 -220t-274 -83zM283 622h522v3q0 128 -72 213.5t-188 85.5q-117 0 -189.5 -86
t-72.5 -213v-3z" />
    <glyph glyph-name="f" unicode="f" horiz-adv-x="678" 
d="M219 0v907h-142v144h142v105q0 151 77.5 222.5t239.5 71.5q41 0 77 -6v-141q-30 4 -54 4q-89 0 -129 -36t-40 -129v-91h207v-144h-206v-907h-172z" />
    <glyph glyph-name="g" unicode="g" horiz-adv-x="1165" 
d="M563 -241q126 0 200 69.5t74 192.5v155h-5q-33 -71 -114.5 -118.5t-185.5 -47.5q-189 0 -304.5 128t-115.5 359v87q0 227 115.5 355t304.5 128q103 0 185 -47t121 -117h5v148h166v-1032q0 -98 -36 -176t-98.5 -127t-142 -75t-170.5 -26q-192 0 -300 84t-127 223h176
q15 -68 82 -115.5t170 -47.5zM565 919q-133 0 -207 -91t-74 -257v-65q0 -164 74.5 -256.5t206.5 -92.5q128 0 200 93t72 256v65q0 160 -73.5 254t-198.5 94z" />
    <glyph glyph-name="h" unicode="h" horiz-adv-x="1153" 
d="M156 0v1437h172v-525h5q36 62 113.5 109t192.5 47q168 0 272.5 -103.5t104.5 -290.5v-674h-172v645q0 130 -69 198.5t-188 68.5q-128 0 -193.5 -77.5t-65.5 -194.5v-640h-172z" />
    <glyph glyph-name="i" unicode="i" horiz-adv-x="499" 
d="M139 1304q0 46 32 78t78 32t78.5 -32t32.5 -78t-32.5 -77.5t-78.5 -31.5t-78 31.5t-32 77.5zM163 0v1051h172v-1051h-172z" />
    <glyph glyph-name="j" unicode="j" horiz-adv-x="499" 
d="M139 1304q0 46 32 78t78 32t78.5 -32t32.5 -78t-32.5 -77.5t-78.5 -31.5t-78 31.5t-32 77.5zM335 1051v-1076q0 -344 -284 -344q-66 0 -100 9v137q27 -5 66 -5q80 0 113 48.5t33 156.5v1074h172z" />
    <glyph glyph-name="k" unicode="k" horiz-adv-x="972" 
d="M328 379v-379h-172v1437h172v-851h7l419 465h213l-415 -457l441 -594h-211l-357 485z" />
    <glyph glyph-name="l" unicode="l" horiz-adv-x="491" 
d="M160 0v1437h171v-1437h-171z" />
    <glyph glyph-name="m" unicode="m" horiz-adv-x="1734" 
d="M153 0v1051h171v-129h9q28 60 98.5 103t167.5 43q236 0 303 -169h8q32 73 116 121t206 48q165 0 259 -95t94 -258v-715h-171v680q0 104 -59 168.5t-168 64.5t-170.5 -68.5t-61.5 -180.5v-664h-171v664q0 120 -60.5 184.5t-168.5 64.5q-100 0 -165 -65.5t-65 -181.5v-666
h-172z" />
    <glyph glyph-name="n" unicode="n" horiz-adv-x="1150" 
d="M153 0v1051h171v-139h5q36 62 113.5 109t193.5 47q167 0 272 -103.5t105 -290.5v-674h-172v645q0 130 -69.5 198.5t-187.5 68.5q-128 0 -193.5 -77.5t-65.5 -194.5v-640h-172z" />
    <glyph glyph-name="o" unicode="o" horiz-adv-x="1125" 
d="M563 1068q214 0 332 -138t118 -356v-94q0 -221 -117.5 -359t-332.5 -138t-333.5 138t-118.5 359v94q0 218 119 356t333 138zM563 921q-134 0 -207 -94.5t-73 -258.5v-82q0 -163 73 -258.5t207 -95.5q133 0 205.5 95t72.5 259v82q0 164 -72.5 258.5t-205.5 94.5z" />
    <glyph glyph-name="p" unicode="p" horiz-adv-x="1159" 
d="M629 -17q-97 0 -173.5 42.5t-122.5 114.5h-5v-489h-172v1400h165v-151h5q47 77 127 122t183 45q182 0 297 -132.5t115 -360.5v-97q0 -227 -115.5 -360.5t-303.5 -133.5zM612 133q120 0 191.5 93.5t71.5 263.5v78q0 166 -70.5 258.5t-197.5 92.5q-130 0 -206 -96t-76 -254
v-79q0 -163 77 -260t210 -97z" />
    <glyph glyph-name="q" unicode="q" horiz-adv-x="1168" 
d="M523 1067q216 0 319 -164h5v148h165v-1400h-172v499h-5q-36 -72 -119.5 -119.5t-195.5 -47.5q-187 0 -298 136.5t-111 369.5v83q0 225 112.5 360t299.5 135zM557 917q-128 0 -200.5 -93.5t-72.5 -260.5v-69q0 -167 73 -265t202 -98q132 0 208 98.5t76 264.5v69
q0 161 -76.5 257.5t-209.5 96.5z" />
    <glyph glyph-name="r" unicode="r" horiz-adv-x="693" 
d="M153 0v1051h172v-129h5q29 58 93.5 101.5t165.5 43.5q30 0 65 -5v-157q-24 4 -84 4q-244 0 -244 -258v-651h-173z" />
    <glyph glyph-name="s" unicode="s" horiz-adv-x="992" 
d="M110 750q0 80 32 142.5t87 100t123.5 56.5t146.5 19q178 0 276 -89t98 -226h-160q-2 33 -14 61.5t-36 55t-67.5 42t-102.5 15.5q-97 0 -156 -41.5t-59 -117.5q0 -25 9 -45.5t21 -35t35 -27t40.5 -20t50 -16t50.5 -12t53 -9.5q67 -12 114.5 -24.5t97.5 -35t81 -52
t50.5 -75.5t19.5 -106q0 -154 -113.5 -240.5t-302.5 -86.5q-176 0 -284 80t-108 220h168q12 -74 73 -116.5t164 -42.5q115 0 174.5 47t59.5 118q0 29 -8 51.5t-28.5 39.5t-39 28t-56 21.5t-61 15.5t-71.5 15q-65 13 -113 27t-96.5 37.5t-79 53t-49.5 73.5t-19 99z" />
    <glyph glyph-name="t" unicode="t" horiz-adv-x="690" 
d="M219 1051v262h171v-262h208v-144h-208v-615q0 -93 36.5 -125.5t134.5 -32.5q30 0 44 2v-138q-35 -7 -87 -7q-93 0 -152 17.5t-91.5 57.5t-44.5 92.5t-12 135.5v613h-141v144h142z" />
    <glyph glyph-name="u" unicode="u" horiz-adv-x="1144" 
d="M991 1051v-1051h-171v138h-7q-30 -68 -107.5 -111.5t-196.5 -43.5q-168 0 -270 94.5t-102 270.5v703h173v-654q0 -138 68.5 -198.5t182.5 -60.5q116 0 186.5 69.5t70.5 192.5v651h173z" />
    <glyph glyph-name="v" unicode="v" horiz-adv-x="938" 
d="M372 0l-368 1051h182l274 -844h6l294 844h174l-377 -1051h-185z" />
    <glyph glyph-name="w" unicode="w" horiz-adv-x="1470" 
d="M1430 1051l-275 -1051h-178l-240 810h-4l-239 -810h-179l-274 1051h174l193 -831h8l237 831h164l238 -831h8l193 831h174z" />
    <glyph glyph-name="x" unicode="x" horiz-adv-x="989" 
d="M757 0l-268 397h-1l-266 -397h-195l361 526l-352 525h206l257 -399h1l257 399h197l-354 -525l362 -526h-205z" />
    <glyph glyph-name="y" unicode="y" horiz-adv-x="959" 
d="M954 1051q-5 -15 -98.5 -279t-184.5 -520t-92 -257l-27 -73q-60 -163 -143 -227t-219 -64q-54 0 -97 9v140q34 -4 76 -4q90 0 137.5 34.5t69.5 117.5l16 57l-387 1066h191l284 -860h6l285 860h183z" />
    <glyph glyph-name="z" unicode="z" horiz-adv-x="967" 
d="M100 0v127l564 769v6h-560v149h774v-128l-562 -769v-5h568v-149h-784z" />
    <glyph glyph-name="braceleft" unicode="{" horiz-adv-x="670" 
d="M199 595v-23q170 -15 170 -224v-310q0 -111 50 -161t170 -50h41v-136h-57q-178 0 -271 80t-93 255v265q0 109 -35.5 155t-134.5 46v181q99 0 134.5 46.5t35.5 155.5v236q0 174 92.5 250t271.5 76h57v-135h-41q-120 0 -170 -50t-50 -161v-275q0 -204 -170 -221z" />
    <glyph glyph-name="bar" unicode="|" horiz-adv-x="670" 
d="M410 -309h-150v1746h150v-1746z" />
    <glyph glyph-name="braceright" unicode="}" horiz-adv-x="670" 
d="M471 572v23q-170 17 -170 221v275q0 111 -50 161t-171 50h-41v135h58q179 0 271.5 -76.5t92.5 -249.5v-236q0 -109 35.5 -155.5t133.5 -46.5v-181q-98 0 -133.5 -46t-35.5 -155v-265q-1 -175 -94 -255t-270 -80h-58v136h41q121 0 171 50t50 161v310q0 209 170 224z" />
    <glyph glyph-name="asciitilde" unicode="~" horiz-adv-x="1113" 
d="M764 493q-60 0 -112 22.5t-88 54.5t-68.5 64t-68.5 54.5t-73 22.5q-59 0 -92.5 -49.5t-36.5 -125.5h-152q-1 135 70.5 230.5t205.5 95.5q61 0 113.5 -22.5t88.5 -55t68 -64.5t67 -54.5t72 -22.5q58 0 91 50t37 126h152q1 -87 -28 -159t-93 -119.5t-153 -47.5z" />
    <glyph glyph-name="cent" unicode="&#xa2;" 
d="M524 -20v190q-177 21 -276.5 156.5t-99.5 335.5v66q0 199 100 330.5t276 152.5v174h119v-174q150 -17 242.5 -110t98.5 -209h-166q-16 60 -63 106.5t-112 60.5v-739q75 11 122 52.5t60 99.5h167q-25 -128 -113 -208.5t-236 -94.5v-189h-119zM318 660q0 -131 55 -219.5
t151 -114.5v730q-98 -24 -152 -111t-54 -223v-62z" />
    <glyph glyph-name="sterling" unicode="&#xa3;" 
d="M120 629v113h194q-45 166 -45 261q0 181 122 286t332 105q131 0 246 -53v-152q-115 54 -237 54q-131 0 -211 -65t-80 -175q0 -93 42 -261h398v-113h-371q19 -88 19 -157q0 -229 -128 -313v-15h621v-144h-893v141q111 24 172.5 111.5t61.5 210.5q0 79 -21 166h-222z" />
    <glyph glyph-name="yen" unicode="&#xa5;" 
d="M658 0h-175v299h-288v110h288v149h-288v110h243l-392 697h199l321 -606h10l321 606h198l-393 -697h241v-110h-285v-149h285v-110h-285v-299z" />
    <glyph glyph-name="dieresis" unicode="&#xa8;" horiz-adv-x="944" 
d="M643 1200q-38 0 -64.5 27t-26.5 67q0 42 26 69t65 27q41 0 67.5 -27t26.5 -69q0 -40 -27 -67t-67 -27zM299 1200q-38 0 -64.5 27t-26.5 67q0 42 26 69t65 27q40 0 66 -27t26 -69q0 -40 -26 -67t-66 -27z" />
    <glyph glyph-name="copyright" unicode="&#xa9;" horiz-adv-x="1639" 
d="M825 -64q-209 0 -374 92t-255.5 253.5t-90.5 362.5v103q0 142 54 268t148 218t229 145.5t289 53.5q155 0 290 -54t228.5 -146.5t147.5 -218.5t54 -266v-103q0 -151 -53 -282t-146.5 -224.5t-228.5 -147.5t-292 -54zM227 640q0 -256 165.5 -420.5t432.5 -164.5
t433.5 164.5t166.5 420.5v107q0 116 -44 220t-122 179.5t-190.5 120t-243.5 44.5q-174 0 -311.5 -75.5t-212 -204t-74.5 -284.5v-107zM506 632v99q0 157 87.5 244.5t237.5 87.5q136 0 215.5 -74t81.5 -172h-125q-4 21 -13 41t-27.5 42t-52.5 35t-78 13q-99 0 -150 -56.5
t-51 -166.5v-94q0 -106 53 -159.5t148 -53.5q150 0 177 113h125q-4 -95 -82 -164.5t-221 -69.5q-151 0 -238 87t-87 248z" />
    <glyph glyph-name="guillemotleft" unicode="&#xab;" horiz-adv-x="1252" 
d="M596 565l344 385h175l-339 -384v-6l339 -386h-184l-335 383v8zM120 565l344 385h175l-339 -384v-6l339 -386h-184l-335 383v8z" />
    <glyph glyph-name="registered" unicode="&#xae;" horiz-adv-x="1006" 
d="M503 566q-178 0 -294.5 112t-116.5 283v57q0 161 118 271.5t293 110.5q174 0 292.5 -111.5t118.5 -270.5v-57q0 -171 -116 -283t-295 -112zM503 653q141 0 232.5 87.5t91.5 220.5v57q0 125 -92.5 211.5t-231.5 86.5t-231 -86.5t-92 -211.5v-57q0 -133 91 -220.5
t232 -87.5zM437 790h-82v404h190q55 0 90.5 -34.5t35.5 -86.5q0 -44 -22.5 -76.5t-57.5 -42.5l93 -164h-96l-81 153h-70v-153zM438 1131v-127h64q86 0 86 65q0 62 -75 62h-75z" />
    <glyph glyph-name="acute" unicode="&#xb4;" horiz-adv-x="945" 
d="M314 1187l184 273h175l-227 -273h-132z" />
    <glyph glyph-name="cedilla" unicode="&#xb8;" horiz-adv-x="945" 
d="M351 -234v78l61 165h120l-54 -146q98 0 155 -41t57 -120q0 -90 -62 -137t-160 -51q-82 -4 -151 15v104q44 -13 116 -13q49 0 83.5 18t34.5 60q0 24 -11.5 39t-37 20.5t-44 7t-55.5 1.5h-52z" />
    <glyph glyph-name="guillemotright" unicode="&#xbb;" horiz-adv-x="1252" 
d="M1124 565v-8l-335 -383h-184l339 386v6l-339 384h175zM648 565v-8l-335 -383h-184l339 386v6l-339 384h175z" />
    <glyph glyph-name="quoteright" unicode="&#x2019;" horiz-adv-x="475" 
d="M239 887h-134l84 478h181z" />
    <glyph glyph-name="circumflex" unicode="&#x2c6;" horiz-adv-x="945" 
d="M210 1187l211 301h102l211 -301h-142l-119 184h-2l-119 -184h-142z" />
    <glyph glyph-name="ring" unicode="&#x2da;" horiz-adv-x="945" 
d="M486 1182q-79 0 -134.5 53.5t-55.5 132.5q0 78 55.5 131.5t134.5 53.5q80 0 135 -53.5t55 -131.5q0 -79 -55 -132.5t-135 -53.5zM384 1368q0 -44 29.5 -74t72.5 -30t72 30t29 74q0 43 -29 72.5t-72 29.5t-72.5 -29.5t-29.5 -72.5z" />
    <glyph glyph-name="tilde" unicode="&#x2dc;" horiz-adv-x="945" 
d="M577 1189q-44 0 -82 20.5t-60 44.5t-48 44.5t-50 20.5q-20 0 -33.5 -11.5t-20 -31t-9.5 -35.5t-3 -33h-117q0 92 48 157.5t134 65.5q44 0 82.5 -20.5t60.5 -44.5t48 -44.5t49 -20.5q34 0 51.5 34.5t21.5 77.5h118q0 -85 -50.5 -154.5t-139.5 -69.5z" />
    <glyph glyph-name="uni0401" unicode="&#x401;" horiz-adv-x="1118" 
d="M732 1495q-37 0 -62 26t-25 64q0 39 25 65t62 26q38 0 63 -25.5t25 -65.5q0 -38 -25 -64t-63 -26zM425 1495q-37 0 -62 26t-25 64q0 39 25 65t62 26q38 0 63 -25.5t25 -65.5q0 -38 -25.5 -64t-62.5 -26zM993 156v-156h-819v1365h819v-156h-645v-436h609v-152h-609v-465
h645z" />
    <glyph glyph-name="uni0410" unicode="&#x410;" horiz-adv-x="1220" 
d="M217 0h-182l486 1365h178l486 -1365h-184l-138 410h-508zM612 1159h-5l-205 -608h414z" />
    <glyph glyph-name="uni0411" unicode="&#x411;" horiz-adv-x="1185" 
d="M1096 414q0 -185 -119.5 -299.5t-314.5 -114.5h-488v1365h816v-156h-642v-386h313q196 0 315.5 -112.5t119.5 -296.5zM348 155h302q127 0 196.5 67.5t69.5 189.5t-69.5 189.5t-196.5 67.5h-302v-514z" />
    <glyph glyph-name="uni0412" unicode="&#x412;" horiz-adv-x="1242" 
d="M174 0v1365h512q174 0 276.5 -91t102.5 -245q0 -115 -56.5 -192t-161.5 -110v-7q139 -19 217.5 -107.5t78.5 -230.5q0 -178 -128 -280t-349 -102h-492zM348 1212v-435h209q171 0 251.5 54t80.5 168q0 101 -60.5 157t-170.5 56h-310zM348 627v-474h237q202 0 290.5 53.5
t88.5 174.5q0 117 -75 181.5t-212 64.5h-329z" />
    <glyph glyph-name="uni0413" unicode="&#x413;" horiz-adv-x="1058" 
d="M349 0h-175v1365h806v-156h-631v-1209z" />
    <glyph glyph-name="uni0414" unicode="&#x414;" horiz-adv-x="1394" 
d="M184 -286h-159v441h114q28 19 48.5 46.5t35.5 57.5t25.5 83.5t17 99t11 132t7 154.5t5.5 193l11 444h866v-1210h179v-441h-159v286h-1002v-286zM992 155v1055h-522l-10 -305q-5 -148 -8 -215t-11 -171.5t-18.5 -157.5t-29.5 -109.5t-46 -91.5v-5h645z" />
    <glyph glyph-name="uni0415" unicode="&#x415;" horiz-adv-x="1118" 
d="M993 156v-156h-819v1365h819v-156h-645v-436h609v-152h-609v-465h645z" />
    <glyph glyph-name="uni0416" unicode="&#x416;" horiz-adv-x="1789" 
d="M807 783v582h173v-582h6l547 582h213l-610 -651l629 -714h-221l-558 630h-6v-630h-173v630h-6l-557 -630h-219l626 710l-614 655h218l546 -582h6z" />
    <glyph glyph-name="uni0417" unicode="&#x417;" horiz-adv-x="1180" 
d="M409 629v150h174q124 0 199.5 63.5t75.5 173.5q0 102 -75 165t-192 63q-125 0 -203.5 -61.5t-86.5 -151.5h-167q2 70 32.5 134t85.5 115.5t143 82.5t197 31q206 0 324 -103.5t118 -259.5q0 -127 -72.5 -209t-191.5 -102v-10q137 -15 224 -106t87 -224q0 -185 -135 -297.5
t-357 -112.5q-215 0 -346 104t-139 264h164q10 -93 98.5 -155t225.5 -62q146 0 229 68.5t83 189.5q0 123 -84.5 186.5t-238.5 63.5h-172z" />
    <glyph glyph-name="uni0418" unicode="&#x418;" horiz-adv-x="1384" 
d="M1037 0v1078h-5l-695 -1078h-163v1365h173v-1078h6l695 1078h163v-1365h-174z" />
    <glyph glyph-name="uni0419" unicode="&#x419;" horiz-adv-x="1384" 
d="M375 1782h123q0 -77 51 -123.5t149 -46.5q97 0 148 46.5t51 123.5h123q0 -117 -83 -194t-239 -77t-239.5 77.5t-83.5 193.5zM1037 0v1078h-5l-695 -1078h-163v1365h173v-1078h6l695 1078h163v-1365h-174z" />
    <glyph glyph-name="uni041A" unicode="&#x41a;" horiz-adv-x="1198" 
d="M951 0l-597 630h-5v-630h-175v1365h175v-582h5l586 582h216l-656 -652l675 -713h-224z" />
    <glyph glyph-name="uni041B" unicode="&#x41b;" horiz-adv-x="1311" 
d="M294 921l10 444h833v-1365h-174v1210h-491l-10 -305q-3 -107 -6.5 -182t-9 -159t-12.5 -140.5t-17.5 -117.5t-25 -100t-33.5 -78t-43 -62t-55 -42t-68.5 -26.5t-83.5 -7.5q-44 0 -64 10v160l2 -1q3 -1 8 -2t11 -2t14 -2t16 -1q31 0 55 10.5t43.5 35t33.5 56t24.5 83
t17 105t12 134t8 158t5.5 187.5z" />
    <glyph glyph-name="uni041C" unicode="&#x41c;" horiz-adv-x="1595" 
d="M332 0h-158v1365h170l452 -1055h4l451 1055h170v-1365h-158v992h-6l-386 -878h-147l-387 878h-5v-992z" />
    <glyph glyph-name="uni041D" unicode="&#x41d;" horiz-adv-x="1384" 
d="M1211 0h-175v629h-687v-629h-175v1365h175v-581h687v581h175v-1365z" />
    <glyph glyph-name="uni041E" unicode="&#x41e;" horiz-adv-x="1334" 
d="M1214 575q0 -286 -148.5 -445t-400.5 -159q-251 0 -398 159t-147 445v201q0 288 149 453t400 165q250 0 397.5 -164.5t147.5 -453.5v-201zM1039 777q0 221 -103.5 340.5t-268.5 119.5q-164 0 -268 -119.5t-104 -340.5v-202q0 -220 103 -333.5t269 -113.5
q167 0 269.5 113.5t102.5 333.5v202z" />
    <glyph glyph-name="uni041F" unicode="&#x41f;" horiz-adv-x="1364" 
d="M1191 0h-175v1210h-667v-1210h-175v1365h1017v-1365z" />
    <glyph glyph-name="uni0420" unicode="&#x420;" horiz-adv-x="1178" 
d="M671 1365q195 0 314.5 -117t119.5 -308q0 -192 -119.5 -308t-314.5 -116h-323v-516h-174v1365h497zM926 940q0 128 -70.5 199t-197.5 71h-310v-540h207q75 0 129 6.5t102 24t77.5 47.5t46 78t16.5 114z" />
    <glyph glyph-name="uni0421" unicode="&#x421;" horiz-adv-x="1268" 
d="M294 768v-179q0 -221 94 -341t269 -120q144 0 234.5 78.5t94.5 205.5h172v-4q0 -189 -142.5 -313t-359.5 -124q-253 0 -394.5 163.5t-141.5 454.5v179q0 295 141.5 460.5t394.5 165.5q218 0 360 -130t142 -331v-3h-172q-4 137 -94.5 222t-234.5 85q-175 0 -269 -122
t-94 -347z" />
    <glyph glyph-name="uni0422" unicode="&#x422;" horiz-adv-x="1063" 
d="M618 0h-173v1209h-415v156h1003v-156h-415v-1209z" />
    <glyph glyph-name="uni0423" unicode="&#x423;" horiz-adv-x="1103" 
d="M247 -10q-59 0 -89 10v163q32 -9 86 -9q74 0 128 43.5t105 145.5l-467 1022h189l363 -821h5l344 821h182l-443 -1022q-82 -191 -174 -272t-229 -81z" />
    <glyph glyph-name="uni0424" unicode="&#x424;" horiz-adv-x="1588" 
d="M876 -10h-173v160q-285 7 -439 143t-154 381v24q0 247 155 387t438 149v141h173v-142q289 -4 445.5 -140t156.5 -384v-24q0 -250 -157 -389.5t-445 -147.5v-158zM284 674q0 -175 107.5 -269.5t311.5 -99.5v774q-202 -8 -310.5 -106t-108.5 -275v-24zM1304 709
q0 176 -110.5 271t-318.5 98v-775q207 6 318 105t111 277v24z" />
    <glyph glyph-name="uni0425" unicode="&#x425;" horiz-adv-x="1144" 
d="M1128 1365l-453 -689l443 -676h-210l-341 540h-9l-344 -540h-198l447 688l-440 677h210l344 -541h9l341 541h201z" />
    <glyph glyph-name="uni0426" unicode="&#x426;" horiz-adv-x="1428" 
d="M1200 1365v-1210h179v-441h-159v286h-1046v1365h175v-1210h676v1210h175z" />
    <glyph glyph-name="uni0427" unicode="&#x427;" horiz-adv-x="1297" 
d="M1124 0h-175v598h-5l-8 -4q-9 -4 -23.5 -10t-35 -13.5t-49 -14.5t-61 -13.5t-74.5 -10t-85 -3.5q-221 0 -342.5 114.5t-121.5 326.5v395h175v-393q0 -144 76 -218t221 -74q91 0 175 20t118.5 36.5t39.5 21.5v607h175v-1365z" />
    <glyph glyph-name="uni0428" unicode="&#x428;" horiz-adv-x="1875" 
d="M174 0v1365h175v-1210h501v1210h175v-1210h501v1210h175v-1365h-1527z" />
    <glyph glyph-name="uni0429" unicode="&#x429;" horiz-adv-x="1929" 
d="M1880 -286h-159v286h-1547v1365h175v-1210h501v1210h175v-1210h501v1210h175v-1210h179v-441z" />
    <glyph glyph-name="uni042A" unicode="&#x42a;" horiz-adv-x="1358" 
d="M850 0h-497v1209h-323v156h498v-499h322q196 0 315.5 -118.5t119.5 -311.5q0 -195 -120 -315.5t-315 -120.5zM838 155q127 0 197 73t70 205q0 133 -70 206t-197 73h-310v-557h310z" />
    <glyph glyph-name="uni042B" unicode="&#x42b;" horiz-adv-x="1612" 
d="M1105 436q0 -195 -119.5 -315.5t-314.5 -120.5h-497v1365h174v-499h322q196 0 315.5 -118.5t119.5 -311.5zM1438 0h-175v1365h175v-1365zM658 712h-310v-557h310q127 0 197 73t70 205q0 133 -70 206t-197 73z" />
    <glyph glyph-name="uni042C" unicode="&#x42c;" horiz-adv-x="1179" 
d="M671 0h-497v1365h174v-499h323q195 0 314.5 -118.5t119.5 -311.5q0 -195 -119.5 -315.5t-314.5 -120.5zM658 155q127 0 197.5 73t70.5 205q0 133 -70 206t-198 73h-310v-557h310z" />
    <glyph glyph-name="uni042D" unicode="&#x42d;" horiz-adv-x="1277" 
d="M618 -29q-102 0 -188 27t-144 71t-99 101.5t-59.5 117.5t-18.5 120v1h173q0 -118 87.5 -199.5t242.5 -81.5q172 0 270.5 112t99.5 336v47h-567v149h567v9q-1 221 -100.5 338.5t-265.5 117.5q-79 0 -143.5 -27t-105 -70.5t-63 -97t-22.5 -109.5h-173q0 85 33 166t94 147.5
t160 107t220 40.5q248 0 394.5 -162.5t146.5 -452.5v-200q0 -294 -144 -451t-395 -157z" />
    <glyph glyph-name="uni042E" unicode="&#x42e;" horiz-adv-x="1770" 
d="M578 575v54h-229v-629h-175v1365h175v-581h229q2 285 147.5 447.5t389.5 162.5q246 0 390.5 -164.5t144.5 -453.5v-201q0 -286 -145.5 -445t-393.5 -159q-247 0 -390 159t-143 445zM753 777v-202q0 -220 99.5 -333.5t260.5 -113.5q162 0 262 113.5t100 333.5v202
q0 221 -101 340.5t-261 119.5q-159 0 -259.5 -119.5t-100.5 -340.5z" />
    <glyph glyph-name="uni042F" unicode="&#x42f;" horiz-adv-x="1231" 
d="M883 539h-273l-330 -539h-197l344 560q-140 29 -221.5 133t-81.5 256q0 190 121.5 303t327.5 113h485v-1365h-175v539zM580 693h303v517h-303q-134 0 -205 -66t-71 -192q0 -127 70.5 -193t205.5 -66z" />
    <glyph glyph-name="uni0430" unicode="&#x430;" horiz-adv-x="1074" 
d="M446 -17q-153 0 -248 87.5t-95 231.5q0 140 95.5 220t273.5 81h277v107q0 103 -57.5 158.5t-164.5 55.5q-99 0 -156.5 -47t-65.5 -127h-162q9 144 107.5 231t282.5 87q173 0 280 -90.5t107 -252.5v-725h-165v131h-5q-92 -148 -304 -148zM492 126q111 0 184 62.5t73 160.5
v122h-264q-104 0 -155 -44t-51 -119q0 -88 62 -135t151 -47z" />
    <glyph glyph-name="uni0431" unicode="&#x431;" horiz-adv-x="1146" 
d="M615 1042q180 0 295 -128t115 -331v-127q0 -216 -123.5 -344.5t-327.5 -128.5q-210 0 -331 133.5t-121 367.5v197q0 128 15 228t50.5 184.5t93.5 141.5t144.5 92.5t202.5 44.5l62 5q141 10 156 60h164q-17 -105 -87 -154.5t-223 -62.5l-67 -6q-182 -15 -256 -98t-94 -268
h5q71 194 327 194zM575 895q-128 0 -204.5 -91t-76.5 -239v-96q0 -157 74.5 -247.5t206.5 -90.5q130 0 203.5 90.5t73.5 247.5v96q0 149 -75 239.5t-202 90.5z" />
    <glyph glyph-name="uni0432" unicode="&#x432;" horiz-adv-x="1092" 
d="M163 0v1051h431q145 0 234 -73.5t89 -195.5q0 -88 -44.5 -146t-124.5 -79v-5q109 -16 168.5 -84t59.5 -173q0 -142 -109 -218.5t-288 -76.5h-416zM333 914v-306h197q109 0 162.5 38t53.5 123q0 72 -49 108.5t-128 36.5h-236zM333 473v-336h227q56 0 98 7.5t76.5 25.5
t52.5 51.5t18 81.5q0 83 -60 126.5t-161 43.5h-251z" />
    <glyph glyph-name="uni0433" unicode="&#x433;" horiz-adv-x="879" 
d="M820 910h-485v-910h-172v1051h657v-141z" />
    <glyph glyph-name="uni0434" unicode="&#x434;" horiz-adv-x="1243" 
d="M192 -285h-153v426h88q70 34 92.5 133t35.5 385l17 392h735v-910h169v-426h-153v285h-831v-285zM836 141v769h-407l-12 -249q-12 -254 -29 -360.5t-56 -155.5v-4h504z" />
    <glyph glyph-name="uni0435" unicode="&#x435;" horiz-adv-x="1108" 
d="M562 -16q-204 0 -322.5 133.5t-118.5 358.5v118q0 212 115 343.5t318 131.5t318 -133.5t115 -353.5v-98h-694v-19q0 -152 73 -244.5t200 -92.5q90 0 150 42t86 117h171q-31 -137 -137 -220t-274 -83zM293 623h522v3q0 128 -72 213.5t-188 85.5q-117 0 -189.5 -86
t-72.5 -213v-3z" />
    <glyph glyph-name="uni0436" unicode="&#x436;" horiz-adv-x="1444" 
d="M634 613v438h171v-438h6l397 438h208l-461 -501l488 -550h-214l-418 474h-6v-474h-171v474h-5l-418 -474h-210l484 546l-464 505h211l397 -438h5z" />
    <glyph glyph-name="uni0437" unicode="&#x437;" horiz-adv-x="1024" 
d="M504 133q108 0 170.5 45t62.5 124q0 81 -63.5 123t-174.5 42h-123v137h123q95 0 149 41.5t54 113.5q0 75 -57 117t-151 42q-102 0 -156.5 -46.5t-62.5 -116.5h-169q9 136 113 224.5t274 88.5t275 -83t105 -217q0 -83 -50 -143.5t-133 -75.5v-8q95 -15 156.5 -80
t61.5 -166q0 -138 -111.5 -225t-290.5 -87q-99 0 -178.5 26t-127.5 69.5t-74 95.5t-28 109h169q37 -150 237 -150z" />
    <glyph glyph-name="uni0438" unicode="&#x438;" horiz-adv-x="1183" 
d="M852 0v783h-5l-526 -783h-158v1051h168v-784h5l526 784h158v-1051h-168z" />
    <glyph glyph-name="uni0439" unicode="&#x439;" horiz-adv-x="1183" 
d="M303 1462h122q0 -71 42 -119t124 -48t124 48t42 119h122q0 -48 -17 -94.5t-50 -87t-90.5 -65.5t-130.5 -25t-131 25t-91 65.5t-49.5 87t-16.5 94.5zM852 0v783h-5l-526 -783h-158v1051h168v-784h5l526 784h158v-1051h-168z" />
    <glyph glyph-name="uni043A" unicode="&#x43a;" horiz-adv-x="1014" 
d="M341 474h-6v-474h-172v1051h172v-437h6l426 437h219l-493 -501l519 -550h-224z" />
    <glyph glyph-name="uni043B" unicode="&#x43b;" horiz-adv-x="1131" 
d="M250 659l9 392h709v-1051h-172v910h-378l-6 -251q-4 -132 -7.5 -205t-14 -162.5t-28.5 -134.5t-48 -89t-75.5 -60.5t-108.5 -16.5q-17 0 -32.5 2.5t-22.5 5.5l-7 3v157q20 -7 44 -7q77 0 106 97q24 79 30 317q0 9 2 93z" />
    <glyph glyph-name="uni043C" unicode="&#x43c;" horiz-adv-x="1435" 
d="M329 723v-723h-166v1051h185l367 -774h5l367 774h185v-1051h-170v723h-5l-313 -637h-135l-315 637h-5z" />
    <glyph glyph-name="uni043D" unicode="&#x43d;" horiz-adv-x="1164" 
d="M829 0v474h-494v-474h-172v1051h172v-437h494v437h172v-1051h-172z" />
    <glyph glyph-name="uni043E" unicode="&#x43e;" horiz-adv-x="1145" 
d="M573 1068q214 0 332 -138t118 -356v-94q0 -221 -117.5 -359t-332.5 -138t-333.5 138t-118.5 359v94q0 218 119 356t333 138zM573 921q-134 0 -207 -94.5t-73 -258.5v-82q0 -163 73 -258.5t207 -95.5q133 0 205.5 95t72.5 259v82q0 164 -72.5 258.5t-205.5 94.5z" />
    <glyph glyph-name="uni043F" unicode="&#x43f;" horiz-adv-x="1154" 
d="M819 0v910h-484v-910h-172v1051h828v-1051h-172z" />
    <glyph glyph-name="uni0440" unicode="&#x440;" horiz-adv-x="1176" 
d="M636 -17q-97 0 -173.5 42.5t-122.5 114.5h-5v-489h-172v1400h165v-151h5q47 77 127 122t183 45q182 0 297 -132.5t115 -360.5v-97q0 -227 -115.5 -360.5t-303.5 -133.5zM619 133q120 0 191.5 93.5t71.5 263.5v78q0 166 -70.5 258.5t-197.5 92.5q-130 0 -206 -96t-76 -254
v-79q0 -163 77 -260t210 -97z" />
    <glyph glyph-name="uni0441" unicode="&#x441;" horiz-adv-x="1062" 
d="M121 478v104q0 216 117 351t319 135q116 0 208 -47.5t139.5 -120t52.5 -154.5h-169q-18 71 -78 120.5t-142 49.5q-130 0 -202.5 -90.5t-72.5 -250.5v-98q0 -155 75 -248.5t201 -93.5q94 0 153 43.5t74 110.5h169q-27 -141 -130.5 -223.5t-277.5 -82.5q-136 0 -236 66
t-150 177t-50 252z" />
    <glyph glyph-name="uni0442" unicode="&#x442;" horiz-adv-x="961" 
d="M912 910h-345v-910h-172v910h-346v141h863v-141z" />
    <glyph glyph-name="uni0443" unicode="&#x443;" horiz-adv-x="979" 
d="M964 1051q-5 -15 -98.5 -279t-184.5 -520t-92 -257l-27 -73q-60 -163 -143 -227t-219 -64q-54 0 -97 9v140q34 -4 76 -4q90 0 137.5 34.5t69.5 117.5l16 57l-387 1066h191l284 -860h6l285 860h183z" />
    <glyph glyph-name="uni0444" unicode="&#x444;" horiz-adv-x="1437" 
d="M804 -349h-171v332q-229 3 -370.5 133.5t-141.5 359.5v101q0 219 144 353t368 138v269h171v-269q229 -4 370 -134t141 -359v-101q0 -220 -143.5 -354t-367.5 -137v-332zM1144 561q0 162 -90 259t-251 100v-789q156 4 248.5 102.5t92.5 256.5v71zM292 490
q0 -162 90.5 -259t251.5 -100v789q-156 -4 -249 -103t-93 -257v-70z" />
    <glyph glyph-name="uni0445" unicode="&#x445;" horiz-adv-x="1009" 
d="M767 0l-268 397h-1l-266 -397h-195l361 526l-352 525h206l257 -399h1l257 399h197l-354 -525l362 -526h-205z" />
    <glyph glyph-name="uni0446" unicode="&#x446;" horiz-adv-x="1227" 
d="M1159 -285h-152v285h-844v1051h172v-910h484v910h172v-910h168v-426z" />
    <glyph glyph-name="uni0447" unicode="&#x447;" horiz-adv-x="1124" 
d="M961 0h-172v437h-9q-5 -5 -32 -19t-90.5 -31t-131.5 -17q-195 0 -288.5 97t-93.5 269v315h171v-311q0 -101 58.5 -158.5t169.5 -57.5q69 0 131.5 17.5t86 31t28.5 18.5v460h172v-1051z" />
    <glyph glyph-name="uni0448" unicode="&#x448;" horiz-adv-x="1613" 
d="M163 0v1051h172v-910h386v910h171v-910h386v910h171v-1051h-1286z" />
    <glyph glyph-name="uni0449" unicode="&#x449;" horiz-adv-x="1686" 
d="M1618 -285h-152v285h-1303v1051h172v-910h386v910h171v-910h386v910h171v-910h169v-426z" />
    <glyph glyph-name="uni044A" unicode="&#x44a;" horiz-adv-x="1129" 
d="M642 0h-348v910h-245v141h417v-357h176q183 0 291 -93.5t108 -253.5q0 -159 -108 -253t-291 -94zM636 554h-170v-414h171q105 0 168.5 57.5t63.5 150.5q0 94 -63 150t-170 56z" />
    <glyph glyph-name="uni044B" unicode="&#x44b;" horiz-adv-x="1400" 
d="M1065 0v1051h172v-1051h-172zM163 0v1051h172v-357h176q183 0 291 -93.5t108 -253.5q0 -159 -108 -253t-291 -94h-348zM505 554h-170v-414h171q105 0 168.5 57.5t63.5 150.5q0 94 -63 150t-170 56z" />
    <glyph glyph-name="uni044C" unicode="&#x44c;" horiz-adv-x="998" 
d="M163 0v1051h172v-357h176q183 0 291 -93.5t108 -253.5q0 -159 -108 -253t-291 -94h-348zM505 554h-170v-414h171q105 0 168.5 57.5t63.5 150.5q0 94 -63 150t-170 56z" />
    <glyph glyph-name="uni044D" unicode="&#x44d;" horiz-adv-x="1063" 
d="M506 -17q-192 0 -296.5 88.5t-111.5 212.5h169q36 -149 236 -149q123 0 194 80t72 217v34h-431v136h431v11q-1 141 -69 221.5t-197 80.5q-59 0 -104 -16t-69.5 -42.5t-37.5 -51t-18 -50.5h-169q2 58 29 113t75 100t125 72.5t171 27.5q201 0 319 -123t118 -329v-177
q0 -211 -117.5 -333.5t-318.5 -122.5z" />
    <glyph glyph-name="uni044E" unicode="&#x44e;" horiz-adv-x="1532" 
d="M971 -17q-128 0 -226.5 52t-156 156.5t-58.5 248.5v34h-195v-474h-172v1051h172v-437h195q3 206 126.5 330t314.5 124q194 0 317 -123.5t123 -338.5v-159q0 -217 -123 -340.5t-317 -123.5zM972 920q-123 0 -197 -91.5t-74 -239.5v-129q0 -151 71.5 -240t199.5 -89
q126 0 196.5 89t70.5 240v129q0 149 -72 240t-195 91z" />
    <glyph glyph-name="uni044F" unicode="&#x44f;" horiz-adv-x="1073" 
d="M738 0v377h-170l-269 -377h-203l290 404q-115 33 -178.5 113.5t-63.5 197.5q0 153 108 244.5t291 91.5h367v-1051h-172zM548 515h190v396h-191q-105 0 -168.5 -55t-63.5 -144q0 -90 63.5 -143.5t169.5 -53.5z" />
    <glyph glyph-name="uni0451" unicode="&#x451;" horiz-adv-x="1108" 
d="M737 1201q-38 0 -64.5 27t-26.5 67q0 42 26 69t65 27q41 0 67.5 -27t26.5 -69q0 -40 -27 -67t-67 -27zM393 1201q-38 0 -64.5 27t-26.5 67q0 42 26 69t65 27q40 0 66.5 -27t26.5 -69q0 -40 -26.5 -67t-66.5 -27zM562 -16q-204 0 -322.5 133.5t-118.5 358.5v118
q0 212 115 343.5t318 131.5t318 -133.5t115 -353.5v-98h-694v-19q0 -152 73 -244.5t200 -92.5q90 0 150 42t86 117h171q-31 -137 -137 -220t-274 -83zM293 623h522v3q0 128 -72 213.5t-188 85.5q-117 0 -189.5 -86t-72.5 -213v-3z" />
    <glyph glyph-name="figuredash" unicode="&#x2012;" 
d="M1138 483h-1138v154h1138v-154z" />
    <glyph glyph-name="endash" unicode="&#x2013;" horiz-adv-x="1158" 
d="M1158 483h-1158v154h1158v-154z" />
    <glyph glyph-name="emdash" unicode="&#x2014;" horiz-adv-x="2048" 
d="M2048 483h-2048v154h2048v-154z" />
    <glyph glyph-name="quoteleft" unicode="&#x2018;" horiz-adv-x="475" 
d="M236 1365h134l-84 -478h-181z" />
    <glyph glyph-name="quotesinglbase" unicode="&#x201a;" horiz-adv-x="474" 
d="M239 -399h-134l84 478h181z" />
    <glyph glyph-name="quotedblleft" unicode="&#x201c;" horiz-adv-x="814" 
d="M236 1365h134l-84 -478h-181zM575 1365h134l-84 -478h-181z" />
    <glyph glyph-name="quotedblright" unicode="&#x201d;" horiz-adv-x="814" 
d="M578 887h-134l84 478h181zM239 887h-134l84 478h181z" />
    <glyph glyph-name="quotedblbase" unicode="&#x201e;" horiz-adv-x="814" 
d="M578 -399h-134l84 478h181zM239 -399h-134l84 478h181z" />
    <glyph glyph-name="ellipsis" unicode="&#x2026;" horiz-adv-x="1324" 
d="M943 96q0 48 34 82t82 34q47 0 81 -34t34 -82q0 -47 -34 -81t-81 -34q-48 0 -82 34t-34 81zM537 96q0 48 34 82t82 34q47 0 81 -34t34 -82q0 -47 -34 -81t-81 -34q-48 0 -82 34t-34 81zM131 96q0 48 34 82t82 34q47 0 81 -34t34 -82q0 -47 -34 -81t-81 -34q-48 0 -82 34
t-34 81z" />
    <glyph glyph-name="perthousand" unicode="&#x2030;" horiz-adv-x="2023" 
d="M293 741q-123 0 -191 86.5t-68 230.5v43q0 143 69.5 229.5t192.5 86.5t191 -86t68 -230v-43q0 -139 -68.5 -228t-193.5 -89zM263 0h-166l525 687l516 678h166l-523 -685zM294 871q46 0 72.5 48t26.5 140v41q0 92 -26.5 139.5t-72.5 47.5q-45 0 -71.5 -47.5t-26.5 -139.5
v-41q0 -92 26.5 -140t71.5 -48zM1725 -12q-122 0 -190 86.5t-68 230.5v42q0 143 69.5 229.5t192.5 86.5t190.5 -85.5t67.5 -230.5v-42q0 -140 -68 -228.5t-194 -88.5zM1104 -12q-122 0 -190.5 86.5t-68.5 230.5v42q0 143 70 229.5t193 86.5t190.5 -85.5t67.5 -230.5v-42
q0 -140 -68 -228.5t-194 -88.5zM1727 118q46 0 72.5 47.5t26.5 140.5v40q0 92 -26.5 139.5t-72.5 47.5t-72.5 -47.5t-26.5 -139.5v-40q0 -93 26.5 -140.5t72.5 -47.5zM1106 118q46 0 72.5 47.5t26.5 140.5v40q0 92 -26.5 139.5t-72.5 47.5t-72.5 -47.5t-26.5 -139.5v-40
q0 -93 26.5 -140.5t72.5 -47.5z" />
    <glyph glyph-name="guilsinglleft" unicode="&#x2039;" horiz-adv-x="799" 
d="M120 565l344 385h175l-339 -384v-6l339 -386h-184l-335 383v8z" />
    <glyph glyph-name="guilsinglright" unicode="&#x203a;" horiz-adv-x="799" 
d="M657 565v-8l-335 -383h-184l339 386v6l-339 384h175z" />
    <glyph glyph-name="slash.frac" horiz-adv-x="1091" 
d="M-86 0l525 687l516 678h166l-523 -685l-518 -680h-166z" />
    <glyph glyph-name="Euro" unicode="&#x20ac;" 
d="M94 514v110h117v113v37h-117v110h127q37 243 195 376.5t412 133.5q105 0 192 -23v-154q-78 21 -192 21q-173 0 -285 -92.5t-146 -261.5h459v-110h-472q-1 -13 -1 -39v-105v-6h473v-110h-465q28 -184 141.5 -285.5t295.5 -101.5q112 0 192 20v-154q-90 -22 -192 -22
q-262 0 -422 142.5t-189 400.5h-123z" />
    <glyph glyph-name="trademark" unicode="&#x2122;" horiz-adv-x="1585" 
d="M393 654h-137v594h-226v117h588v-117h-225v-594zM850 654h-123v711h139l215 -462h4l215 462h138v-711h-125v471h-5l-180 -383h-92l-180 383h-6v-471z" />
    <glyph glyph-name="uni0414.locl" horiz-adv-x="1417" 
d="M207 0v-286h-158v441h123l447 1210h179l447 -1210h123v-441h-158v286h-1003zM704 1154l-350 -999h707l-351 999h-6z" />
    <glyph glyph-name="uni0416.locl" horiz-adv-x="1795" 
d="M811 705v660h175v-660h8l535 660h205l-479 -589l517 -776h-219l-422 646l-145 -171v-475h-175v475l-145 171l-422 -646h-221l517 775l-479 590h208l535 -660h7z" />
    <glyph glyph-name="uni041A.locl" horiz-adv-x="1205" 
d="M1156 1365l-509 -581l536 -784h-222l-444 663l-168 -183v-480h-175v1365h175v-660h7l594 660h206z" />
    <glyph glyph-name="uni041B.locl" horiz-adv-x="1218" 
d="M698 1365l485 -1365h-186l-386 1154h-7l-384 -1154h-185l485 1365h178z" />
    <glyph glyph-name="i.locl" horiz-adv-x="499" 
d="M142 1295q0 45 30.5 76t73.5 31q46 0 77 -30.5t31 -76.5q0 -44 -31 -74t-77 -30q-43 0 -73.5 30t-30.5 74zM163 0v1051h172v-1051h-172z" />
    <glyph glyph-name="uni0431.locl" horiz-adv-x="1145" 
d="M673 1416q143 0 157 60h163q-19 -110 -90.5 -163.5t-223.5 -53.5h-242q-54 0 -83.5 -22.5t-29.5 -62.5q0 -52 66 -80.5t203 -40.5q217 -20 323.5 -141.5t106.5 -318.5v-146q0 -217 -125.5 -340.5t-324.5 -123.5q-202 0 -327 122.5t-125 340.5v147q0 137 59.5 234
t168.5 141v7q-97 28 -144.5 79.5t-47.5 133.5q0 108 75 168t212 60h229zM293 460q0 -151 74.5 -240t206.5 -89q131 0 204 89t73 240v117q0 148 -74.5 239t-202.5 91q-127 0 -204 -91.5t-77 -238.5v-117z" />
    <glyph glyph-name="uni0432.locl" horiz-adv-x="1087" 
d="M544 -17q-190 0 -306.5 114t-116.5 319v681q0 174 108.5 280t276.5 106q166 0 274.5 -95.5t108.5 -262.5v-39q0 -91 -41 -169t-119 -115v-2q115 -42 176 -131.5t61 -221.5v-37q0 -197 -118.5 -312t-303.5 -115zM293 1082v-229h198q106 0 166 62t60 169v36q0 97 -58.5 156
t-152.5 59q-96 0 -154.5 -70t-58.5 -183zM545 131q118 0 184 74t66 204v35q0 125 -75.5 196t-205.5 71h-221v-282q0 -138 67 -218t185 -80z" />
    <glyph glyph-name="uni0433.locl" horiz-adv-x="879" 
d="M820 910h-485v-910h-172v1051h657v-141z" />
    <glyph glyph-name="uni0433.locl" horiz-adv-x="1054" 
d="M908 784q0 -62 -19.5 -110.5t-48 -79t-80 -57t-94.5 -41.5t-114 -34q-47 -12 -72.5 -19.5t-62 -20t-55 -25t-38.5 -30.5t-28 -41.5t-8 -52.5q0 -153 239 -153q208 0 231 154h169q0 -138 -107.5 -214.5t-285.5 -76.5q-193 0 -304 73.5t-111 220.5q0 61 19.5 109.5t50.5 81
t81 58.5t97.5 42t114.5 32q122 32 159 49q99 46 99 136q0 74 -57.5 109.5t-156.5 35.5q-101 0 -158 -46.5t-62 -108.5h-160q0 132 102.5 212.5t271.5 80.5q80 0 146.5 -15t122.5 -46.5t87.5 -88.5t31.5 -134z" />
    <glyph glyph-name="uni0434.locl" horiz-adv-x="1243" 
d="M192 -285h-153v426h88q70 34 92.5 133t35.5 385l17 392h735v-910h169v-426h-153v285h-831v-285zM836 141v769h-407l-12 -249q-12 -254 -29 -360.5t-56 -155.5v-4h504z" />
    <glyph glyph-name="uni0434.locl" horiz-adv-x="1181" 
d="M572 -241q126 0 200 69.5t74 192.5v155h-5q-32 -71 -114 -118.5t-186 -47.5q-189 0 -304.5 128t-115.5 359v87q0 227 115.5 355t304.5 128q103 0 185.5 -47t120.5 -117h5v148h166v-1032q0 -98 -36 -176t-98 -127t-142 -75t-170 -26q-193 0 -301 84t-127 223h177
q15 -68 81.5 -115.5t169.5 -47.5zM575 919q-134 0 -207.5 -91t-73.5 -257v-65q0 -164 74 -256.5t207 -92.5q128 0 199.5 93t71.5 256v65q0 160 -73.5 254t-197.5 94z" />
    <glyph glyph-name="uni0436.locl" horiz-adv-x="1498" 
d="M564 487l-361 -487h-202l438 591l-416 460h201l430 -476h7v862h172v-862h7l430 476h200l-413 -457l440 -594h-206l-360 487l-98 -98v-389h-172v389z" />
    <glyph glyph-name="uni0437.locl" horiz-adv-x="988" 
d="M469 -375q-95 0 -171.5 28.5t-124 75.5t-74 102.5t-30.5 115.5h170q43 -170 227 -170q119 0 188 76.5t69 200.5q0 265 -286 265h-116v142h124q124 0 186 67.5t62 173.5q0 103 -61 158.5t-166 55.5q-54 0 -95 -16t-64 -42.5t-34.5 -51t-16.5 -51.5h-169q2 59 27.5 114
t71.5 100t119 72t163 27q178 0 287 -98.5t109 -264.5q0 -106 -54.5 -189.5t-147.5 -111.5v-6q112 -37 173 -123t61 -214q0 -200 -115 -318t-312 -118z" />
    <glyph glyph-name="uni043A.locl" horiz-adv-x="1001" 
d="M335 379v-379h-172v1437h172v-851h7l419 465h213l-415 -457l441 -594h-211l-357 485z" />
    <glyph glyph-name="uni043B.locl" horiz-adv-x="958" 
d="M577 1051l367 -1051h-182l-274 844h-6l-294 -844h-174l377 1051h186z" />
    <glyph glyph-name="uni043D.locl" horiz-adv-x="1164" 
d="M829 0v474h-494v-474h-172v1051h172v-437h494v437h172v-1051h-172z" />
    <glyph glyph-name="uni043F.locl" horiz-adv-x="1154" 
d="M819 0v910h-484v-910h-172v1051h828v-1051h-172z" />
    <glyph glyph-name="uni043F.locl" horiz-adv-x="1170" 
d="M163 0v1051h171v-139h5q36 62 113.5 109t193.5 47q167 0 272 -103.5t105 -290.5v-674h-172v645q0 130 -69.5 198.5t-187.5 68.5q-128 0 -193.5 -77.5t-65.5 -194.5v-640h-172z" />
    <glyph glyph-name="uni0442.locl" horiz-adv-x="961" 
d="M912 910h-345v-910h-172v910h-346v141h863v-141z" />
    <glyph glyph-name="uni0442.locl" horiz-adv-x="1742" 
d="M163 0v1051h171v-129h9q28 60 98.5 103t167.5 43q236 0 303 -169h8q32 73 116 121t206 48q165 0 259 -95t94 -258v-715h-171v680q0 104 -59 168.5t-168 64.5t-170.5 -68.5t-61.5 -180.5v-664h-171v664q0 120 -60.5 184.5t-168.5 64.5q-100 0 -165 -65.5t-65 -181.5v-666
h-172z" />
    <glyph glyph-name="uni0438.locl" horiz-adv-x="1164" 
d="M1001 1051v-1051h-171v138h-7q-30 -68 -107.5 -111.5t-196.5 -43.5q-168 0 -270 94.5t-102 270.5v703h173v-654q0 -138 68.5 -198.5t182.5 -60.5q116 0 186.5 69.5t70.5 192.5v651h173z" />
    <glyph glyph-name="uni0439.locl" horiz-adv-x="1164" 
d="M292 1490h123q0 -71 42 -119t123 -48q82 0 124 47.5t42 119.5h123q0 -48 -17 -94.5t-50.5 -87.5t-91 -66t-130.5 -25t-130.5 25t-91 65.5t-50 87.5t-16.5 95zM1001 1051v-1051h-171v138h-7q-30 -68 -107.5 -111.5t-196.5 -43.5q-168 0 -270 94.5t-102 270.5v703h173v-654
q0 -138 68.5 -198.5t182.5 -60.5q116 0 186.5 69.5t70.5 192.5v651h173z" />
    <glyph glyph-name="uni0446.locl" horiz-adv-x="1243" 
d="M1001 1051v-910h174v-426h-152v285h-193v138h-7q-30 -68 -107.5 -111.5t-196.5 -43.5q-168 0 -270 94.5t-102 270.5v703h173v-654q0 -138 68.5 -198.5t182.5 -60.5q116 0 186.5 69.5t70.5 192.5v651h173z" />
    <glyph glyph-name="uni0447.locl" horiz-adv-x="1124" 
d="M961 0h-172v437h-9q-5 -5 -32 -19t-90.5 -31t-131.5 -17q-195 0 -288.5 97t-93.5 269v315h171v-311q0 -101 58.5 -158.5t169.5 -57.5q69 0 131.5 17.5t86 31t28.5 18.5v460h172v-1051z" />
    <glyph glyph-name="uni0448.locl" horiz-adv-x="1742" 
d="M1579 1051v-1051h-171v166h-9q-11 -32 -28.5 -60t-49 -58t-85 -47.5t-121.5 -17.5q-115 0 -190.5 54.5t-102.5 142.5h-8q-36 -86 -116 -141.5t-204 -55.5q-163 0 -255 85.5t-92 242.5v740h172v-693q0 -103 57.5 -164t164.5 -61q101 0 169 70t68 179v669h170v-685
q0 -105 61.5 -169t166.5 -64q101 0 166 69t65 178v671h172z" />
    <glyph glyph-name="uni0449.locl" horiz-adv-x="1823" 
d="M1579 1051v-910h176v-426h-152v285h-195v166h-9q-11 -32 -28.5 -60t-49 -58t-85 -47.5t-121.5 -17.5q-115 0 -190.5 54.5t-102.5 142.5h-8q-36 -86 -116 -141.5t-204 -55.5q-163 0 -255 85.5t-92 242.5v740h172v-693q0 -103 57.5 -164t164.5 -61q101 0 169 70t68 179v669
h170v-685q0 -105 61.5 -169t166.5 -64q101 0 166 69t65 178v671h172z" />
    <glyph glyph-name="uni044C.locl" horiz-adv-x="1007" 
d="M533 -18q-177 0 -281.5 101.5t-104.5 275.5v692h172v-337h197q186 0 294.5 -97t108.5 -261q0 -171 -104.5 -272.5t-281.5 -101.5zM513 574h-194v-216q0 -106 58.5 -171t156.5 -65q96 0 154.5 65t58.5 171q0 99 -63.5 157.5t-170.5 58.5z" />
    <glyph glyph-name="uni044A.locl" horiz-adv-x="1154" 
d="M680 -18q-177 0 -281.5 101.5t-104.5 275.5v551h-245v141h417v-337h197q186 0 294.5 -97t108.5 -261q0 -171 -104.5 -272.5t-281.5 -101.5zM660 574h-194v-216q0 -106 58.5 -171t156.5 -65q96 0 154.5 65t58.5 171q0 99 -63.5 157.5t-170.5 58.5z" />
    <glyph glyph-name="uni044E.locl" horiz-adv-x="1532" 
d="M971 -17q-128 0 -226.5 52t-156 156.5t-58.5 248.5v34h-195v-474h-172v1437h172v-823h195q3 206 126.5 330t314.5 124q194 0 317 -123.5t123 -338.5v-159q0 -217 -123 -340.5t-317 -123.5zM972 920q-123 0 -197 -91.5t-74 -239.5v-129q0 -151 71.5 -240t199.5 -89
q126 0 196.5 89t70.5 240v129q0 149 -72 240t-195 91z" />
    <glyph glyph-name="glyph220" horiz-adv-x="517" 
d="M138 1025q0 47 34 81t81 34q48 0 82 -34t34 -81q0 -48 -34 -82t-82 -34q-47 0 -81 34t-34 82zM138 311q0 48 34 82t81 34q48 0 82 -34t34 -82q0 -47 -34 -81t-82 -34q-47 0 -81 34t-34 81z" />
    <glyph glyph-name="zero.dnom" horiz-adv-x="585" 
d="M291 -12q-123 0 -191 86.5t-68 230.5v42q0 143 69.5 229.5t192.5 86.5q124 0 191.5 -85.5t67.5 -230.5v-42q0 -139 -68.5 -228t-193.5 -89zM293 118q45 0 71.5 48t26.5 140v40q0 92 -26.5 139.5t-71.5 47.5q-46 0 -72.5 -47.5t-26.5 -139.5v-40q0 -93 26.5 -140.5
t72.5 -47.5z" />
    <glyph glyph-name="one.dnom" horiz-adv-x="420" 
d="M351 0h-161v502h-8q-8 -3 -70.5 -44.5t-75.5 -51.5v144q116 80 156 101h159v-651z" />
    <glyph glyph-name="two.dnom" horiz-adv-x="562" 
d="M191 446h-152v9q0 84 61.5 146t176.5 62q107 0 172 -53t65 -134q0 -15 -1.5 -29t-7 -28t-9 -24t-13 -24t-13.5 -21t-17 -21.5t-17 -19t-19 -20t-18 -18.5l-129 -138v-5h255v-128h-476v100l237 242q22 23 33.5 36.5t23.5 37t12 45.5q0 32 -23.5 54.5t-58.5 22.5
q-37 0 -59.5 -23.5t-22.5 -57.5v-11z" />
    <glyph glyph-name="three.dnom" horiz-adv-x="574" 
d="M209 276v116h67q40 0 64.5 21.5t24.5 55.5q0 32 -24.5 53t-63.5 21q-40 0 -63.5 -24t-25.5 -56h-150q3 91 68 145.5t179 54.5q103 0 170.5 -48t68.5 -124q1 -63 -36.5 -101.5t-81.5 -43.5v-8q54 -3 95.5 -43.5t41.5 -110.5q0 -89 -76.5 -142.5t-188.5 -53.5
q-119 0 -183.5 58t-65.5 145h149q2 -36 30.5 -58.5t72.5 -22.5q46 0 73 23.5t26 60.5q0 36 -26.5 59t-74.5 23h-70z" />
    <glyph glyph-name="four.dnom" horiz-adv-x="593" 
d="M266 651h228v-416h76v-126h-76v-109h-152v109h-314v127q85 168 238 415zM169 235h173v299h-6q-112 -187 -167 -297v-2z" />
    <glyph glyph-name="five.dnom" horiz-adv-x="590" 
d="M47 183h148q5 -32 33 -52t69 -20q43 0 73.5 29.5t30.5 76.5q0 46 -29 75.5t-73 29.5q-37 0 -62 -17t-36 -40h-146l30 386h428v-126h-300l-13 -144h6q15 21 51.5 38.5t88.5 17.5q88 0 150.5 -58.5t62.5 -154.5q0 -108 -73 -172t-190 -64q-114 0 -180.5 55.5t-68.5 139.5z
" />
    <glyph glyph-name="six.dnom" horiz-adv-x="594" 
d="M312 662q106 0 169.5 -55t67.5 -125h-154q-3 24 -27 41.5t-59 17.5q-60 0 -90.5 -57.5t-28.5 -146.5h7q16 37 55 64t101 27q88 0 149.5 -56t61.5 -154q0 -107 -72.5 -168.5t-184.5 -61.5q-128 0 -201 85q-72 84 -72 243q0 165 74 255.5t204 90.5zM308 109q43 0 71 28
t28 75t-28.5 75.5t-71.5 28.5t-71 -28.5t-28 -75.5q0 -46 28.5 -74.5t71.5 -28.5z" />
    <glyph glyph-name="seven.dnom" horiz-adv-x="540" 
d="M29 651h475v-132l-260 -519h-172l272 517v6h-315v128z" />
    <glyph glyph-name="eight.dnom" horiz-adv-x="601" 
d="M300 -12q-124 0 -196.5 53t-72.5 139q0 70 42.5 110.5t98.5 50.5v5q-115 35 -115 146q0 75 66.5 123t176.5 48q111 0 177.5 -48t66.5 -123q0 -111 -115 -146v-5q56 -10 98.5 -50.5t42.5 -110.5q0 -86 -73.5 -139t-196.5 -53zM300 390q39 0 64 23t25 59t-25 58.5t-64 22.5
q-37 0 -62 -22.5t-25 -58.5t25 -59t62 -23zM300 98q46 0 76.5 26t30.5 68t-30.5 68.5t-76.5 26.5t-75.5 -26.5t-29.5 -68.5t30 -68t75 -26z" />
    <glyph glyph-name="nine.dnom" horiz-adv-x="593" 
d="M41 171h153q5 -26 30 -44.5t60 -18.5q65 0 94.5 60.5t24.5 146.5h-7q-14 -38 -53.5 -65t-104.5 -27q-87 0 -147 56.5t-61 153.5q0 107 73 168t182 61q130 0 202.5 -84.5t72.5 -246.5q0 -160 -73 -251t-206 -91q-108 0 -172.5 56t-67.5 126zM287 542q-43 0 -71.5 -28
t-28.5 -75t28 -75t71 -28t72 29t29 73q0 48 -28 76t-72 28z" />
    <glyph glyph-name="plus.dnom" horiz-adv-x="589" 
d="M363 206v-194h-138v194h-183v135h183v189h138v-189h184v-135h-184z" />
    <glyph glyph-name="equal.dnom" horiz-adv-x="590" 
d="M534 316h-479v125h479v-125zM534 94h-479v125h479v-125z" />
    <glyph glyph-name="parenleft.dnom" horiz-adv-x="344" 
d="M174 653h151q-41 -48 -76.5 -146t-35.5 -233q0 -72 10.5 -135t30 -114t34 -79.5t36.5 -66.5h-154q-122 150 -122 394q0 96 21.5 175t44.5 118.5t60 86.5z" />
    <glyph glyph-name="parenright.dnom" horiz-adv-x="344" 
d="M20 653h150q37 -47 60 -86.5t44.5 -118.5t21.5 -175q0 -243 -123 -394h-152q31 53 49.5 92t39.5 124.5t21 178.5q0 135 -35 232.5t-76 146.5z" />
    <glyph glyph-name="zero.numr" horiz-adv-x="585" 
d="M291 702q-123 0 -191 86.5t-68 230.5v42q0 143 69.5 229.5t192.5 86.5q124 0 191.5 -85.5t67.5 -230.5v-42q0 -139 -68.5 -228t-193.5 -89zM293 832q45 0 71.5 48t26.5 140v40q0 92 -26.5 139.5t-71.5 47.5q-46 0 -72.5 -47.5t-26.5 -139.5v-40q0 -93 26.5 -140.5
t72.5 -47.5z" />
    <glyph glyph-name="one.numr" horiz-adv-x="420" 
d="M351 714h-161v502h-8q-8 -3 -70.5 -44.5t-75.5 -51.5v144q116 80 156 101h159v-651z" />
    <glyph glyph-name="two.numr" horiz-adv-x="562" 
d="M191 1160h-152v9q0 85 61.5 146.5t176.5 61.5q107 0 172 -53t65 -134q0 -15 -1.5 -29t-7 -28t-9 -24t-13 -24t-13.5 -21t-17 -21.5t-17 -19t-19 -20t-18 -18.5l-129 -138v-5h255v-128h-476v100l237 242q22 23 33.5 36.5t23.5 37t12 45.5q0 32 -23.5 54.5t-58.5 22.5
q-37 0 -59.5 -23.5t-22.5 -57.5v-11z" />
    <glyph glyph-name="three.numr" horiz-adv-x="574" 
d="M209 990v116h67q40 0 64.5 21.5t24.5 55.5q0 32 -24.5 53t-63.5 21q-40 0 -63.5 -24t-25.5 -56h-150q3 91 68 145.5t179 54.5q103 0 170.5 -48t68.5 -124q1 -63 -36 -101t-82 -44v-7q54 -4 95.5 -44.5t41.5 -110.5q0 -89 -76.5 -142.5t-188.5 -53.5q-119 0 -183.5 58
t-65.5 145h149q2 -35 30.5 -58t72.5 -23q46 0 73 23.5t26 60.5q0 36 -26.5 59t-74.5 23h-70z" />
    <glyph glyph-name="four.numr" horiz-adv-x="593" 
d="M266 1365h228v-416h76v-126h-76v-109h-152v109h-314v127q85 168 238 415zM169 949h173v299h-6q-112 -187 -167 -297v-2z" />
    <glyph glyph-name="five.numr" horiz-adv-x="590" 
d="M47 897h148q5 -32 33 -52t69 -20q43 0 73.5 29.5t30.5 76.5q0 46 -29 75.5t-73 29.5q-37 0 -62 -17t-36 -40h-146l30 386h428v-126h-300l-13 -144h6q15 22 51 39.5t89 17.5q88 0 150.5 -58.5t62.5 -155.5q0 -108 -73 -172t-190 -64q-114 0 -180.5 55.5t-68.5 139.5z" />
    <glyph glyph-name="six.numr" horiz-adv-x="594" 
d="M312 1376q106 0 169.5 -55t67.5 -125h-154q-3 24 -27 42t-59 18q-60 0 -90.5 -58t-28.5 -147h7q16 38 55 65t101 27q88 0 149.5 -56.5t61.5 -153.5q0 -108 -72.5 -169.5t-184.5 -61.5q-128 0 -201 85q-72 86 -72 243q0 165 74 255.5t204 90.5zM308 823q43 0 71 28t28 75
t-28.5 75.5t-71.5 28.5t-71 -28.5t-28 -75.5q0 -46 28.5 -74.5t71.5 -28.5z" />
    <glyph glyph-name="seven.numr" horiz-adv-x="540" 
d="M29 1365h475v-131l-260 -520h-172l272 517v6h-315v128z" />
    <glyph glyph-name="eight.numr" horiz-adv-x="601" 
d="M300 702q-124 0 -196.5 53t-72.5 139q0 70 42.5 110.5t98.5 50.5v5q-115 35 -115 146q0 75 66.5 123t176.5 48q111 0 177.5 -48t66.5 -123q0 -111 -115 -146v-5q56 -10 98.5 -50.5t42.5 -110.5q0 -86 -73.5 -139t-196.5 -53zM300 1104q39 0 64 23t25 59t-25 58.5
t-64 22.5q-37 0 -62 -22.5t-25 -58.5t25 -59t62 -23zM300 812q46 0 76.5 26t30.5 68t-30.5 68.5t-76.5 26.5t-75.5 -26.5t-29.5 -68.5t30 -68t75 -26z" />
    <glyph glyph-name="nine.numr" horiz-adv-x="593" 
d="M41 885h153q5 -26 29.5 -44t60.5 -18q65 0 94.5 60t24.5 146h-7q-14 -38 -53.5 -65t-104.5 -27q-87 0 -147 56.5t-61 153.5q0 107 73 168t182 61q130 0 202.5 -84.5t72.5 -246.5q0 -160 -73 -251t-206 -91q-108 0 -172.5 56t-67.5 126zM287 1256q-43 0 -71.5 -28
t-28.5 -75t28 -75t71 -28t72 29t29 73q0 48 -28 76t-72 28z" />
    <glyph glyph-name="plus.numr" horiz-adv-x="589" 
d="M363 920v-194h-138v194h-183v135h183v189h138v-189h184v-135h-184z" />
    <glyph glyph-name="equal.numr" horiz-adv-x="590" 
d="M534 1030h-479v125h479v-125zM534 808h-479v125h479v-125z" />
    <glyph glyph-name="parenleft.numr" horiz-adv-x="344" 
d="M174 1367h151q-41 -48 -76.5 -146t-35.5 -233q0 -93 21 -178t40.5 -125t49.5 -92h-154q-122 150 -122 394q0 96 21.5 175t44.5 118.5t60 86.5z" />
    <glyph glyph-name="parenright.numr" horiz-adv-x="344" 
d="M20 1367h150q37 -47 60 -86.5t44.5 -118.5t21.5 -175q0 -243 -123 -394h-152q30 53 49 92t40 124.5t21 178.5q0 135 -35 232.5t-76 146.5z" />
    </font>
</defs>
</svg>
