<svg width="40" height="40" viewBox="0 0 40 40" fill="none" xmlns="http://www.w3.org/2000/svg">
<path fill-rule="evenodd" clip-rule="evenodd" d="M10.961 19.5937C10.997 19.4029 11.0888 19.2207 11.2364 19.073L19.863 10.4465C20.2535 10.0559 20.8867 10.0559 21.2772 10.4465C21.6677 10.837 21.6677 11.4701 21.2772 11.8607L14.138 18.9999H28.3617C28.9139 18.9999 29.3617 19.4476 29.3617 19.9999C29.3617 20.5522 28.9139 20.9999 28.3617 20.9999H14.2891L21.2087 27.9195C21.5992 28.31 21.5992 28.9432 21.2087 29.3337C20.8182 29.7242 20.185 29.7242 19.7945 29.3337L11.1679 20.7071C10.8668 20.4061 10.7979 19.9608 10.961 19.5937Z" fill="#F9B341"/>
<path fill-rule="evenodd" clip-rule="evenodd" d="M10.961 19.5937C10.997 19.4029 11.0888 19.2207 11.2364 19.073L19.863 10.4465C20.2535 10.0559 20.8867 10.0559 21.2772 10.4465C21.6677 10.837 21.6677 11.4701 21.2772 11.8607L14.138 18.9999H28.3617C28.9139 18.9999 29.3617 19.4476 29.3617 19.9999C29.3617 20.5522 28.9139 20.9999 28.3617 20.9999H14.2891L21.2087 27.9195C21.5992 28.31 21.5992 28.9432 21.2087 29.3337C20.8182 29.7242 20.185 29.7242 19.7945 29.3337L11.1679 20.7071C10.8668 20.4061 10.7979 19.9608 10.961 19.5937Z" fill="url(#paint0_linear)"/>
<defs>
<linearGradient id="paint0_linear" x1="12.1998" y1="-2529.88" x2="29.4662" y2="-2529.88" gradientUnits="userSpaceOnUse">
<stop offset="0.0933584" stop-color="white"/>
<stop offset="1" stop-color="white" stop-opacity="0"/>
</linearGradient>
</defs>
</svg>
